<?xml version="1.0" encoding="UTF-8" standalone="no"?>
<svg
   width="600"
   height="500"
   viewBox="0 0 600 500"
   role="img"
   aria-label="SAMT brand asset"
   version="1.1"
   id="svg13"
   sodipodi:docname="05_strategic_ascent_symbol_fullcolor.svg"
   xmlns:inkscape="http://www.inkscape.org/namespaces/inkscape"
   xmlns:sodipodi="http://sodipodi.sourceforge.net/DTD/sodipodi-0.dtd"
   xmlns="http://www.w3.org/2000/svg"
   xmlns:svg="http://www.w3.org/2000/svg">
  <sodipodi:namedview
     id="namedview13"
     pagecolor="#ffffff"
     bordercolor="#000000"
     borderopacity="0.25"
     inkscape:showpageshadow="2"
     inkscape:pageopacity="0.0"
     inkscape:pagecheckerboard="0"
     inkscape:deskcolor="#d1d1d1" />
  <defs
     id="defs11">
    <linearGradient
       id="silverGrad"
       x1="0"
       y1="0"
       x2="1"
       y2="1">
      <stop
         offset="0"
         stop-color="#F7F8FA"
         id="stop1" />
      <stop
         offset="0.45"
         stop-color="#C0C6CF"
         id="stop2" />
      <stop
         offset="1"
         stop-color="#7D8792"
         id="stop3" />
    </linearGradient>
    <linearGradient
       id="goldGrad"
       x1="0"
       y1="0"
       x2="1"
       y2="1">
      <stop
         offset="0"
         stop-color="#F1D99A"
         id="stop4" />
      <stop
         offset="0.58"
         stop-color="#D4AF37"
         id="stop5" />
      <stop
         offset="1"
         stop-color="#9B6D13"
         id="stop6" />
    </linearGradient>
    <linearGradient
       id="navyGrad"
       x1="0"
       y1="1"
       x2="1"
       y2="0">
      <stop
         offset="0"
         stop-color="#142C4D"
         id="stop7" />
      <stop
         offset="1"
         stop-color="#081D33"
         id="stop8" />
    </linearGradient>
    <radialGradient
       id="navyBackground"
       cx="55%"
       cy="18%"
       r="90%">
      <stop
         offset="0"
         stop-color="#1B3A63"
         id="stop9" />
      <stop
         offset="0.42"
         stop-color="#081D33"
         id="stop10" />
      <stop
         offset="1"
         stop-color="#03070D"
         id="stop11" />
    </radialGradient>
  </defs>
  <g
     transform="translate(40,35) scale(1.7)"
     id="g13">
    <g
       id="strategic-ascent-symbol">
      <path
         d="M36 206 C 102 210 172 187 221 139 C 244 116 260 89 270 52 C 248 87 225 116 194 140 C 149 175 95 197 36 206 Z"
         fill="url(#silverGrad)"
         id="path11" />
      <path
         d="M70 221 C 129 217 186 194 226 154 C 248 132 262 101 272 54 C 255 93 235 125 207 151 C 169 187 122 210 70 221 Z"
         fill="url(#navyGrad)"
         id="path12" />
      <path
         d="M111 232 C 162 222 208 199 237 168 C 256 147 267 113 274 55 C 261 106 244 139 220 166 C 191 198 153 219 111 232 Z"
         fill="url(#goldGrad)"
         id="path13" />
      <path
         id="polygon13"
         style="fill:url(#goldGrad)"
         d="m 270,12 2.87,17.07 14.1,-10.04 -10.04,14.1 L 294,36 276.93,38.87 286.97,52.97 272.87,42.93 270,60 267.13,42.93 253.03,52.97 263.07,38.87 246,36 l 17.07,-2.87 -10.04,-14.1 14.1,10.04 z" />
      <path
         id="circle13"
         style="fill:#ffffff"
         d="M 272.6,36 A 2.5999999,2.5999999 0 0 1 270,38.6 2.5999999,2.5999999 0 0 1 267.4,36 2.5999999,2.5999999 0 0 1 270,33.4 2.5999999,2.5999999 0 0 1 272.6,36 Z" />
    </g>
  </g>
</svg>
