<?xml version="1.0" encoding="UTF-8" standalone="no"?>
<svg
   width="1350"
   height="390"
   viewBox="0 0 1350 390"
   role="img"
   aria-label="SAMT brand asset"
   version="1.1"
   id="svg15"
   sodipodi:docname="03_english_first_horizontal_fullcolor.svg"
   xmlns:inkscape="http://www.inkscape.org/namespaces/inkscape"
   xmlns:sodipodi="http://sodipodi.sourceforge.net/DTD/sodipodi-0.dtd"
   xmlns="http://www.w3.org/2000/svg"
   xmlns:svg="http://www.w3.org/2000/svg">
  <sodipodi:namedview
     id="namedview15"
     pagecolor="#ffffff"
     bordercolor="#F7F8FA"
     borderopacity="0.25"
     inkscape:showpageshadow="2"
     inkscape:pageopacity="0.0"
     inkscape:pagecheckerboard="0"
     inkscape:deskcolor="#d1d1d1" />
  <defs
     id="defs11">
    <linearGradient
       id="silverGrad"
       x1="0"
       y1="0"
       x2="1"
       y2="1">
      <stop
         offset="0"
         stop-color="#F7F8FA"
         id="stop1" />
      <stop
         offset="0.45"
         stop-color="#C0C6CF"
         id="stop2" />
      <stop
         offset="1"
         stop-color="#7D8792"
         id="stop3" />
    </linearGradient>
    <linearGradient
       id="goldGrad"
       x1="0"
       y1="0"
       x2="1"
       y2="1">
      <stop
         offset="0"
         stop-color="#F1D99A"
         id="stop4" />
      <stop
         offset="0.58"
         stop-color="#D4AF37"
         id="stop5" />
      <stop
         offset="1"
         stop-color="#9B6D13"
         id="stop6" />
    </linearGradient>
    <linearGradient
       id="navyGrad"
       x1="0"
       y1="1"
       x2="1"
       y2="0">
      <stop
         offset="0"
         stop-color="#C0C6CF"
         id="stop7" />
      <stop
         offset="1"
         stop-color="#F7F8FA"
         id="stop8" />
    </linearGradient>
    <radialGradient
       id="navyBackground"
       cx="55%"
       cy="18%"
       r="90%">
      <stop
         offset="0"
         stop-color="#F7F8FA"
         id="stop9" />
      <stop
         offset="0.42"
         stop-color="#F7F8FA"
         id="stop10" />
      <stop
         offset="1"
         stop-color="#F7F8FA"
         id="stop11" />
    </radialGradient>
  </defs>
  <g
     transform="translate(76,58) scale(0.9)"
     id="g13">
    <g
       id="strategic-ascent-symbol">
      <path
         d="M36 206 C 102 210 172 187 221 139 C 244 116 260 89 270 52 C 248 87 225 116 194 140 C 149 175 95 197 36 206 Z"
         fill="url(#silverGrad)"
         id="path11" />
      <path
         d="M70 221 C 129 217 186 194 226 154 C 248 132 262 101 272 54 C 255 93 235 125 207 151 C 169 187 122 210 70 221 Z"
         fill="url(#navyGrad)"
         id="path12" />
      <path
         d="M111 232 C 162 222 208 199 237 168 C 256 147 267 113 274 55 C 261 106 244 139 220 166 C 191 198 153 219 111 232 Z"
         fill="url(#goldGrad)"
         id="path13" />
      <path
         id="polygon13"
         style="fill:url(#goldGrad)"
         d="m 270,12 2.87,17.07 14.1,-10.04 -10.04,14.1 L 294,36 276.93,38.87 286.97,52.97 272.87,42.93 270,60 267.13,42.93 253.03,52.97 263.07,38.87 246,36 l 17.07,-2.87 -10.04,-14.1 14.1,10.04 z" />
      <path
         id="circle13"
         style="fill:#ffffff"
         d="M 272.6,36 A 2.5999999,2.5999999 0 0 1 270,38.6 2.5999999,2.5999999 0 0 1 267.4,36 2.5999999,2.5999999 0 0 1 270,33.4 2.5999999,2.5999999 0 0 1 272.6,36 Z" />
    </g>
  </g>
  <path
     id="line13"
     style="stroke:#d4af37;stroke-width:2"
     d="M 390,75 V 320" />
  <path
     d="m 509.8,111.85 q 7.95,0 15.15,3.9 4.2,2.25 4.5,4.35 0.6,3.15 0.6,8.55 0,4.05 -3,4.05 -3.15,0 -6,-6.9 -1.05,-2.55 -4.65,-3.9 -3.6,-1.5 -7.2,-1.5 -4.95,0 -8.7,3.45 -3.6,3.45 -3.6,8.4 0,6.15 7.65,12.6 l 21.15,17.85 q 7.2,6 7.2,15.3 0,10.65 -9.3,18.15 -9.15,7.5 -20.85,7.5 -8.55,0 -15.75,-3.3 -4.35,-1.95 -5.7,-2.85 -1.2,-1.05 -1.2,-2.55 0,-4.5 0.9,-10.35 0.6,-3.6 2.85,-3.6 3,0 5.1,7.05 1.35,4.2 5.55,7.05 4.35,2.7 10.65,2.7 5.55,0 9.3,-4.35 3.75,-4.35 3.75,-10.05 0,-6.9 -6,-12 l -20.25,-17.1 q -8.85,-7.35 -8.85,-17.25 0,-10.5 7.8,-17.85 7.8,-7.35 18.9,-7.35 z m 88.25006,49.35 q -0.9,1.8 -0.75,2.55 0.3,0.6 2.1,0.6 h 18.3 q 2.25,0 2.55,-0.9 0.3,-0.9 -0.9,-4.5 l -9.15,-28.05 q -0.6,-2.1 -1.65,0.45 z m 42.75,40.2 q -5.55,0 -12,0.45 -6.45,0.45 -8.1,0.45 -1.65,0 -3.3,-0.6 -1.5,-0.75 -1.5,-1.95 0,-1.05 1.05,-1.65 1.2,-0.75 3.6,-1.5 2.55,-0.9 3.45,-1.35 5.85,-2.7 4.35,-7.95 l -4.35,-14.25 q -0.6,-1.8 -2.4,-1.8 h -25.05 q -1.8,0 -2.4,1.65 l -5.7,16.35 q -1.65,4.95 3.3,6.3 5.55,1.5 5.55,4.2 0,2.55 -5.25,2.55 -1.5,0 -6.3,-0.45 -4.65,-0.45 -6,-0.45 -2.1,0 -5.4,0.45 -3.15,0.45 -4.05,0.45 -4.95,0 -4.95,-2.55 0,-1.05 1.2,-1.65 1.2,-0.75 3.6,-1.5 2.55,-0.9 3.45,-1.35 0.75,-0.3 1.35,-0.6 0.6,-0.3 1.05,-0.6 0.45,-0.3 0.9,-0.6 0.45,-0.45 0.6,-0.6 0.3,-0.15 0.6,-0.75 0.3,-0.6 0.45,-0.75 0.15,-0.15 0.45,-0.9 0.45,-0.9 0.45,-1.2 0.15,-0.3 0.6,-1.35 0.45,-1.2 0.6,-1.8 l 22.95,-63.45 q 0.6,-1.65 1.2,-3.3 0.6,-1.65 0.9,-2.4 0.3,-0.9 0.6,-1.5 0.3,-0.75 0.6,-1.05 0.45,-0.3 0.9,-0.3 1.65,-0.15 3.9,-2.25 2.25,-2.25 2.55,-2.25 0.75,0 1.35,0.6 0.6,0.45 1.05,1.65 0.6,1.05 0.9,2.1 0.45,1.05 1.05,3.15 0.75,2.1 1.2,3.3 l 19.8,55.95 q 3.6,9.9 5.85,13.5 2.25,3.45 7.5,5.4 6,2.1 6,4.65 0,2.4 -4.35,2.4 -1.5,0 -6.3,-0.45 -4.8,-0.45 -7.5,-0.45 z m 151.55001,-18.75 q 0.6,9.75 7.05,12.6 0.9,0.45 3.3,1.35 2.55,0.75 3.75,1.5 1.2,0.6 1.2,1.65 0,2.1 -4.8,2.55 -0.3,0 -3.45,-0.3 -3,-0.15 -7.35,-0.3 -4.2,-0.3 -7.35,-0.3 -3.15,0 -7.2,0.3 -3.9,0.15 -6.75,0.3 -2.7,0.3 -3,0.3 -4.95,-0.45 -4.95,-2.55 0,-1.05 1.2,-1.65 1.2,-0.75 3.6,-1.5 2.55,-0.9 3.45,-1.35 7.5,-3.3 7.05,-12.6 l -1.95,-47.25 q -0.15,-2.55 -1.95,-1.8 -1.2,0.6 -1.95,2.25 l -20.25,46.5 q -1.2,2.7 -4.35,8.55 -3,5.7 -3.9,5.7 -1.2,0 -2.4,-1.8 -1.2,-1.8 -3.45,-7.5 l -18.45,-47.25 q -1.05,-2.7 -1.95,-3.3 -0.75,-0.6 -1.2,0.45 -0.45,0.9 -0.6,3 l -2.55,41.85 q -0.3,3.75 0.75,7.95 1.2,4.05 3.9,5.25 0.9,0.45 3.3,1.35 2.55,0.75 3.75,1.5 1.2,0.6 1.2,1.65 0,2.1 -4.8,2.55 -0.3,0 -2.55,-0.3 -2.25,-0.15 -5.7,-0.3 -3.45,-0.3 -6.6,-0.3 -3.15,0 -6.3,0.3 -3.15,0.15 -5.25,0.3 -1.95,0.3 -2.25,0.3 -4.95,-0.45 -4.95,-2.55 0,-1.05 1.05,-1.65 1.2,-0.75 3.75,-1.5 2.55,-0.9 3.45,-1.35 6.9,-3 8.7,-15.75 l 5.1,-39.9 q 0.9,-7.35 -0.3,-10.65 -1.2,-3.3 -4.5,-6.3 -0.9,-0.9 -3.15,-2.25 -2.25,-1.5 -3.6,-2.7 -1.35,-1.2 -1.35,-2.25 0,-2.1 5.1,-2.1 2.55,0 7.8,0.45 5.25,0.3 8.85,0.3 3,0 5.1,2.25 2.25,2.1 4.35,7.2 l 17.55,43.05 q 0.6,1.65 0.9,2.1 0.3,0.45 0.75,1.05 0.6,0.45 1.35,-0.3 0.75,-0.9 1.65,-3 l 23.55,-48.9 q 1.2,-2.4 2.7,-2.85 1.5,-0.6 4.95,-0.6 1.8,0 9.15,-0.75 7.35,-0.75 9.9,-0.75 2.4,0 2.4,2.55 0,1.05 -1.2,1.8 -1.05,0.6 -6,2.7 -3.6,1.5 -4.95,4.35 -1.2,2.85 -0.9,9.15 z m 81.19995,-56.4 q 0,-4.65 -2.4,-4.65 h -18.3 q -2.7,0 -3.9,1.05 -1.2,1.05 -2.55,3.45 -0.45,0.75 -1.2,2.4 -0.6,1.5 -1.05,2.4 -0.45,0.9 -1.2,1.65 -0.6,0.75 -1.35,0.75 -2.7,0 -2.7,-3.45 0,-1.5 0.3,-4.2 0.45,-2.7 0.45,-5.25 0,-1.35 -0.15,-3.75 -0.15,-2.4 -0.15,-3 0,-1.5 0.75,-2.55 0.75,-1.2 1.8,-1.2 0.45,0 4.95,2.25 4.5,2.25 9.3,2.25 h 52.35 q 5.85,0 10.5,-2.55 0.6,-0.3 1.35,-0.9 0.9,-0.75 1.5,-1.05 0.75,-0.3 1.5,-0.3 1.2,0 1.95,0.9 0.75,0.75 0.75,1.8 0,0.45 -0.3,2.55 -0.3,1.95 -0.3,3.9 0,2.1 0.15,6 0.15,3.75 0.15,4.35 0,3.45 -2.1,3.45 -1.5,0 -5.4,-6.75 -2.55,-4.2 -5.4,-4.2 h -23.25 q -1.8,0 -1.8,4.65 v 58.2 q 0,4.2 1.65,6.75 1.65,2.4 5.4,4.05 0.9,0.45 3.3,1.35 2.55,0.75 3.75,1.5 1.2,0.6 1.2,1.65 0,2.1 -4.8,2.55 -0.3,0 -3.45,-0.3 -3,-0.15 -7.35,-0.3 -4.2,-0.3 -7.35,-0.3 -3.15,0 -7.2,0.3 -3.9,0.15 -6.75,0.3 -2.7,0.3 -3,0.3 -4.95,-0.45 -4.95,-2.55 0,-1.05 1.2,-1.65 1.2,-0.75 3.6,-1.5 2.55,-0.9 3.45,-1.35 3.75,-1.65 5.4,-4.05 1.65,-2.55 1.65,-6.75 z"
     id="text13"
     style="font-weight:500;font-size:150px;font-family:'EB Garamond';letter-spacing:26;fill:#F7F8FA"
     aria-label="SAMT" />
  <path
     d="m 497.192,265.32 q 0,2.28 -1.656,3.6 -1.656,1.32 -4.584,1.32 -2.832,0 -4.8,-0.96 v -2.88 q 1.08,0.48 2.376,0.888 1.296,0.384 2.64,0.384 1.536,0 2.256,-0.6 0.72,-0.6 0.72,-1.584 0,-1.08 -0.912,-1.704 -0.912,-0.624 -2.664,-1.368 -1.056,-0.456 -2.016,-1.08 -0.96,-0.624 -1.584,-1.584 -0.624,-0.96 -0.624,-2.448 0,-2.208 1.536,-3.432 1.56,-1.248 4.152,-1.248 1.368,0 2.544,0.288 1.2,0.288 2.4,0.816 l -0.984,2.472 q -1.08,-0.456 -2.064,-0.72 -0.96,-0.264 -1.992,-0.264 -1.248,0 -1.896,0.576 -0.648,0.552 -0.648,1.44 0,0.72 0.36,1.2 0.36,0.48 1.104,0.888 0.768,0.408 1.968,0.936 1.368,0.6 2.352,1.248 0.984,0.648 1.488,1.56 0.528,0.912 0.528,2.256 z m 11.98398,4.68 h -3.072 v -14.544 h -4.92 v -2.592 h 12.912 v 2.592 h -4.92 z m 15.008,-17.136 q 3.384,0 4.992,1.248 1.632,1.248 1.632,3.792 0,1.248 -0.48,2.136 -0.456,0.888 -1.2,1.488 -0.744,0.576 -1.608,0.936 l 4.92,7.536 h -3.456 l -4.104,-6.768 h -2.496 V 270 h -3.072 v -17.136 z m -0.192,2.568 h -1.608 v 5.28 h 1.704 q 1.896,0 2.736,-0.672 0.864,-0.696 0.864,-2.04 0,-1.392 -0.912,-1.968 -0.888,-0.6 -2.784,-0.6 z m 24.00799,14.568 -1.56,-4.536 h -6.456 l -1.536,4.536 h -3.264 l 6.288,-17.208 h 3.504 l 6.288,17.208 z m -3.84,-11.592 q -0.096,-0.336 -0.288,-0.912 -0.192,-0.576 -0.384,-1.176 -0.168,-0.624 -0.264,-1.032 -0.12,0.48 -0.312,1.104 -0.168,0.624 -0.336,1.176 -0.168,0.552 -0.24,0.84 l -1.512,4.416 h 4.824 z m 16.424,11.592 h -3.072 v -14.544 h -4.92 v -2.592 h 12.912 v 2.592 h -4.92 z m 19.87999,0 h -9.744 v -17.136 h 9.744 v 2.568 h -6.672 v 4.368 h 6.24 v 2.568 h -6.24 v 5.04 h 6.672 z m 13.08801,-9.408 h 6.48 v 8.712 q -1.368,0.432 -2.808,0.696 -1.44,0.24 -3.264,0.24 -3.888,0 -5.976,-2.304 -2.088,-2.304 -2.088,-6.528 0,-2.664 1.032,-4.632 1.056,-1.992 3.048,-3.072 1.992,-1.08 4.848,-1.08 1.392,0 2.688,0.288 1.32,0.288 2.4,0.744 l -1.056,2.52 q -0.84,-0.384 -1.896,-0.672 -1.056,-0.288 -2.208,-0.288 -1.752,0 -3.024,0.768 -1.272,0.768 -1.968,2.184 -0.672,1.392 -0.672,3.288 0,1.824 0.528,3.216 0.528,1.392 1.68,2.184 1.152,0.792 3,0.792 0.912,0 1.536,-0.096 0.624,-0.096 1.176,-0.216 v -4.128 h -3.456 z m 18.992,9.408 h -7.2 v -1.752 l 2.064,-0.768 v -12.072 l -2.064,-0.792 v -1.752 h 7.2 v 1.752 l -2.064,0.792 v 12.072 l 2.064,0.768 z m 12.96802,-14.784 q -2.352,0 -3.648,1.68 -1.272,1.68 -1.272,4.56 0,2.904 1.2,4.56 1.2,1.632 3.696,1.632 1.08,0 2.112,-0.216 1.032,-0.24 2.16,-0.624 v 2.616 q -1.056,0.432 -2.136,0.624 -1.056,0.192 -2.448,0.192 -2.64,0 -4.368,-1.08 -1.728,-1.104 -2.568,-3.072 -0.84,-1.992 -0.84,-4.656 0,-2.592 0.936,-4.56 0.936,-1.992 2.736,-3.12 1.824,-1.128 4.44,-1.128 1.296,0 2.544,0.312 1.272,0.288 2.376,0.816 l -1.056,2.52 q -0.912,-0.408 -1.896,-0.72 -0.96,-0.336 -1.968,-0.336 z M 655.48,270 l -1.56,-4.536 h -6.456 L 645.928,270 h -3.264 l 6.288,-17.208 h 3.504 L 658.744,270 Z m -3.84,-11.592 q -0.096,-0.336 -0.288,-0.912 -0.192,-0.576 -0.384,-1.176 -0.168,-0.624 -0.264,-1.032 -0.12,0.48 -0.312,1.104 -0.168,0.624 -0.336,1.176 -0.168,0.552 -0.24,0.84 l -1.512,4.416 h 4.824 z m 25.976,2.856 q 0,4.344 -2.424,6.552 Q 672.768,270 668.424,270 H 663.6 v -17.136 h 5.328 q 2.64,0 4.584,0.96 1.968,0.96 3.024,2.832 1.08,1.848 1.08,4.608 z m -3.216,0.096 q 0,-3.072 -1.416,-4.512 -1.392,-1.44 -4.056,-1.44 h -2.256 v 12.024 h 1.848 q 5.88,0 5.88,-6.072 z m 22.13598,-8.496 -5.928,17.136 h -3.288 l -5.928,-17.136 h 3.144 l 3.456,10.488 q 0.144,0.432 0.336,1.128 0.192,0.672 0.36,1.392 0.192,0.72 0.288,1.248 0.072,-0.528 0.24,-1.248 0.168,-0.72 0.36,-1.392 0.192,-0.696 0.36,-1.128 l 3.456,-10.488 z m 14.456,17.136 -1.56,-4.536 h -6.456 l -1.536,4.536 h -3.264 l 6.288,-17.208 h 3.504 l 6.288,17.208 z m -3.84,-11.592 q -0.096,-0.336 -0.288,-0.912 -0.192,-0.576 -0.384,-1.176 -0.168,-0.624 -0.264,-1.032 -0.12,0.48 -0.312,1.104 -0.168,0.624 -0.336,1.176 -0.168,0.552 -0.24,0.84 l -1.512,4.416 h 4.824 z M 733.67996,270 h -3.816 l -8.112,-13.44 h -0.096 q 0.072,1.08 0.12,2.328 0.072,1.224 0.096,2.472 V 270 h -2.76 v -17.136 h 3.792 l 8.088,13.344 h 0.072 q -0.048,-0.96 -0.096,-2.208 -0.048,-1.248 -0.072,-2.424 v -8.712 h 2.784 z m 14.35999,-14.784 q -2.352,0 -3.648,1.68 -1.272,1.68 -1.272,4.56 0,2.904 1.2,4.56 1.2,1.632 3.696,1.632 1.08,0 2.112,-0.216 1.032,-0.24 2.16,-0.624 v 2.616 q -1.056,0.432 -2.136,0.624 -1.056,0.192 -2.448,0.192 -2.64,0 -4.368,-1.08 -1.728,-1.104 -2.568,-3.072 -0.84,-1.992 -0.84,-4.656 0,-2.592 0.936,-4.56 0.936,-1.992 2.736,-3.12 1.824,-1.128 4.44,-1.128 1.296,0 2.544,0.312 1.272,0.288 2.376,0.816 l -1.056,2.52 q -0.912,-0.408 -1.896,-0.72 -0.96,-0.336 -1.968,-0.336 z M 768.32796,270 h -9.744 v -17.136 h 9.744 v 2.568 h -6.672 v 4.368 h 6.24 v 2.568 h -6.24 v 5.04 h 6.672 z m 13.616,0 -4.704,-14.04 h -0.096 q 0.024,0.48 0.072,1.368 0.048,0.864 0.072,1.896 0.048,1.008 0.048,1.896 V 270 h -2.76 v -17.136 h 4.272 l 4.512,13.464 h 0.096 l 4.704,-13.464 h 4.272 V 270 h -2.928 v -9.024 q 0,-0.816 0.024,-1.776 0.048,-0.984 0.072,-1.848 0.048,-0.864 0.072,-1.368 h -0.096 l -4.896,14.016 z m 27.27203,0 h -9.744 v -17.136 h 9.744 v 2.568 h -6.672 v 4.368 h 6.24 v 2.568 h -6.24 v 5.04 h 6.672 z m 20.816,0 h -3.816 l -8.112,-13.44 h -0.096 q 0.072,1.08 0.12,2.328 0.072,1.224 0.096,2.472 V 270 h -2.76 v -17.136 h 3.792 l 8.088,13.344 h 0.072 q -0.048,-0.96 -0.096,-2.208 -0.048,-1.248 -0.072,-2.424 v -8.712 h 2.784 z m 13.20799,0 h -3.072 v -14.544 h -4.92 v -2.592 h 12.912 v 2.592 h -4.92 z m 11.552,-2.52 q -0.336,1.272 -0.912,2.784 -0.576,1.536 -1.152,2.832 h -2.184 q 0.336,-1.392 0.672,-3.024 0.336,-1.608 0.504,-2.856 h 2.904 z"
     id="text14"
     style="font-weight:600;font-size:24px;font-family:'Noto Sans';letter-spacing:2.6;fill:#d4af37"
     aria-label="STRATEGIC ADVANCEMENT," />
  <path
     d="m 494.6,304 -4.704,-14.04 H 489.8 q 0.024,0.48 0.072,1.368 0.048,0.864 0.072,1.896 0.048,1.008 0.048,1.896 V 304 h -2.76 v -17.136 h 4.272 l 4.512,13.464 h 0.096 l 4.704,-13.464 h 4.272 V 304 h -2.928 v -9.024 q 0,-0.816 0.024,-1.776 0.048,-0.984 0.072,-1.848 0.048,-0.864 0.072,-1.368 h -0.096 L 497.336,304 Z m 28.11202,0 -1.56,-4.536 h -6.456 l -1.536,4.536 h -3.264 l 6.288,-17.208 h 3.504 l 6.288,17.208 z m -3.84,-11.592 q -0.096,-0.336 -0.288,-0.912 -0.192,-0.576 -0.384,-1.176 -0.168,-0.624 -0.264,-1.032 -0.12,0.48 -0.312,1.104 -0.168,0.624 -0.336,1.176 -0.168,0.552 -0.24,0.84 l -1.512,4.416 h 4.824 z M 545.40001,304 h -3.816 l -8.112,-13.44 h -0.096 q 0.072,1.08 0.12,2.328 0.072,1.224 0.096,2.472 V 304 h -2.76 v -17.136 h 3.792 l 8.088,13.344 h 0.072 q -0.048,-0.96 -0.096,-2.208 -0.048,-1.248 -0.072,-2.424 v -8.712 h 2.784 z m 17.64798,0 -1.56,-4.536 h -6.456 l -1.536,4.536 h -3.264 l 6.288,-17.208 h 3.504 l 6.288,17.208 z m -3.84,-11.592 q -0.096,-0.336 -0.288,-0.912 -0.192,-0.576 -0.384,-1.176 -0.168,-0.624 -0.264,-1.032 -0.12,0.48 -0.312,1.104 -0.168,0.624 -0.336,1.176 -0.168,0.552 -0.24,0.84 l -1.512,4.416 h 4.824 z m 18.31998,2.184 h 6.48 v 8.712 q -1.368,0.432 -2.808,0.696 -1.44,0.24 -3.264,0.24 -3.888,0 -5.976,-2.304 -2.088,-2.304 -2.088,-6.528 0,-2.664 1.032,-4.632 1.056,-1.992 3.048,-3.072 1.992,-1.08 4.848,-1.08 1.392,0 2.688,0.288 1.32,0.288 2.4,0.744 l -1.056,2.52 q -0.84,-0.384 -1.896,-0.672 -1.056,-0.288 -2.208,-0.288 -1.752,0 -3.024,0.768 -1.272,0.768 -1.968,2.184 -0.672,1.392 -0.672,3.288 0,1.824 0.528,3.216 0.528,1.392 1.68,2.184 1.152,0.792 3,0.792 0.912,0 1.536,-0.096 0.624,-0.096 1.176,-0.216 v -4.128 h -3.456 z m 22.928,9.408 h -9.744 v -17.136 h 9.744 v 2.568 h -6.672 v 4.368 h 6.24 v 2.568 h -6.24 v 5.04 h 6.672 z m 13.61601,0 -4.704,-14.04 h -0.096 q 0.024,0.48 0.072,1.368 0.048,0.864 0.072,1.896 0.048,1.008 0.048,1.896 V 304 h -2.76 v -17.136 h 4.272 l 4.512,13.464 h 0.096 l 4.704,-13.464 h 4.272 V 304 h -2.928 v -9.024 q 0,-0.816 0.024,-1.776 0.048,-0.984 0.072,-1.848 0.048,-0.864 0.072,-1.368 h -0.096 l -4.896,14.016 z m 27.27202,0 H 631.6 v -17.136 h 9.744 v 2.568 h -6.672 v 4.368 h 6.24 v 2.568 h -6.24 v 5.04 h 6.672 z m 20.81602,0 h -3.816 l -8.112,-13.44 h -0.096 q 0.072,1.08 0.12,2.328 0.072,1.224 0.096,2.472 V 304 h -2.76 v -17.136 h 3.792 l 8.088,13.344 h 0.072 q -0.048,-0.96 -0.096,-2.208 -0.048,-1.248 -0.072,-2.424 v -8.712 h 2.784 z m 13.20797,0 h -3.072 v -14.544 h -4.92 v -2.592 h 12.912 v 2.592 h -4.92 z M 699.504,286.624 q 2.016,0 3.288,0.984 1.272,0.96 1.272,2.712 0,1.608 -0.984,2.712 -0.984,1.104 -2.448,1.944 l 3.816,3.696 q 0.528,-0.768 0.888,-1.704 0.384,-0.936 0.648,-1.92 h 3.12 q -0.36,1.416 -1.032,2.88 -0.648,1.44 -1.656,2.64 L 709.92,304 h -3.816 l -1.632,-1.584 q -1.08,0.84 -2.4,1.344 -1.296,0.48 -2.976,0.48 -2.76,0 -4.344,-1.296 -1.56,-1.296 -1.56,-3.504 0,-1.824 0.888,-2.928 0.888,-1.104 2.472,-1.992 -0.888,-1.008 -1.368,-1.944 -0.48,-0.936 -0.48,-2.088 0,-1.8 1.32,-2.832 1.32,-1.032 3.48,-1.032 z m -0.048,2.352 q -0.744,0 -1.32,0.408 -0.576,0.384 -0.576,1.248 0,0.696 0.336,1.32 0.36,0.624 1.008,1.32 1.176,-0.648 1.728,-1.272 0.576,-0.624 0.576,-1.44 0,-0.768 -0.528,-1.176 -0.528,-0.408 -1.224,-0.408 z m -1.128,7.368 q -0.912,0.6 -1.44,1.248 -0.528,0.648 -0.528,1.608 0,1.128 0.816,1.8 0.816,0.672 2.088,0.672 1.08,0 1.896,-0.312 0.84,-0.312 1.464,-0.792 z M 729.76,304 h -3.072 v -14.544 h -4.92 v -2.592 h 12.912 v 2.592 h -4.92 z m 15.00799,-17.136 q 3.384,0 4.992,1.248 1.632,1.248 1.632,3.792 0,1.248 -0.48,2.136 -0.456,0.888 -1.2,1.488 -0.744,0.576 -1.608,0.936 l 4.92,7.536 h -3.456 l -4.104,-6.768 h -2.496 V 304 h -3.072 v -17.136 z m -0.192,2.568 h -1.608 v 5.28 h 1.704 q 1.896,0 2.736,-0.672 0.864,-0.696 0.864,-2.04 0,-1.392 -0.912,-1.968 -0.888,-0.6 -2.784,-0.6 z m 24.00798,14.568 -1.56,-4.536 h -6.456 l -1.536,4.536 h -3.264 l 6.288,-17.208 h 3.504 l 6.288,17.208 z m -3.84,-11.592 q -0.096,-0.336 -0.288,-0.912 -0.192,-0.576 -0.384,-1.176 -0.168,-0.624 -0.264,-1.032 -0.12,0.48 -0.312,1.104 -0.168,0.624 -0.336,1.176 -0.168,0.552 -0.24,0.84 l -1.512,4.416 h 4.824 z M 791.27198,304 h -3.816 l -8.112,-13.44 h -0.096 q 0.072,1.08 0.12,2.328 0.072,1.224 0.096,2.472 V 304 h -2.76 v -17.136 h 3.792 l 8.088,13.344 h 0.072 q -0.048,-0.96 -0.096,-2.208 -0.048,-1.248 -0.072,-2.424 v -8.712 h 2.784 z m 17.02399,-4.68 q 0,2.28 -1.656,3.6 -1.656,1.32 -4.584,1.32 -2.832,0 -4.8,-0.96 v -2.88 q 1.08,0.48 2.376,0.888 1.296,0.384 2.64,0.384 1.536,0 2.256,-0.6 0.72,-0.6 0.72,-1.584 0,-1.08 -0.912,-1.704 -0.912,-0.624 -2.664,-1.368 -1.056,-0.456 -2.016,-1.08 -0.96,-0.624 -1.584,-1.584 -0.624,-0.96 -0.624,-2.448 0,-2.208 1.536,-3.432 1.56,-1.248 4.152,-1.248 1.368,0 2.544,0.288 1.2,0.288 2.4,0.816 l -0.984,2.472 q -1.08,-0.456 -2.064,-0.72 -0.96,-0.264 -1.992,-0.264 -1.248,0 -1.896,0.576 -0.648,0.552 -0.648,1.44 0,0.72 0.36,1.2 0.36,0.48 1.104,0.888 0.768,0.408 1.968,0.936 1.368,0.6 2.352,1.248 0.984,0.648 1.488,1.56 0.528,0.912 0.528,2.256 z m 8.86396,4.68 h -3.024 v -17.136 h 9.72 v 2.568 h -6.696 v 5.04 h 6.24 v 2.568 h -6.24 z m 27.80002,-8.592 q 0,2.664 -0.888,4.656 -0.864,1.968 -2.664,3.072 -1.8,1.104 -4.512,1.104 -2.736,0 -4.536,-1.104 -1.776,-1.104 -2.664,-3.096 -0.864,-1.992 -0.864,-4.656 0,-2.64 0.864,-4.608 0.888,-1.992 2.664,-3.072 1.8,-1.104 4.56,-1.104 2.712,0 4.488,1.104 1.8,1.08 2.664,3.072 0.888,1.968 0.888,4.632 z m -12.888,0 q 0,2.904 1.152,4.56 1.152,1.656 3.672,1.656 2.544,0 3.672,-1.656 1.152,-1.656 1.152,-4.56 0,-2.904 -1.128,-4.56 -1.128,-1.656 -3.672,-1.656 -2.52,0 -3.696,1.656 -1.152,1.656 -1.152,4.56 z m 24.008,-8.544 q 3.384,0 4.992,1.248 1.632,1.248 1.632,3.792 0,1.248 -0.48,2.136 -0.456,0.888 -1.2,1.488 -0.744,0.576 -1.608,0.936 l 4.92,7.536 h -3.456 l -4.104,-6.768 h -2.496 V 304 h -3.072 v -17.136 z m -0.192,2.568 h -1.608 v 5.28 h 1.704 q 1.896,0 2.736,-0.672 0.864,-0.696 0.864,-2.04 0,-1.392 -0.912,-1.968 -0.888,-0.6 -2.784,-0.6 z m 20.79201,14.568 -4.704,-14.04 h -0.096 q 0.024,0.48 0.072,1.368 0.048,0.864 0.072,1.896 0.048,1.008 0.048,1.896 V 304 h -2.76 v -17.136 h 4.272 l 4.512,13.464 h 0.096 l 4.704,-13.464 h 4.272 V 304 h -2.928 v -9.024 q 0,-0.816 0.024,-1.776 0.048,-0.984 0.072,-1.848 0.048,-0.864 0.072,-1.368 h -0.096 l -4.896,14.016 z m 28.11202,0 -1.56,-4.536 h -6.456 l -1.536,4.536 h -3.264 l 6.288,-17.208 h 3.504 l 6.288,17.208 z m -3.84,-11.592 q -0.096,-0.336 -0.288,-0.912 -0.192,-0.576 -0.384,-1.176 -0.168,-0.624 -0.264,-1.032 -0.12,0.48 -0.312,1.104 -0.168,0.624 -0.336,1.176 -0.168,0.552 -0.24,0.84 l -1.512,4.416 h 4.824 z M 917.37597,304 h -3.072 v -14.544 h -4.92 v -2.592 h 12.912 v 2.592 h -4.92 z m 15.944,0 h -7.2 v -1.752 l 2.064,-0.768 v -12.072 l -2.064,-0.792 v -1.752 h 7.2 v 1.752 l -2.064,0.792 v 12.072 l 2.064,0.768 z m 20.98401,-8.592 q 0,2.664 -0.888,4.656 -0.864,1.968 -2.664,3.072 -1.8,1.104 -4.512,1.104 -2.736,0 -4.536,-1.104 -1.776,-1.104 -2.664,-3.096 -0.864,-1.992 -0.864,-4.656 0,-2.64 0.864,-4.608 0.888,-1.992 2.664,-3.072 1.8,-1.104 4.56,-1.104 2.712,0 4.488,1.104 1.8,1.08 2.664,3.072 0.888,1.968 0.888,4.632 z m -12.888,0 q 0,2.904 1.152,4.56 1.152,1.656 3.672,1.656 2.544,0 3.672,-1.656 1.152,-1.656 1.152,-4.56 0,-2.904 -1.128,-4.56 -1.128,-1.656 -3.672,-1.656 -2.52,0 -3.696,1.656 -1.152,1.656 -1.152,4.56 z M 975.12001,304 h -3.816 l -8.112,-13.44 h -0.096 q 0.072,1.08 0.12,2.328 0.072,1.224 0.096,2.472 V 304 h -2.76 v -17.136 h 3.792 l 8.088,13.344 h 0.072 q -0.048,-0.96 -0.096,-2.208 -0.048,-1.248 -0.072,-2.424 v -8.712 h 2.784 z"
     id="text15"
     style="font-weight:600;font-size:24px;font-family:'Noto Sans';letter-spacing:2.6;fill:#d4af37"
     aria-label="MANAGEMENT &amp; TRANSFORMATION" />
</svg>
