<?xml version="1.0" encoding="UTF-8" standalone="no"?>
<svg
   width="1000"
   height="360"
   viewBox="0 0 1000 360"
   role="img"
   aria-label="SAMT brand asset"
   version="1.1"
   id="svg13"
   sodipodi:docname="11_arabic_wordmark_bespoke.svg"
   xmlns:inkscape="http://www.inkscape.org/namespaces/inkscape"
   xmlns:sodipodi="http://sodipodi.sourceforge.net/DTD/sodipodi-0.dtd"
   xmlns="http://www.w3.org/2000/svg"
   xmlns:svg="http://www.w3.org/2000/svg">
  <sodipodi:namedview
     id="namedview13"
     pagecolor="#ffffff"
     bordercolor="#000000"
     borderopacity="0.25"
     inkscape:showpageshadow="2"
     inkscape:pageopacity="0.0"
     inkscape:pagecheckerboard="0"
     inkscape:deskcolor="#d1d1d1" />
  <defs
     id="defs11">
    <linearGradient
       id="silverGrad"
       x1="0"
       y1="0"
       x2="1"
       y2="1">
      <stop
         offset="0"
         stop-color="#F7F8FA"
         id="stop1" />
      <stop
         offset="0.45"
         stop-color="#C0C6CF"
         id="stop2" />
      <stop
         offset="1"
         stop-color="#7D8792"
         id="stop3" />
    </linearGradient>
    <linearGradient
       id="goldGrad"
       x1="0"
       y1="0"
       x2="1"
       y2="1">
      <stop
         offset="0"
         stop-color="#F1D99A"
         id="stop4" />
      <stop
         offset="0.58"
         stop-color="#D4AF37"
         id="stop5" />
      <stop
         offset="1"
         stop-color="#9B6D13"
         id="stop6" />
    </linearGradient>
    <linearGradient
       id="navyGrad"
       x1="0"
       y1="1"
       x2="1"
       y2="0">
      <stop
         offset="0"
         stop-color="#142C4D"
         id="stop7" />
      <stop
         offset="1"
         stop-color="#081D33"
         id="stop8" />
    </linearGradient>
    <radialGradient
       id="navyBackground"
       cx="55%"
       cy="18%"
       r="90%">
      <stop
         offset="0"
         stop-color="#1B3A63"
         id="stop9" />
      <stop
         offset="0.42"
         stop-color="#081D33"
         id="stop10" />
      <stop
         offset="1"
         stop-color="#03070D"
         id="stop11" />
    </radialGradient>
  </defs>
  <g
     transform="translate(500,180) scale(2.15) translate(-500,-165)"
     id="g13">
    <g
       id="arabic-wordmark">
      <path
         d="m 654.63996,225 q -7.04,0 -13.28,-2.72 -6.08,-2.88 -12.16,-8.96 -4.16,5.6 -10.56,8.64 -6.4,3.04 -15.04,3.04 h -60.16 q -0.8,0 -0.8,-0.8 v -15.52 q 0,-0.64 0.8,-0.64 h 20.96 v -49.28 h 20.48 v 49.28 h 14.72 q 15.68,0 15.68,-18.56 v -30.72 h 20.48 v 32.32 q 0,1.6 -0.16,3.36 0,1.6 -0.16,3.2 4,5.76 8,8.16 4.16,2.24 10.88,2.24 h 9.76 v -61.76 h 20.48 V 225 Z M 460.2401,208.04 q -4.96,-11.84 -4.96,-23.84 0,-6.88 2.08,-14.4 2.08,-7.52 5.28,-13.28 7.2,-4.64 15.52,-7.04 8.32,-2.56 15.36,-2.56 10.56,0 19.2,4.48 8.48,4.64 13.12,13.12 4.64,8.32 4.64,19.36 0,9.28 -3.2,17.28 3.04,3.84 6.88,5.44 4,1.44 10.08,1.44 h 0.8 q 0.8,0 0.8,0.64 v 15.52 q 0,0.8 -0.8,0.8 h -0.8 q -8.48,0 -14.72,-2.4 -6.08,-2.4 -11.52,-8.16 -5.76,5.28 -13.28,8 -7.52,2.56 -15.52,2.56 h -47.68 q -0.8,0 -0.8,-0.8 v -15.52 q 0,-0.64 0.8,-0.64 z m 14.56,-22.56 q 0,5.28 0.96,10.88 1.12,5.44 3.52,11.68 h 7.84 q 10.08,0 16.32,-6.72 6.24,-6.72 6.24,-17.6 0,-8.96 -4.64,-14.4 -4.64,-5.6 -11.84,-5.6 -4,0 -8.16,1.44 -4.16,1.28 -8,3.84 -1.12,3.84 -1.76,8 -0.48,4.16 -0.48,8.48 z m -121.44004,-39.2 q -4.48,0 -7.36,-2.88 -2.72,-2.88 -2.72,-8 0,-5.44 2.72,-8.16 2.88,-2.72 7.36,-2.72 4.64,0 7.36,2.88 2.72,2.72 2.72,8 0,5.12 -2.72,8 -2.72,2.88 -7.36,2.88 z m 27.36,0 q -4.64,0 -7.36,-2.88 -2.72,-3.04 -2.72,-8 0,-5.28 2.72,-8 2.72,-2.88 7.36,-2.88 4.8,0 7.36,2.88 2.72,2.88 2.72,8 0,4.96 -2.72,8 -2.72,2.88 -7.36,2.88 z m -37.28,78.72 q -14.4,0 -22.88,-8.48 -8.32,-8.48 -8.32,-23.36 0,-5.76 1.28,-12.64 1.44,-6.88 3.52,-11.68 h 18.24 q -2.4,10.88 -2.4,21.6 0,7.84 4.16,12.8 4.16,4.8 10.88,4.8 h 53.92 v -61.76 h 20.32 v 61.76 h 20.96 q 0.8,0 0.8,0.64 v 15.52 q 0,0.8 -0.8,0.8 z"
         fill="#081D33"
         id="path11" />
      <path
         d="M619 122 L644 115"
         stroke="#D4AF37"
         stroke-width="8"
         stroke-linecap="round"
         id="path12" />
      <path
         d="m 509,113 a 12,12 0 0 1 -12,12 12,12 0 0 1 -12,-12 12,12 0 0 1 12,-12 12,12 0 0 1 12,12 z"
         fill="none"
         stroke="#D4AF37"
         stroke-width="7"
         id="path13" />
    </g>
  </g>
</svg>
