<?xml version="1.0" encoding="UTF-8" standalone="no"?>
<svg
   width="1200"
   height="1110"
   viewBox="0 0 1200 1110"
   role="img"
   aria-label="SAMT brand asset"
   version="1.1"
   id="svg19"
   sodipodi:docname="01_primary_bilingual_vertical_endorsed_fullcolor.svg"
   xmlns:inkscape="http://www.inkscape.org/namespaces/inkscape"
   xmlns:sodipodi="http://sodipodi.sourceforge.net/DTD/sodipodi-0.dtd"
   xmlns="http://www.w3.org/2000/svg"
   xmlns:svg="http://www.w3.org/2000/svg">
  <sodipodi:namedview
     id="namedview19"
     pagecolor="#ffffff"
     bordercolor="#F7F8FA"
     borderopacity="0.25"
     inkscape:showpageshadow="2"
     inkscape:pageopacity="0.0"
     inkscape:pagecheckerboard="0"
     inkscape:deskcolor="#d1d1d1" />
  <defs
     id="defs11">
    <linearGradient
       id="silverGrad"
       x1="0"
       y1="0"
       x2="1"
       y2="1">
      <stop
         offset="0"
         stop-color="#F7F8FA"
         id="stop1" />
      <stop
         offset="0.45"
         stop-color="#C0C6CF"
         id="stop2" />
      <stop
         offset="1"
         stop-color="#7D8792"
         id="stop3" />
    </linearGradient>
    <linearGradient
       id="goldGrad"
       x1="0"
       y1="0"
       x2="1"
       y2="1">
      <stop
         offset="0"
         stop-color="#F1D99A"
         id="stop4" />
      <stop
         offset="0.58"
         stop-color="#D4AF37"
         id="stop5" />
      <stop
         offset="1"
         stop-color="#9B6D13"
         id="stop6" />
    </linearGradient>
    <linearGradient
       id="navyGrad"
       x1="0"
       y1="1"
       x2="1"
       y2="0">
      <stop
         offset="0"
         stop-color="#C0C6CF"
         id="stop7" />
      <stop
         offset="1"
         stop-color="#F7F8FA"
         id="stop8" />
    </linearGradient>
    <radialGradient
       id="navyBackground"
       cx="55%"
       cy="18%"
       r="90%">
      <stop
         offset="0"
         stop-color="#F7F8FA"
         id="stop9" />
      <stop
         offset="0.42"
         stop-color="#F7F8FA"
         id="stop10" />
      <stop
         offset="1"
         stop-color="#F7F8FA"
         id="stop11" />
    </radialGradient>
  </defs>
  <g
     transform="translate(423,62) scale(1.12)"
     id="g13">
    <g
       id="strategic-ascent-symbol">
      <path
         d="M36 206 C 102 210 172 187 221 139 C 244 116 260 89 270 52 C 248 87 225 116 194 140 C 149 175 95 197 36 206 Z"
         fill="url(#silverGrad)"
         id="path11" />
      <path
         d="M70 221 C 129 217 186 194 226 154 C 248 132 262 101 272 54 C 255 93 235 125 207 151 C 169 187 122 210 70 221 Z"
         fill="url(#navyGrad)"
         id="path12" />
      <path
         d="M111 232 C 162 222 208 199 237 168 C 256 147 267 113 274 55 C 261 106 244 139 220 166 C 191 198 153 219 111 232 Z"
         fill="url(#goldGrad)"
         id="path13" />
      <path
         id="polygon13"
         style="fill:url(#goldGrad)"
         d="m 270,12 2.87,17.07 14.1,-10.04 -10.04,14.1 L 294,36 276.93,38.87 286.97,52.97 272.87,42.93 270,60 267.13,42.93 253.03,52.97 263.07,38.87 246,36 l 17.07,-2.87 -10.04,-14.1 14.1,10.04 z" />
      <path
         id="circle13"
         style="fill:#ffffff"
         d="M 272.6,36 A 2.5999999,2.5999999 0 0 1 270,38.6 2.5999999,2.5999999 0 0 1 267.4,36 2.5999999,2.5999999 0 0 1 270,33.4 2.5999999,2.5999999 0 0 1 272.6,36 Z" />
    </g>
  </g>
  <path
     d="m 406.57491,407.85 q 7.95,0 15.15,3.9 4.2,2.25 4.5,4.35 0.6,3.15 0.6,8.55 0,4.05 -3,4.05 -3.15,0 -6,-6.9 -1.05,-2.55 -4.65,-3.9 -3.6,-1.5 -7.2,-1.5 -4.95,0 -8.7,3.45 -3.6,3.45 -3.6,8.4 0,6.15 7.65,12.6 l 21.15,17.85 q 7.2,6 7.2,15.3 0,10.65 -9.3,18.15 -9.15,7.5 -20.85,7.5 -8.55,0 -15.75,-3.3 -4.35,-1.95 -5.7,-2.85 -1.2,-1.05 -1.2,-2.55 0,-4.5 0.9,-10.35 0.6,-3.6 2.85,-3.6 3,0 5.1,7.05 1.35,4.2 5.55,7.05 4.35,2.7 10.65,2.7 5.55,0 9.3,-4.35 3.75,-4.35 3.75,-10.05 0,-6.9 -6,-12 l -20.25,-17.1 q -8.85,-7.35 -8.85,-17.25 0,-10.5 7.8,-17.85 7.8,-7.35 18.9,-7.35 z m 91.25006,49.35 q -0.9,1.8 -0.75,2.55 0.3,0.6 2.1,0.6 h 18.3 q 2.25,0 2.55,-0.9 0.3,-0.9 -0.9,-4.5 l -9.15,-28.05 q -0.6,-2.1 -1.65,0.45 z m 42.75,40.2 q -5.55,0 -12,0.45 -6.45,0.45 -8.1,0.45 -1.65,0 -3.3,-0.6 -1.5,-0.75 -1.5,-1.95 0,-1.05 1.05,-1.65 1.2,-0.75 3.6,-1.5 2.55,-0.9 3.45,-1.35 5.85,-2.7 4.35,-7.95 l -4.35,-14.25 q -0.6,-1.8 -2.4,-1.8 h -25.05 q -1.8,0 -2.4,1.65 l -5.7,16.35 q -1.65,4.95 3.3,6.3 5.55,1.5 5.55,4.2 0,2.55 -5.25,2.55 -1.5,0 -6.3,-0.45 -4.65,-0.45 -6,-0.45 -2.1,0 -5.4,0.45 -3.15,0.45 -4.05,0.45 -4.95,0 -4.95,-2.55 0,-1.05 1.2,-1.65 1.2,-0.75 3.6,-1.5 2.55,-0.9 3.45,-1.35 0.75,-0.3 1.35,-0.6 0.6,-0.3 1.05,-0.6 0.45,-0.3 0.9,-0.6 0.45,-0.45 0.6,-0.6 0.3,-0.15 0.6,-0.75 0.3,-0.6 0.45,-0.75 0.15,-0.15 0.45,-0.9 0.45,-0.9 0.45,-1.2 0.15,-0.3 0.6,-1.35 0.45,-1.2 0.6,-1.8 l 22.95,-63.45 q 0.6,-1.65 1.2,-3.3 0.6,-1.65 0.9,-2.4 0.3,-0.9 0.6,-1.5 0.3,-0.75 0.6,-1.05 0.45,-0.3 0.9,-0.3 1.65,-0.15 3.9,-2.25 2.25,-2.25 2.55,-2.25 0.75,0 1.35,0.6 0.6,0.45 1.05,1.65 0.6,1.05 0.9,2.1 0.45,1.05 1.05,3.15 0.75,2.1 1.2,3.3 l 19.8,55.95 q 3.6,9.9 5.85,13.5 2.25,3.45 7.5,5.4 6,2.1 6,4.65 0,2.4 -4.35,2.4 -1.5,0 -6.3,-0.45 -4.8,-0.45 -7.5,-0.45 z m 154.55001,-18.75 q 0.6,9.75 7.05,12.6 0.9,0.45 3.3,1.35 2.55,0.75 3.75,1.5 1.2,0.6 1.2,1.65 0,2.1 -4.8,2.55 -0.3,0 -3.45,-0.3 -3,-0.15 -7.35,-0.3 -4.2,-0.3 -7.35,-0.3 -3.15,0 -7.2,0.3 -3.9,0.15 -6.75,0.3 -2.7,0.3 -3,0.3 -4.95,-0.45 -4.95,-2.55 0,-1.05 1.2,-1.65 1.2,-0.75 3.6,-1.5 2.55,-0.9 3.45,-1.35 7.5,-3.3 7.05,-12.6 l -1.95,-47.25 q -0.15,-2.55 -1.95,-1.8 -1.2,0.6 -1.95,2.25 l -20.25,46.5 q -1.2,2.7 -4.35,8.55 -3,5.7 -3.9,5.7 -1.2,0 -2.4,-1.8 -1.2,-1.8 -3.45,-7.5 l -18.45,-47.25 q -1.05,-2.7 -1.95,-3.3 -0.75,-0.6 -1.2,0.45 -0.45,0.9 -0.6,3 l -2.55,41.85 q -0.3,3.75 0.75,7.95 1.2,4.05 3.9,5.25 0.9,0.45 3.3,1.35 2.55,0.75 3.75,1.5 1.2,0.6 1.2,1.65 0,2.1 -4.8,2.55 -0.3,0 -2.55,-0.3 -2.25,-0.15 -5.7,-0.3 -3.45,-0.3 -6.6,-0.3 -3.15,0 -6.3,0.3 -3.15,0.15 -5.25,0.3 -1.95,0.3 -2.25,0.3 -4.95,-0.45 -4.95,-2.55 0,-1.05 1.05,-1.65 1.2,-0.75 3.75,-1.5 2.55,-0.9 3.45,-1.35 6.9,-3 8.7,-15.75 l 5.1,-39.9 q 0.9,-7.35 -0.3,-10.65 -1.2,-3.3 -4.5,-6.3 -0.9,-0.9 -3.15,-2.25 -2.25,-1.5 -3.6,-2.7 -1.35,-1.2 -1.35,-2.25 0,-2.1 5.1,-2.1 2.55,0 7.8,0.45 5.25,0.3 8.85,0.3 3,0 5.1,2.25 2.25,2.1 4.35,7.2 l 17.55,43.05 q 0.6,1.65 0.9,2.1 0.3,0.45 0.75,1.05 0.6,0.45 1.35,-0.3 0.75,-0.9 1.65,-3 l 23.55,-48.9 q 1.2,-2.4 2.7,-2.85 1.5,-0.6 4.95,-0.6 1.8,0 9.15,-0.75 7.35,-0.75 9.9,-0.75 2.4,0 2.4,2.55 0,1.05 -1.2,1.8 -1.05,0.6 -6,2.7 -3.6,1.5 -4.95,4.35 -1.2,2.85 -0.9,9.15 z m 84.19995,-56.4 q 0,-4.65 -2.4,-4.65 h -18.3 q -2.7,0 -3.9,1.05 -1.2,1.05 -2.55,3.45 -0.45,0.75 -1.2,2.4 -0.6,1.5 -1.05,2.4 -0.45,0.9 -1.2,1.65 -0.6,0.75 -1.35,0.75 -2.7,0 -2.7,-3.45 0,-1.5 0.3,-4.2 0.45,-2.7 0.45,-5.25 0,-1.35 -0.15,-3.75 -0.15,-2.4 -0.15,-3 0,-1.5 0.75,-2.55 0.75,-1.2 1.8,-1.2 0.45,0 4.95,2.25 4.5,2.25 9.3,2.25 h 52.35 q 5.85,0 10.5,-2.55 0.6,-0.3 1.35,-0.9 0.9,-0.75 1.5,-1.05 0.75,-0.3 1.5,-0.3 1.2,0 1.95,0.9 0.75,0.75 0.75,1.8 0,0.45 -0.3,2.55 -0.3,1.95 -0.3,3.9 0,2.1 0.15,6 0.15,3.75 0.15,4.35 0,3.45 -2.1,3.45 -1.5,0 -5.4,-6.75 -2.55,-4.2 -5.4,-4.2 h -23.25 q -1.8,0 -1.8,4.65 v 58.2 q 0,4.2 1.65,6.75 1.65,2.4 5.4,4.05 0.9,0.45 3.3,1.35 2.55,0.75 3.75,1.5 1.2,0.6 1.2,1.65 0,2.1 -4.8,2.55 -0.3,0 -3.45,-0.3 -3,-0.15 -7.35,-0.3 -4.2,-0.3 -7.35,-0.3 -3.15,0 -7.2,0.3 -3.9,0.15 -6.75,0.3 -2.7,0.3 -3,0.3 -4.95,-0.45 -4.95,-2.55 0,-1.05 1.2,-1.65 1.2,-0.75 3.6,-1.5 2.55,-0.9 3.45,-1.35 3.75,-1.65 5.4,-4.05 1.65,-2.55 1.65,-6.75 z"
     id="text13"
     style="font-weight:500;font-size:150px;font-family:'EB Garamond';letter-spacing:29;text-anchor:middle;fill:#F7F8FA"
     aria-label="SAMT" />
  <path
     id="line13"
     style="stroke:#d4af37;stroke-width:2"
     d="M 265,538 H 935" />
  <path
     id="rect13"
     transform="rotate(45 600 538)"
     style="fill:#d4af37"
     d="m 594,532 h 12 v 12 h -12 z" />
  <path
     d="m 402.12402,584.54 q 0,2.66 -1.932,4.2 -1.932,1.54 -5.348,1.54 -3.304,0 -5.6,-1.12 v -3.36 q 1.26,0.56 2.772,1.036 1.512,0.448 3.08,0.448 1.792,0 2.632,-0.7 0.84,-0.7 0.84,-1.848 0,-1.26 -1.064,-1.988 -1.064,-0.728 -3.108,-1.596 -1.232,-0.532 -2.352,-1.26 -1.12,-0.728 -1.848,-1.848 -0.728,-1.12 -0.728,-2.856 0,-2.576 1.792,-4.004 1.82,-1.456 4.844,-1.456 1.596,0 2.968,0.336 1.4,0.336 2.8,0.952 l -1.148,2.884 q -1.26,-0.532 -2.408,-0.84 -1.12,-0.308 -2.324,-0.308 -1.456,0 -2.212,0.672 -0.756,0.644 -0.756,1.68 0,0.84 0.42,1.4 0.42,0.56 1.288,1.036 0.896,0.476 2.296,1.092 1.596,0.7 2.744,1.456 1.148,0.756 1.736,1.82 0.616,1.064 0.616,2.632 z M 415.672,590 h -3.584 v -16.968 h -5.74 v -3.024 h 15.064 v 3.024 h -5.74 z m 17.07599,-19.992 q 3.948,0 5.824,1.456 1.904,1.456 1.904,4.424 0,1.456 -0.56,2.492 -0.532,1.036 -1.4,1.736 -0.868,0.672 -1.876,1.092 l 5.74,8.792 h -4.032 l -4.788,-7.896 h -2.912 V 590 h -3.584 v -19.992 z m -0.224,2.996 h -1.876 v 6.16 h 1.988 q 2.212,0 3.192,-0.784 1.008,-0.812 1.008,-2.38 0,-1.624 -1.064,-2.296 -1.036,-0.7 -3.248,-0.7 z m 27.57599,16.996 -1.82,-5.292 h -7.532 l -1.792,5.292 h -3.808 l 7.336,-20.076 h 4.088 l 7.336,20.076 z m -4.48,-13.524 q -0.112,-0.392 -0.336,-1.064 -0.224,-0.672 -0.448,-1.372 -0.196,-0.728 -0.308,-1.204 -0.14,0.56 -0.364,1.288 -0.196,0.728 -0.392,1.372 -0.196,0.644 -0.28,0.98 l -1.764,5.152 h 5.628 z m 18.728,13.524 h -3.584 v -16.968 h -5.74 v -3.024 h 15.064 v 3.024 h -5.74 z m 22.75999,0 h -11.368 v -19.992 h 11.368 v 2.996 h -7.784 v 5.096 h 7.28 v 2.996 h -7.28 v 5.88 h 7.784 z m 14.83602,-10.976 h 7.56 v 10.164 q -1.596,0.504 -3.276,0.812 -1.68,0.28 -3.808,0.28 -4.536,0 -6.972,-2.688 -2.436,-2.688 -2.436,-7.616 0,-3.108 1.204,-5.404 1.232,-2.324 3.556,-3.584 2.324,-1.26 5.656,-1.26 1.624,0 3.136,0.336 1.54,0.336 2.8,0.868 l -1.232,2.94 q -0.98,-0.448 -2.212,-0.784 -1.232,-0.336 -2.576,-0.336 -2.044,0 -3.528,0.896 -1.484,0.896 -2.296,2.548 -0.784,1.624 -0.784,3.836 0,2.128 0.616,3.752 0.616,1.624 1.96,2.548 1.344,0.924 3.5,0.924 1.064,0 1.792,-0.112 0.728,-0.112 1.372,-0.252 v -4.816 h -4.032 z m 21.724,10.976 h -8.4 v -2.044 l 2.408,-0.896 v -14.084 l -2.408,-0.924 v -2.044 h 8.4 v 2.044 l -2.408,0.924 v 14.084 l 2.408,0.896 z m 14.69602,-17.248 q -2.744,0 -4.256,1.96 -1.484,1.96 -1.484,5.32 0,3.388 1.4,5.32 1.4,1.904 4.312,1.904 1.26,0 2.464,-0.252 1.204,-0.28 2.52,-0.728 v 3.052 q -1.232,0.504 -2.492,0.728 -1.232,0.224 -2.856,0.224 -3.08,0 -5.096,-1.26 -2.016,-1.288 -2.996,-3.584 -0.98,-2.324 -0.98,-5.432 0,-3.024 1.092,-5.32 1.092,-2.324 3.192,-3.64 2.128,-1.316 5.18,-1.316 1.512,0 2.968,0.364 1.484,0.336 2.772,0.952 l -1.232,2.94 q -1.064,-0.476 -2.212,-0.84 -1.12,-0.392 -2.296,-0.392 z m 34.09601,17.248 -1.82,-5.292 h -7.532 l -1.792,5.292 h -3.808 l 7.336,-20.076 h 4.088 l 7.336,20.076 z m -4.48,-13.524 q -0.112,-0.392 -0.336,-1.064 -0.224,-0.672 -0.448,-1.372 -0.196,-0.728 -0.308,-1.204 -0.14,0.56 -0.364,1.288 -0.196,0.728 -0.392,1.372 -0.196,0.644 -0.28,0.98 l -1.764,5.152 h 5.628 z m 29.87198,3.332 q 0,5.068 -2.828,7.644 Q 602.196,590 597.128,590 H 591.5 v -19.992 h 6.216 q 3.08,0 5.348,1.12 2.296,1.12 3.528,3.304 1.26,2.156 1.26,5.376 z m -3.752,0.112 q 0,-3.584 -1.652,-5.264 -1.624,-1.68 -4.732,-1.68 h -2.632 v 14.028 h 2.156 q 6.86,0 6.86,-7.084 z m 25.392,-9.912 -6.916,19.992 h -3.836 l -6.916,-19.992 h 3.668 l 4.032,12.236 q 0.168,0.504 0.392,1.316 0.224,0.784 0.42,1.624 0.224,0.84 0.336,1.456 0.084,-0.616 0.28,-1.456 0.196,-0.84 0.42,-1.624 0.224,-0.812 0.42,-1.316 l 4.032,-12.236 z m 16.43199,19.992 -1.82,-5.292 h -7.532 l -1.792,5.292 h -3.808 l 7.336,-20.076 h 4.088 l 7.336,20.076 z m -4.48,-13.524 q -0.112,-0.392 -0.336,-1.064 -0.224,-0.672 -0.448,-1.372 -0.196,-0.728 -0.308,-1.204 -0.14,0.56 -0.364,1.288 -0.196,0.728 -0.392,1.372 -0.196,0.644 -0.28,0.98 l -1.764,5.152 h 5.628 z M 671.95998,590 h -4.452 l -9.464,-15.68 h -0.112 q 0.084,1.26 0.14,2.716 0.084,1.428 0.112,2.884 V 590 h -3.22 v -19.992 h 4.424 l 9.436,15.568 h 0.084 q -0.056,-1.12 -0.112,-2.576 -0.056,-1.456 -0.084,-2.828 v -10.164 h 3.248 z m 16.31998,-17.248 q -2.744,0 -4.256,1.96 -1.484,1.96 -1.484,5.32 0,3.388 1.4,5.32 1.4,1.904 4.312,1.904 1.26,0 2.464,-0.252 1.204,-0.28 2.52,-0.728 v 3.052 q -1.232,0.504 -2.492,0.728 -1.232,0.224 -2.856,0.224 -3.08,0 -5.096,-1.26 -2.016,-1.288 -2.996,-3.584 -0.98,-2.324 -0.98,-5.432 0,-3.024 1.092,-5.32 1.092,-2.324 3.192,-3.64 2.128,-1.316 5.18,-1.316 1.512,0 2.968,0.364 1.484,0.336 2.772,0.952 l -1.232,2.94 q -1.064,-0.476 -2.212,-0.84 -1.12,-0.392 -2.296,-0.392 z M 711.51597,590 h -11.368 v -19.992 h 11.368 v 2.996 h -7.784 v 5.096 h 7.28 v 2.996 h -7.28 v 5.88 h 7.784 z m 15.452,0 -5.488,-16.38 h -0.112 q 0.028,0.56 0.084,1.596 0.056,1.008 0.084,2.212 0.056,1.176 0.056,2.212 V 590 h -3.22 v -19.992 h 4.984 l 5.264,15.708 h 0.112 l 5.488,-15.708 h 4.984 V 590 h -3.416 v -10.528 q 0,-0.952 0.028,-2.072 0.056,-1.148 0.084,-2.156 0.056,-1.008 0.084,-1.596 h -0.112 l -5.712,16.352 z m 31.38403,0 h -11.368 v -19.992 h 11.368 v 2.996 h -7.784 v 5.096 h 7.28 v 2.996 h -7.28 v 5.88 h 7.784 z m 23.85203,0 h -4.452 l -9.464,-15.68 h -0.112 q 0.084,1.26 0.14,2.716 0.084,1.428 0.112,2.884 V 590 h -3.22 v -19.992 h 4.424 l 9.436,15.568 h 0.084 q -0.056,-1.12 -0.112,-2.576 -0.056,-1.456 -0.084,-2.828 v -10.164 h 3.248 z m 14.97595,0 h -3.584 v -16.968 h -5.74 v -3.024 h 15.064 v 3.024 h -5.74 z m 13.04401,-2.94 q -0.392,1.484 -1.064,3.248 -0.672,1.792 -1.344,3.304 h -2.548 q 0.392,-1.624 0.784,-3.528 0.392,-1.876 0.588,-3.332 h 3.388 z"
     id="text14"
     style="font-weight:600;font-size:28px;font-family:'Noto Sans';letter-spacing:2.6;text-anchor:middle;fill:#d4af37"
     aria-label="STRATEGIC ADVANCEMENT," />
  <path
     d="m 329.628,628 -5.488,-16.38 h -0.112 q 0.028,0.56 0.084,1.596 0.056,1.008 0.084,2.212 0.056,1.176 0.056,2.212 V 628 h -3.22 v -19.992 h 4.984 l 5.264,15.708 h 0.112 l 5.488,-15.708 h 4.984 V 628 h -3.416 v -10.528 q 0,-0.952 0.028,-2.072 0.056,-1.148 0.084,-2.156 0.056,-1.008 0.084,-1.596 h -0.112 L 332.82,628 Z m 32.36403,0 -1.82,-5.292 h -7.532 l -1.792,5.292 h -3.808 l 7.336,-20.076 h 4.088 l 7.336,20.076 z m -4.48,-13.524 q -0.112,-0.392 -0.336,-1.064 -0.224,-0.672 -0.448,-1.372 -0.196,-0.728 -0.308,-1.204 -0.14,0.56 -0.364,1.288 -0.196,0.728 -0.392,1.372 -0.196,0.644 -0.28,0.98 l -1.764,5.152 h 5.628 z M 388.02801,628 h -4.452 l -9.464,-15.68 h -0.112 q 0.084,1.26 0.14,2.716 0.084,1.428 0.112,2.884 V 628 h -3.22 v -19.992 h 4.424 l 9.436,15.568 h 0.084 q -0.056,-1.12 -0.112,-2.576 -0.056,-1.456 -0.084,-2.828 v -10.164 h 3.248 z m 20.15599,0 -1.82,-5.292 h -7.532 L 397.04,628 h -3.808 l 7.336,-20.076 h 4.088 L 411.992,628 Z m -4.48,-13.524 q -0.112,-0.392 -0.336,-1.064 -0.224,-0.672 -0.448,-1.372 -0.196,-0.728 -0.308,-1.204 -0.14,0.56 -0.364,1.288 -0.196,0.728 -0.392,1.372 -0.196,0.644 -0.28,0.98 l -1.764,5.152 h 5.628 z m 20.93997,2.548 h 7.56 v 10.164 q -1.596,0.504 -3.276,0.812 -1.68,0.28 -3.808,0.28 -4.536,0 -6.972,-2.688 -2.436,-2.688 -2.436,-7.616 0,-3.108 1.204,-5.404 1.232,-2.324 3.556,-3.584 2.324,-1.26 5.656,-1.26 1.624,0 3.136,0.336 1.54,0.336 2.8,0.868 l -1.232,2.94 q -0.98,-0.448 -2.212,-0.784 -1.232,-0.336 -2.576,-0.336 -2.044,0 -3.528,0.896 -1.484,0.896 -2.296,2.548 -0.784,1.624 -0.784,3.836 0,2.128 0.616,3.752 0.616,1.624 1.96,2.548 1.344,0.924 3.5,0.924 1.064,0 1.792,-0.112 0.728,-0.112 1.372,-0.252 v -4.816 h -4.032 z M 450.95996,628 h -11.368 v -19.992 h 11.368 v 2.996 h -7.784 v 5.096 h 7.28 v 2.996 h -7.28 v 5.88 h 7.784 z m 15.45202,0 -5.488,-16.38 h -0.112 q 0.028,0.56 0.084,1.596 0.056,1.008 0.084,2.212 0.056,1.176 0.056,2.212 V 628 h -3.22 v -19.992 h 4.984 l 5.264,15.708 h 0.112 l 5.488,-15.708 h 4.984 V 628 h -3.416 v -10.528 q 0,-0.952 0.028,-2.072 0.056,-1.148 0.084,-2.156 0.056,-1.008 0.084,-1.596 h -0.112 l -5.712,16.352 z m 31.38402,0 h -11.368 v -19.992 h 11.368 v 2.996 h -7.784 v 5.096 h 7.28 v 2.996 h -7.28 v 5.88 h 7.784 z m 23.85201,0 h -4.452 l -9.464,-15.68 h -0.112 q 0.084,1.26 0.14,2.716 0.084,1.428 0.112,2.884 V 628 h -3.22 v -19.992 h 4.424 l 9.436,15.568 h 0.084 q -0.056,-1.12 -0.112,-2.576 -0.056,-1.456 -0.084,-2.828 v -10.164 h 3.248 z m 14.97599,0 h -3.584 v -16.968 h -5.74 v -3.024 h 15.064 v 3.024 h -5.74 z m 27.292,-20.272 q 2.352,0 3.836,1.148 1.484,1.12 1.484,3.164 0,1.876 -1.148,3.164 -1.148,1.288 -2.856,2.268 l 4.452,4.312 q 0.616,-0.896 1.036,-1.988 0.448,-1.092 0.756,-2.24 h 3.64 q -0.42,1.652 -1.204,3.36 -0.756,1.68 -1.932,3.08 l 4.088,4.004 h -4.452 l -1.904,-1.848 q -1.26,0.98 -2.8,1.568 -1.512,0.56 -3.472,0.56 -3.22,0 -5.068,-1.512 -1.82,-1.512 -1.82,-4.088 0,-2.128 1.036,-3.416 1.036,-1.288 2.884,-2.324 -1.036,-1.176 -1.596,-2.268 -0.56,-1.092 -0.56,-2.436 0,-2.1 1.54,-3.304 1.54,-1.204 4.06,-1.204 z m -0.056,2.744 q -0.868,0 -1.54,0.476 -0.672,0.448 -0.672,1.456 0,0.812 0.392,1.54 0.42,0.728 1.176,1.54 1.372,-0.756 2.016,-1.484 0.672,-0.728 0.672,-1.68 0,-0.896 -0.616,-1.372 -0.616,-0.476 -1.428,-0.476 z m -1.316,8.596 q -1.064,0.7 -1.68,1.456 -0.616,0.756 -0.616,1.876 0,1.316 0.952,2.1 0.952,0.784 2.436,0.784 1.26,0 2.212,-0.364 0.98,-0.364 1.708,-0.924 z M 598.34801,628 h -3.584 v -16.968 h -5.74 v -3.024 h 15.064 v 3.024 h -5.74 z m 17.07597,-19.992 q 3.948,0 5.824,1.456 1.904,1.456 1.904,4.424 0,1.456 -0.56,2.492 -0.532,1.036 -1.4,1.736 -0.868,0.672 -1.876,1.092 l 5.74,8.792 h -4.032 l -4.788,-7.896 h -2.912 V 628 h -3.584 v -19.992 z m -0.224,2.996 h -1.876 v 6.16 h 1.988 q 2.212,0 3.192,-0.784 1.008,-0.812 1.008,-2.38 0,-1.624 -1.064,-2.296 -1.036,-0.7 -3.248,-0.7 z M 642.776,628 l -1.82,-5.292 h -7.532 L 631.632,628 h -3.808 l 7.336,-20.076 h 4.088 L 646.584,628 Z m -4.48,-13.524 q -0.112,-0.392 -0.336,-1.064 -0.224,-0.672 -0.448,-1.372 -0.196,-0.728 -0.308,-1.204 -0.14,0.56 -0.364,1.288 -0.196,0.728 -0.392,1.372 -0.196,0.644 -0.28,0.98 l -1.764,5.152 h 5.628 z M 668.81197,628 h -4.452 l -9.464,-15.68 h -0.112 q 0.084,1.26 0.14,2.716 0.084,1.428 0.112,2.884 V 628 h -3.22 v -19.992 h 4.424 l 9.436,15.568 h 0.084 q -0.056,-1.12 -0.112,-2.576 -0.056,-1.456 -0.084,-2.828 v -10.164 h 3.248 z m 19.42798,-5.46 q 0,2.66 -1.932,4.2 -1.932,1.54 -5.348,1.54 -3.304,0 -5.6,-1.12 v -3.36 q 1.26,0.56 2.772,1.036 1.512,0.448 3.08,0.448 1.792,0 2.632,-0.7 0.84,-0.7 0.84,-1.848 0,-1.26 -1.064,-1.988 -1.064,-0.728 -3.108,-1.596 -1.232,-0.532 -2.352,-1.26 -1.12,-0.728 -1.848,-1.848 -0.728,-1.12 -0.728,-2.856 0,-2.576 1.792,-4.004 1.82,-1.456 4.844,-1.456 1.596,0 2.968,0.336 1.4,0.336 2.8,0.952 l -1.148,2.884 q -1.26,-0.532 -2.408,-0.84 -1.12,-0.308 -2.324,-0.308 -1.456,0 -2.212,0.672 -0.756,0.644 -0.756,1.68 0,0.84 0.42,1.4 0.42,0.56 1.288,1.036 0.896,0.476 2.296,1.092 1.596,0.7 2.744,1.456 1.148,0.756 1.736,1.82 0.616,1.064 0.616,2.632 z m 9.90797,5.46 h -3.528 v -19.992 h 11.34 v 2.996 h -7.812 v 5.88 h 7.28 v 2.996 h -7.28 z m 32,-10.024 q 0,3.108 -1.036,5.432 -1.008,2.296 -3.108,3.584 -2.1,1.288 -5.264,1.288 -3.192,0 -5.292,-1.288 -2.072,-1.288 -3.108,-3.612 -1.008,-2.324 -1.008,-5.432 0,-3.08 1.008,-5.376 1.036,-2.324 3.108,-3.584 2.1,-1.288 5.32,-1.288 3.164,0 5.236,1.288 2.1,1.26 3.108,3.584 1.036,2.296 1.036,5.404 z m -15.036,0 q 0,3.388 1.344,5.32 1.344,1.932 4.284,1.932 2.968,0 4.284,-1.932 1.344,-1.932 1.344,-5.32 0,-3.388 -1.316,-5.32 -1.316,-1.932 -4.284,-1.932 -2.94,0 -4.312,1.932 -1.344,1.932 -1.344,5.32 z m 27.57604,-9.968 q 3.948,0 5.824,1.456 1.904,1.456 1.904,4.424 0,1.456 -0.56,2.492 -0.532,1.036 -1.4,1.736 -0.868,0.672 -1.876,1.092 l 5.74,8.792 h -4.032 l -4.788,-7.896 h -2.912 V 628 h -3.584 v -19.992 z m -0.224,2.996 h -1.876 v 6.16 h 1.988 q 2.212,0 3.192,-0.784 1.008,-0.812 1.008,-2.38 0,-1.624 -1.064,-2.296 -1.036,-0.7 -3.248,-0.7 z m 23.82398,16.996 -5.488,-16.38 h -0.112 q 0.028,0.56 0.084,1.596 0.056,1.008 0.084,2.212 0.056,1.176 0.056,2.212 V 628 h -3.22 v -19.992 h 4.984 l 5.264,15.708 h 0.112 l 5.488,-15.708 h 4.984 V 628 h -3.416 v -10.528 q 0,-0.952 0.028,-2.072 0.056,-1.148 0.084,-2.156 0.056,-1.008 0.084,-1.596 h -0.112 l -5.712,16.352 z m 32.36403,0 -1.82,-5.292 h -7.532 l -1.792,5.292 h -3.808 l 7.336,-20.076 h 4.088 l 7.336,20.076 z m -4.48,-13.524 q -0.112,-0.392 -0.336,-1.064 -0.224,-0.672 -0.448,-1.372 -0.196,-0.728 -0.308,-1.204 -0.14,0.56 -0.364,1.288 -0.196,0.728 -0.392,1.372 -0.196,0.644 -0.28,0.98 l -1.764,5.152 h 5.628 z M 812.89998,628 h -3.584 v -16.968 h -5.74 v -3.024 h 15.064 v 3.024 h -5.74 z m 18.168,0 h -8.4 v -2.044 l 2.408,-0.896 v -14.084 l -2.408,-0.924 v -2.044 h 8.4 v 2.044 l -2.408,0.924 v 14.084 l 2.408,0.896 z m 24.04799,-10.024 q 0,3.108 -1.036,5.432 -1.008,2.296 -3.108,3.584 -2.1,1.288 -5.264,1.288 -3.192,0 -5.292,-1.288 -2.072,-1.288 -3.108,-3.612 -1.008,-2.324 -1.008,-5.432 0,-3.08 1.008,-5.376 1.036,-2.324 3.108,-3.584 2.1,-1.288 5.32,-1.288 3.164,0 5.236,1.288 2.1,1.26 3.108,3.584 1.036,2.296 1.036,5.404 z m -15.036,0 q 0,3.388 1.344,5.32 1.344,1.932 4.284,1.932 2.968,0 4.284,-1.932 1.344,-1.932 1.344,-5.32 0,-3.388 -1.316,-5.32 -1.316,-1.932 -4.284,-1.932 -2.94,0 -4.312,1.932 -1.344,1.932 -1.344,5.32 z M 878.968,628 h -4.452 l -9.464,-15.68 h -0.112 q 0.084,1.26 0.14,2.716 0.084,1.428 0.112,2.884 V 628 h -3.22 v -19.992 h 4.424 l 9.436,15.568 h 0.084 q -0.056,-1.12 -0.112,-2.576 -0.056,-1.456 -0.084,-2.828 v -10.164 h 3.248 z"
     id="text15"
     style="font-weight:600;font-size:28px;font-family:'Noto Sans';letter-spacing:2.6;text-anchor:middle;fill:#d4af37"
     aria-label="MANAGEMENT &amp; TRANSFORMATION" />
  <g
     transform="translate(600,760) scale(1.45) translate(-500,-165)"
     id="g17">
    <g
       id="arabic-wordmark">
      <path
         d="m 654.63996,225 q -7.04,0 -13.28,-2.72 -6.08,-2.88 -12.16,-8.96 -4.16,5.6 -10.56,8.64 -6.4,3.04 -15.04,3.04 h -60.16 q -0.8,0 -0.8,-0.8 v -15.52 q 0,-0.64 0.8,-0.64 h 20.96 v -49.28 h 20.48 v 49.28 h 14.72 q 15.68,0 15.68,-18.56 v -30.72 h 20.48 v 32.32 q 0,1.6 -0.16,3.36 0,1.6 -0.16,3.2 4,5.76 8,8.16 4.16,2.24 10.88,2.24 h 9.76 v -61.76 h 20.48 V 225 Z M 460.2401,208.04 q -4.96,-11.84 -4.96,-23.84 0,-6.88 2.08,-14.4 2.08,-7.52 5.28,-13.28 7.2,-4.64 15.52,-7.04 8.32,-2.56 15.36,-2.56 10.56,0 19.2,4.48 8.48,4.64 13.12,13.12 4.64,8.32 4.64,19.36 0,9.28 -3.2,17.28 3.04,3.84 6.88,5.44 4,1.44 10.08,1.44 h 0.8 q 0.8,0 0.8,0.64 v 15.52 q 0,0.8 -0.8,0.8 h -0.8 q -8.48,0 -14.72,-2.4 -6.08,-2.4 -11.52,-8.16 -5.76,5.28 -13.28,8 -7.52,2.56 -15.52,2.56 h -47.68 q -0.8,0 -0.8,-0.8 v -15.52 q 0,-0.64 0.8,-0.64 z m 14.56,-22.56 q 0,5.28 0.96,10.88 1.12,5.44 3.52,11.68 h 7.84 q 10.08,0 16.32,-6.72 6.24,-6.72 6.24,-17.6 0,-8.96 -4.64,-14.4 -4.64,-5.6 -11.84,-5.6 -4,0 -8.16,1.44 -4.16,1.28 -8,3.84 -1.12,3.84 -1.76,8 -0.48,4.16 -0.48,8.48 z m -121.44004,-39.2 q -4.48,0 -7.36,-2.88 -2.72,-2.88 -2.72,-8 0,-5.44 2.72,-8.16 2.88,-2.72 7.36,-2.72 4.64,0 7.36,2.88 2.72,2.72 2.72,8 0,5.12 -2.72,8 -2.72,2.88 -7.36,2.88 z m 27.36,0 q -4.64,0 -7.36,-2.88 -2.72,-3.04 -2.72,-8 0,-5.28 2.72,-8 2.72,-2.88 7.36,-2.88 4.8,0 7.36,2.88 2.72,2.88 2.72,8 0,4.96 -2.72,8 -2.72,2.88 -7.36,2.88 z m -37.28,78.72 q -14.4,0 -22.88,-8.48 -8.32,-8.48 -8.32,-23.36 0,-5.76 1.28,-12.64 1.44,-6.88 3.52,-11.68 h 18.24 q -2.4,10.88 -2.4,21.6 0,7.84 4.16,12.8 4.16,4.8 10.88,4.8 h 53.92 v -61.76 h 20.32 v 61.76 h 20.96 q 0.8,0 0.8,0.64 v 15.52 q 0,0.8 -0.8,0.8 z"
         fill="#F7F8FA"
         id="path15" />
      <path
         d="M619 122 L644 115"
         stroke="#D4AF37"
         stroke-width="8"
         stroke-linecap="round"
         id="path16" />
      <path
         d="m 509,113 a 12,12 0 0 1 -12,12 12,12 0 0 1 -12,-12 12,12 0 0 1 12,-12 12,12 0 0 1 12,12 z"
         fill="none"
         stroke="#D4AF37"
         stroke-width="7"
         id="path17" />
    </g>
  </g>
  <path
     d="m 934.45815,910.17 0.34,-4.012 q 2.312,0 3.23,-0.51 0.952,-0.51 0.952,-2.21 0,-0.918 -0.272,-2.176 -0.272,-1.292 -0.68,-2.652 -0.408,-1.394 -0.85,-2.618 l 3.944,-1.19 q 0.408,1.122 0.816,2.618 0.442,1.462 0.714,2.992 0.272,1.53 0.272,2.822 0,2.788 -1.088,4.284 -1.088,1.496 -2.992,2.074 -1.904,0.578 -4.386,0.578 z m 3.978,7.242 q -0.884,0 -1.496,-0.612 -0.612,-0.612 -0.612,-1.462 0,-0.884 0.612,-1.53 0.612,-0.646 1.496,-0.646 0.884,0 1.496,0.646 0.646,0.646 0.646,1.53 0,0.85 -0.646,1.462 -0.612,0.612 -1.496,0.612 z m -18.22393,0.442 -1.428,-3.604 q 4.114,-1.394 6.222,-3.57 2.142,-2.142 2.142,-4.726 0,-1.496 -0.68,-3.196 -0.646,-1.734 -1.564,-3.4 l 3.706,-1.802 q 0.612,1.122 1.088,2.312 0.476,1.156 0.816,2.142 0.34,0.986 0.51,1.496 0.476,1.564 1.258,2.108 0.816,0.544 2.482,0.544 1.054,0 1.53,0.578 0.476,0.544 0.476,1.36 0,0.884 -0.612,1.496 -0.612,0.578 -1.734,0.578 -1.292,0 -2.244,-0.374 -0.952,-0.408 -1.53,-1.054 -0.442,1.7 -1.496,3.162 -1.054,1.462 -2.516,2.618 -1.462,1.19 -3.128,2.006 -1.632,0.85 -3.298,1.326 z m -9.52006,-7.684 0.34,-4.012 q 2.312,0 3.23,-0.51 0.952,-0.51 0.952,-2.21 0,-0.918 -0.272,-2.176 -0.272,-1.292 -0.68,-2.652 -0.408,-1.394 -0.85,-2.618 l 3.944,-1.19 q 0.408,1.122 0.816,2.618 0.442,1.462 0.714,2.992 0.272,1.53 0.272,2.822 0,2.788 -1.088,4.284 -1.088,1.496 -2.992,2.074 -1.904,0.578 -4.386,0.578 z m 4.692,-18.462 q -0.918,0 -1.564,-0.612 -0.646,-0.646 -0.646,-1.564 0,-0.918 0.646,-1.564 0.646,-0.68 1.564,-0.68 0.884,0 1.53,0.68 0.646,0.646 0.646,1.564 0,0.918 -0.646,1.564 -0.646,0.612 -1.53,0.612 z m -4.72598,18.462 q -2.992,0 -4.624,-0.646 -1.598,-0.646 -2.244,-1.972 -0.612,-1.326 -0.68,-3.434 l -0.714,-18.768 h 4.012 l 0.714,16.966 q 0.068,1.598 0.306,2.448 0.272,0.816 1.088,1.122 0.816,0.272 2.482,0.272 1.054,0 1.53,0.578 0.51,0.544 0.51,1.36 0,0.884 -0.646,1.496 -0.612,0.578 -1.734,0.578 z m -29.51204,0 0.34,-4.012 q 0.816,0 1.428,-0.374 0.612,-0.408 1.19,-1.326 0.612,-0.952 1.428,-2.584 0.986,-2.074 2.04,-3.23 1.054,-1.156 2.142,-1.598 1.122,-0.476 2.21,-0.476 1.836,0 3.298,1.088 1.462,1.088 2.312,2.788 0.85,1.7 0.85,3.502 0,1.904 -0.748,3.264 -0.748,1.36 -2.006,2.074 -1.258,0.714 -2.788,0.714 -1.19,0 -2.788,-0.374 -1.598,-0.374 -3.604,-1.632 -1.054,1.326 -2.278,1.768 -1.224,0.408 -3.026,0.408 z m 10.608,-9.588 q -0.986,0 -1.7,1.054 -0.68,1.02 -1.7,3.128 1.224,0.646 2.244,0.952 1.02,0.272 1.734,0.272 1.19,0 1.7,-0.442 0.544,-0.442 0.544,-1.326 0,-0.782 -0.408,-1.632 -0.374,-0.85 -1.02,-1.428 -0.612,-0.578 -1.394,-0.578 z m -21.96397,22.814 q -3.366,0 -6.12,-1.088 -2.754,-1.088 -4.386,-3.264 -1.632,-2.176 -1.632,-5.44 0,-3.468 1.632,-6.222 1.666,-2.754 4.59,-4.692 2.924,-1.972 6.664,-3.026 -1.564,-0.51 -3.536,-1.02 -1.938,-0.51 -4.284,-0.51 -1.156,0 -2.108,0.17 -0.952,0.17 -1.734,0.34 l -0.612,-3.808 q 0.918,-0.34 2.04,-0.544 1.156,-0.204 2.346,-0.204 2.176,0 3.876,0.476 1.734,0.442 3.264,1.054 1.564,0.612 3.162,1.088 1.632,0.442 3.604,0.476 h 0.986 l 0.306,4.216 q -1.326,0 -2.924,0.306 0.374,2.006 1.292,2.958 0.918,0.952 2.244,1.224 1.326,0.272 3.026,0.272 1.054,0 1.53,0.578 0.476,0.544 0.476,1.36 0,0.884 -0.612,1.496 -0.612,0.578 -1.734,0.578 -1.7,0 -3.264,-0.238 -1.564,-0.238 -2.822,-0.986 -1.258,-0.782 -2.074,-2.312 -0.816,-1.564 -1.054,-4.148 -1.904,0.612 -3.74,1.632 -1.802,0.986 -3.298,2.312 -1.462,1.326 -2.346,2.992 -0.884,1.666 -0.884,3.638 0,2.278 1.156,3.638 1.156,1.394 3.094,2.006 1.938,0.646 4.25,0.646 3.604,0 7.344,-1.462 l 1.258,3.434 q -2.312,1.088 -4.624,1.564 -2.312,0.51 -4.352,0.51 z m -0.374,-8.534 q -0.918,0 -1.564,-0.646 -0.646,-0.612 -0.646,-1.53 0,-0.918 0.646,-1.598 0.646,-0.646 1.564,-0.646 0.884,0 1.53,0.646 0.646,0.68 0.646,1.598 0,0.918 -0.646,1.53 -0.646,0.646 -1.53,0.646 z m -51.23799,-4.692 0.34,-4.012 q 1.122,0 1.802,-0.17 0.714,-0.204 1.156,-0.816 0.476,-0.646 0.85,-2.006 0.374,-1.36 0.85,-3.74 l 3.706,0.782 q -0.17,0.816 -0.408,1.972 -0.204,1.122 -0.204,2.006 0,0.918 0.612,1.462 0.612,0.51 2.312,0.51 0.918,0 1.53,-0.17 0.646,-0.204 1.088,-0.85 0.476,-0.68 0.816,-2.074 0.34,-1.394 0.714,-3.876 l 3.774,0.646 q -0.136,0.714 -0.272,1.598 -0.136,0.884 -0.238,1.7 -0.102,0.782 -0.102,1.292 0,0.68 0.578,1.224 0.612,0.51 2.584,0.51 1.394,0 2.21,-0.544 0.85,-0.578 0.85,-2.074 0,-1.258 -0.612,-3.264 -0.578,-2.04 -1.326,-4.182 l 4.012,-1.258 q 0.51,1.326 0.918,2.89 0.408,1.564 0.646,3.026 0.272,1.462 0.272,2.584 0,3.366 -1.87,5.1 -1.87,1.734 -4.93,1.734 -2.176,0 -3.434,-0.51 -1.224,-0.544 -1.768,-1.87 -0.612,1.054 -1.394,1.564 -0.748,0.51 -1.768,0.646 -1.02,0.17 -2.482,0.17 -0.85,0 -1.734,-0.17 -0.85,-0.136 -1.632,-0.612 -0.782,-0.51 -1.292,-1.564 -1.054,1.53 -2.584,1.938 -1.53,0.408 -3.57,0.408 z m 12.24001,-17.33999 v -2.176 l 7.854,-2.346 v 2.278 z m -32.87801,17.33999 0.34,-4.012 q 0.884,0 1.36,-0.374 0.51,-0.374 0.986,-1.224 0.476,-0.884 1.258,-2.414 1.122,-2.176 2.312,-3.4 1.19,-1.224 2.346,-1.7 1.156,-0.51 2.21,-0.51 1.802,0 3.23,1.224 1.428,1.19 2.788,4.42 0.68,1.666 1.326,2.516 0.646,0.85 1.326,1.156 0.68,0.306 1.496,0.306 1.054,0 1.496,0.578 0.476,0.544 0.476,1.36 0,0.884 -0.612,1.496 -0.612,0.578 -1.7,0.578 -1.428,0 -2.618,-0.408 -1.19,-0.442 -1.972,-1.326 -0.612,0.918 -1.598,1.564 -0.952,0.612 -2.312,0.612 -1.428,0 -3.264,-0.85 -1.836,-0.884 -3.264,-2.788 -0.714,1.326 -1.496,2.04 -0.782,0.68 -1.768,0.918 -0.986,0.238 -2.346,0.238 z m 7.344,-6.664 q 0.85,1.36 2.142,2.244 1.292,0.884 2.55,0.884 0.85,0 1.326,-0.646 0.51,-0.646 0.034,-1.87 -0.306,-0.748 -0.748,-1.598 -0.408,-0.85 -0.986,-1.428 -0.544,-0.612 -1.224,-0.612 -0.68,0 -1.462,0.68 -0.782,0.68 -1.632,2.346 z m 2.68597,-12.512 q -1.564,0 -2.38,-0.952 -0.782,-0.952 -0.782,-2.244 0,-1.564 0.918,-2.686 0.952,-1.156 2.414,-1.156 1.36,0 2.244,1.122 0.884,1.122 0.884,2.55 0,1.394 -0.918,2.38 -0.918,0.986 -2.38,0.986 z m -0.034,-2.006 q 0.612,0 1.02,-0.374 0.408,-0.374 0.408,-0.986 0,-0.646 -0.442,-1.054 -0.442,-0.442 -0.952,-0.442 -0.612,0 -0.986,0.442 -0.374,0.442 -0.374,1.02 0,0.612 0.374,1.02 0.374,0.374 0.952,0.374 z m -34.23797,21.726 q -6.834,0 -9.894,-1.938 -3.026,-1.972 -3.026,-5.44 0,-1.462 0.374,-3.026 0.374,-1.598 0.748,-2.89 l 3.604,0.884 q -0.238,0.85 -0.476,1.972 -0.238,1.088 -0.238,1.938 0,1.462 0.884,2.482 0.918,0.986 3.06,1.496 2.142,0.51 5.848,0.51 l 0.034,0.034 v -0.034 q 2.278,0 4.556,-0.238 2.312,-0.272 4.454,-0.952 2.142,-0.68 4.046,-1.972 1.904,-1.326 3.4,-3.468 l 3.196,1.564 q -0.51,1.394 -0.51,2.176 0,1.02 0.918,1.7 0.918,0.646 3.604,0.646 1.054,0 1.496,0.578 0.476,0.544 0.476,1.36 0,0.884 -0.612,1.496 -0.612,0.578 -1.7,0.578 -3.06,0 -4.998,-0.986 -1.938,-1.02 -2.38,-2.856 -2.686,2.244 -7.106,3.332 -4.386,1.054 -9.724,1.054 v -0.034 z m 0.68,-15.13 q -0.884,0 -1.53,-0.612 -0.612,-0.612 -0.612,-1.462 0,-0.884 0.612,-1.496 0.646,-0.646 1.53,-0.646 0.85,0 1.462,0.646 0.612,0.612 0.612,1.496 0,0.85 -0.612,1.462 -0.612,0.612 -1.462,0.612 z m 5.406,0.034 q -0.884,0 -1.496,-0.612 -0.612,-0.612 -0.612,-1.496 0,-0.85 0.612,-1.496 0.612,-0.646 1.496,-0.646 0.85,0 1.462,0.646 0.612,0.646 0.612,1.496 0,0.884 -0.612,1.496 -0.612,0.612 -1.462,0.612 z m -38.52207,14.552 0.34,-4.012 q 1.7,0 2.414,-0.34 0.714,-0.34 0.85,-1.258 0.136,-0.918 0.068,-2.652 l -0.646,-16.558 h 4.046 l 0.68,16.66 q 0.068,1.904 -0.17,3.434 -0.204,1.496 -0.986,2.55 -0.782,1.054 -2.38,1.632 -1.564,0.544 -4.216,0.544 z m -11.11798,0 0.34,-4.012 q 1.7,0 2.414,-0.34 0.714,-0.34 0.816,-1.258 0.136,-0.918 0.102,-2.652 l -0.578,-16.558 h 4.08 l 0.578,16.524 q 0.034,1.7 0.442,2.652 0.408,0.918 1.224,1.292 0.816,0.34 2.04,0.34 1.088,0 1.53,0.578 0.476,0.544 0.476,1.36 0,0.884 -0.646,1.496 -0.612,0.578 -1.7,0.578 -1.734,0 -3.026,-0.544 -1.292,-0.544 -1.938,-1.802 -0.85,1.326 -2.346,1.836 -1.462,0.51 -3.808,0.51 z m -8.63602,-14.382 q -0.884,0 -1.496,-0.612 -0.612,-0.612 -0.612,-1.462 0,-0.884 0.612,-1.496 0.612,-0.646 1.496,-0.646 0.85,0 1.462,0.646 0.612,0.612 0.612,1.496 0,0.85 -0.612,1.462 -0.612,0.612 -1.462,0.612 z m 5.44,0.034 q -0.884,0 -1.53,-0.612 -0.612,-0.612 -0.612,-1.496 0,-0.85 0.612,-1.496 0.646,-0.646 1.53,-0.646 0.85,0 1.428,0.646 0.612,0.646 0.612,1.496 0,0.884 -0.612,1.496 -0.578,0.612 -1.428,0.612 z m -10.234,14.348 0.34,-4.012 q 1.394,0 2.312,-0.238 0.918,-0.272 1.462,-0.986 0.578,-0.748 0.952,-2.142 0.408,-1.428 0.782,-3.74 l 3.774,0.646 q -0.17,0.85 -0.374,1.972 -0.204,1.122 -0.204,2.006 0,0.748 0.34,1.326 0.34,0.544 1.36,0.85 1.02,0.306 3.026,0.306 1.088,0 1.53,0.578 0.476,0.544 0.476,1.36 0,0.884 -0.612,1.496 -0.612,0.578 -1.734,0.578 -2.72,0 -4.25,-0.578 -1.496,-0.612 -2.108,-2.006 -1.258,1.666 -3.094,2.142 -1.802,0.442 -3.978,0.442 z m -17.54404,0 0.34,-4.012 q 1.122,0.034 2.108,0 1.02,-0.068 1.904,-0.17 -0.748,-0.816 -1.36,-1.938 -0.578,-1.156 -0.578,-2.652 0,-2.006 0.952,-3.536 0.986,-1.53 2.516,-2.414 1.53,-0.884 3.162,-0.884 1.904,0 3.298,0.952 1.428,0.918 2.21,2.414 0.782,1.496 0.782,3.196 0,1.496 -0.544,2.72 -0.544,1.19 -1.428,2.142 1.156,0.068 2.312,0.136 1.19,0.034 2.21,0.034 1.054,0 1.53,0.578 0.476,0.544 0.476,1.36 0,0.884 -0.646,1.496 -0.612,0.578 -1.7,0.578 -2.38,0 -4.726,-0.34 -2.346,-0.34 -4.08,-0.918 -0.17,0.068 -0.374,0.136 -1.36,0.51 -3.604,0.816 -2.21,0.306 -4.76,0.306 z m 6.392,-8.534 q 0,1.02 0.612,1.87 0.612,0.85 1.53,1.496 1.258,-0.578 2.04,-1.462 0.782,-0.884 0.782,-2.04 0,-0.68 -0.306,-1.36 -0.306,-0.714 -0.85,-1.19 -0.544,-0.476 -1.258,-0.476 -1.054,0 -1.802,0.952 -0.748,0.952 -0.748,2.21 z m -0.102,-10.336 q -0.884,0 -1.53,-0.612 -0.612,-0.612 -0.612,-1.462 0,-0.884 0.612,-1.496 0.646,-0.646 1.53,-0.646 0.85,0 1.462,0.646 0.612,0.612 0.612,1.496 0,0.85 -0.612,1.462 -0.612,0.612 -1.462,0.612 z m 5.406,0.034 q -0.884,0 -1.496,-0.612 -0.612,-0.612 -0.612,-1.496 0,-0.85 0.612,-1.496 0.612,-0.646 1.496,-0.646 0.85,0 1.462,0.646 0.612,0.646 0.612,1.496 0,0.884 -0.612,1.496 -0.612,0.612 -1.462,0.612 z m -23.22196,14.824 q 2.346,0 3.196,-0.646 0.884,-0.68 0.884,-1.666 0,-0.986 -0.714,-2.482 -0.68,-1.496 -1.7,-3.094 -1.02,-1.632 -1.938,-2.992 l 3.4,-2.244 q 2.108,2.992 3.366,5.678 1.292,2.652 1.768,4.488 0.34,1.258 0.918,1.904 0.578,0.612 1.258,0.85 0.714,0.204 1.394,0.204 1.088,0 1.564,0.578 0.476,0.544 0.476,1.36 0,0.884 -0.612,1.496 -0.612,0.578 -1.734,0.578 -1.53,0 -2.754,-0.51 -1.19,-0.544 -1.972,-1.7 -0.816,0.952 -2.38,1.598 -1.564,0.646 -4.012,0.646 -1.666,0 -3.468,-0.408 -1.802,-0.408 -3.128,-1.224 l 1.564,-3.57 q 1.02,0.51 2.21,0.85 1.19,0.306 2.414,0.306 z m -22.74601,17.204 q -0.952,-3.468 -1.428,-6.426 -0.442,-2.924 -0.442,-4.658 0,-2.278 0.782,-3.774 0.782,-1.53 2.074,-2.414 1.326,-0.884 2.89,-1.258 1.598,-0.374 3.196,-0.34 1.632,0.034 3.06,0.34 0.102,-2.176 -0.85,-3.638 -0.918,-1.496 -2.516,-1.496 -2.244,0 -3.842,3.06 l -3.094,-1.734 q 1.36,-2.958 3.298,-4.148 1.972,-1.19 3.842,-1.19 1.938,0 3.298,0.816 1.36,0.816 2.21,2.142 0.85,1.292 1.224,2.788 0.408,1.462 0.408,2.822 0,1.496 -0.442,2.924 -0.442,1.428 -0.85,2.04 -3.094,-0.884 -5.508,-0.918 -2.414,-0.068 -3.808,0.918 -1.36,0.986 -1.36,3.23 0,1.904 0.442,4.624 0.442,2.72 1.19,5.338 z M 647.26008,910 l -0.714,-24.65 h 4.012 l 0.68,24.65 z m -10.33604,-18.224 q 0,-1.462 -0.238,-3.128 -0.238,-1.7 -0.442,-2.822 l 4.046,-0.578 q 0.136,0.714 0.238,1.836 0.136,1.088 0.238,2.278 0.102,1.19 0.102,2.142 0,4.182 -1.666,7.48 1.802,1.938 2.516,3.434 0.714,1.496 0.714,2.754 0,1.156 -0.544,2.278 -0.51,1.122 -1.768,1.836 -1.258,0.714 -3.502,0.714 h -9.146 v -3.876 q 4.726,-3.4 6.936,-6.528 -1.836,-1.598 -4.318,-3.366 -2.448,-1.802 -5.202,-3.604 l 2.142,-3.128 q 2.958,1.938 5.202,3.604 2.278,1.666 3.978,3.094 0.714,-2.04 0.714,-4.42 z m -4.114,14.314 h 2.992 q 1.734,0 2.278,-0.408 0.544,-0.442 0.544,-1.088 0,-0.816 -1.496,-2.448 -1.734,2.108 -4.318,3.944 z m -39.43996,4.08 0.34,-4.012 q 1.122,0 1.802,-0.17 0.714,-0.204 1.156,-0.816 0.476,-0.646 0.85,-2.006 0.374,-1.36 0.85,-3.74 l 3.706,0.782 q -0.17,0.816 -0.408,1.972 -0.204,1.122 -0.204,2.006 0,0.918 0.612,1.462 0.612,0.51 2.312,0.51 0.918,0 1.53,-0.17 0.646,-0.204 1.088,-0.85 0.476,-0.68 0.816,-2.074 0.34,-1.394 0.714,-3.876 l 3.774,0.646 q -0.136,0.714 -0.272,1.598 -0.136,0.884 -0.238,1.7 -0.102,0.782 -0.102,1.292 0,0.68 0.578,1.224 0.612,0.51 2.584,0.51 1.394,0 2.21,-0.544 0.85,-0.578 0.85,-2.074 0,-1.258 -0.612,-3.264 -0.578,-2.04 -1.326,-4.182 l 4.012,-1.258 q 0.51,1.326 0.918,2.89 0.408,1.564 0.646,3.026 0.272,1.462 0.272,2.584 0,3.366 -1.87,5.1 -1.87,1.734 -4.93,1.734 -2.176,0 -3.434,-0.51 -1.224,-0.544 -1.768,-1.87 -0.612,1.054 -1.394,1.564 -0.748,0.51 -1.768,0.646 -1.02,0.17 -2.482,0.17 -0.85,0 -1.734,-0.17 -0.85,-0.136 -1.632,-0.612 -0.782,-0.51 -1.292,-1.564 -1.054,1.53 -2.584,1.938 -1.53,0.408 -3.57,0.408 z m -8.63602,-14.382 q -0.884,0 -1.496,-0.612 -0.612,-0.612 -0.612,-1.462 0,-0.884 0.612,-1.496 0.612,-0.646 1.496,-0.646 0.85,0 1.462,0.646 0.612,0.612 0.612,1.496 0,0.85 -0.612,1.462 -0.612,0.612 -1.462,0.612 z m 5.44,0.034 q -0.884,0 -1.53,-0.612 -0.612,-0.612 -0.612,-1.496 0,-0.85 0.612,-1.496 0.646,-0.646 1.53,-0.646 0.85,0 1.428,0.646 0.612,0.646 0.612,1.496 0,0.884 -0.612,1.496 -0.578,0.612 -1.428,0.612 z m -10.234,14.348 0.34,-4.012 q 1.394,0 2.312,-0.238 0.918,-0.272 1.462,-0.986 0.578,-0.748 0.952,-2.142 0.408,-1.428 0.782,-3.74 l 3.774,0.646 q -0.17,0.85 -0.374,1.972 -0.204,1.122 -0.204,2.006 0,0.748 0.34,1.326 0.34,0.544 1.36,0.85 1.02,0.306 3.026,0.306 1.088,0 1.53,0.578 0.476,0.544 0.476,1.36 0,0.884 -0.612,1.496 -0.612,0.578 -1.734,0.578 -2.72,0 -4.25,-0.578 -1.496,-0.612 -2.108,-2.006 -1.258,1.666 -3.094,2.142 -1.802,0.442 -3.978,0.442 z m -14.24603,7.684 -1.428,-3.604 q 4.114,-1.394 6.222,-3.57 2.142,-2.142 2.142,-4.726 0,-1.496 -0.68,-3.196 -0.646,-1.734 -1.564,-3.4 l 3.706,-1.802 q 0.612,1.122 1.088,2.312 0.476,1.156 0.816,2.142 0.34,0.986 0.51,1.496 0.476,1.564 1.258,2.108 0.816,0.544 2.482,0.544 1.054,0 1.53,0.578 0.476,0.544 0.476,1.36 0,0.884 -0.612,1.496 -0.612,0.578 -1.734,0.578 -1.292,0 -2.244,-0.374 -0.952,-0.408 -1.53,-1.054 -0.442,1.7 -1.496,3.162 -1.054,1.462 -2.516,2.618 -1.462,1.19 -3.128,2.006 -1.632,0.85 -3.298,1.326 z m -5.47399,-7.854 -0.714,-24.65 h 4.012 l 0.68,24.65 z m -11.18601,-18.292 q -0.918,0 -1.53,-0.612 -0.612,-0.612 -0.612,-1.462 0,-0.884 0.612,-1.496 0.612,-0.646 1.53,-0.646 0.85,0 1.428,0.646 0.612,0.612 0.612,1.496 0,0.85 -0.612,1.462 -0.578,0.612 -1.428,0.612 z m 5.406,0.034 q -0.884,0 -1.496,-0.612 -0.612,-0.612 -0.612,-1.462 0,-0.884 0.612,-1.496 0.612,-0.646 1.496,-0.646 0.85,0 1.462,0.646 0.612,0.612 0.612,1.496 0,0.85 -0.612,1.462 -0.612,0.612 -1.462,0.612 z m -8.534,18.428 0.34,-4.012 q 2.006,0 3.128,-0.17 1.122,-0.204 1.564,-0.782 0.442,-0.578 0.442,-1.768 0,-0.918 -0.272,-2.176 -0.272,-1.292 -0.68,-2.652 -0.408,-1.394 -0.884,-2.618 l 3.978,-1.19 q 0.408,1.122 0.816,2.618 0.408,1.462 0.68,2.992 0.272,1.53 0.272,2.822 0,2.788 -1.122,4.284 -1.122,1.496 -3.23,2.074 -2.074,0.578 -5.032,0.578 z m -13.43002,0 0.34,-4.012 q 1.394,0 2.312,-0.238 0.918,-0.272 1.462,-0.986 0.578,-0.748 0.952,-2.142 0.408,-1.428 0.782,-3.74 l 3.774,0.646 q -0.17,0.85 -0.374,1.972 -0.204,1.122 -0.204,2.006 0,0.748 0.34,1.326 0.34,0.544 1.36,0.85 1.02,0.306 3.026,0.306 1.088,0 1.53,0.578 0.476,0.544 0.476,1.36 0,0.884 -0.612,1.496 -0.612,0.578 -1.734,0.578 -2.72,0 -4.25,-0.578 -1.496,-0.612 -2.108,-2.006 -1.258,1.666 -3.094,2.142 -1.802,0.442 -3.978,0.442 z m 9.146,7.344 q -0.884,0 -1.53,-0.612 -0.612,-0.612 -0.612,-1.496 0,-0.884 0.612,-1.53 0.646,-0.612 1.53,-0.612 0.85,0 1.462,0.612 0.612,0.646 0.612,1.53 0,0.884 -0.612,1.496 -0.612,0.612 -1.462,0.612 z m -5.44,0 q -0.884,0 -1.496,-0.612 -0.612,-0.612 -0.612,-1.496 0,-0.884 0.612,-1.53 0.612,-0.612 1.496,-0.612 0.85,0 1.462,0.612 0.612,0.646 0.612,1.53 0,0.884 -0.612,1.496 -0.612,0.612 -1.462,0.612 z m -25.73803,-7.344 0.34,-4.012 q 3.604,0 7.004,-0.884 3.4,-0.918 6.086,-2.754 -1.462,-1.02 -3.366,-1.598 -1.904,-0.578 -4.182,-0.578 -0.816,0 -1.632,0.102 -0.816,0.068 -1.734,0.272 l -0.612,-3.876 q 0.952,-0.272 1.972,-0.408 1.02,-0.136 1.904,-0.136 2.278,0 4.046,0.612 1.768,0.612 3.23,1.428 1.462,0.816 2.72,1.462 1.292,0.612 2.584,0.612 h 1.054 l 0.408,3.74 q -0.714,0 -1.394,0.136 -0.646,0.136 -1.292,0.374 0.816,0.884 2.074,1.19 1.258,0.306 3.162,0.306 1.054,0 1.496,0.578 0.476,0.544 0.476,1.36 0,0.884 -0.612,1.496 -0.612,0.578 -1.7,0.578 -1.836,0 -3.366,-0.306 -1.496,-0.34 -2.652,-1.224 -1.122,-0.918 -1.836,-2.584 -1.19,0.68 -2.55,1.394 -1.326,0.714 -2.992,1.326 -1.632,0.612 -3.774,1.02 -2.108,0.374 -4.862,0.374 z m 9.316,7.072 q -0.884,0 -1.496,-0.612 -0.612,-0.612 -0.612,-1.462 0,-0.884 0.612,-1.53 0.612,-0.646 1.496,-0.646 0.884,0 1.496,0.646 0.646,0.646 0.646,1.53 0,0.85 -0.646,1.462 -0.612,0.612 -1.496,0.612 z m -34.74804,-7.82 q 0,-1.19 0.306,-2.856 0.34,-1.7 1.326,-3.91 l 3.536,1.258 q -0.578,1.53 -0.884,2.686 -0.272,1.156 -0.272,2.21 0,2.482 2.074,3.774 2.108,1.292 5.576,1.292 2.55,0 4.454,-0.442 1.938,-0.408 3.026,-1.19 1.088,-0.748 1.088,-1.768 0,-0.714 -1.122,-1.292 -1.088,-0.612 -3.4,-1.394 l 0.918,-4.046 q 3.162,1.292 5.372,1.87 2.244,0.544 3.774,0.544 1.054,0 1.53,0.578 0.476,0.544 0.476,1.36 0,0.884 -0.646,1.496 -0.612,0.578 -1.7,0.578 h -1.462 q 0.102,0.578 0.102,1.054 0,1.53 -1.462,3.06 -1.428,1.564 -4.318,2.55 -2.856,1.02 -7.174,1.02 -3.332,0 -5.848,-0.918 -2.482,-0.884 -3.876,-2.754 -1.394,-1.87 -1.394,-4.76 z m 14.11,15.776 q -0.884,0 -1.496,-0.612 -0.612,-0.612 -0.612,-1.496 0,-0.884 0.612,-1.53 0.612,-0.612 1.496,-0.612 0.85,0 1.462,0.612 0.612,0.646 0.612,1.53 0,0.884 -0.612,1.496 -0.612,0.612 -1.462,0.612 z m -5.406,0 q -0.884,0 -1.53,-0.612 -0.612,-0.612 -0.612,-1.496 0,-0.884 0.612,-1.53 0.646,-0.612 1.53,-0.612 0.85,0 1.462,0.612 0.612,0.646 0.612,1.53 0,0.884 -0.612,1.496 -0.612,0.612 -1.462,0.612 z m -32.84402,-7.378 -0.816,-4.012 q 3.298,-0.442 5.542,-1.258 2.278,-0.782 3.264,-2.754 -1.156,0.408 -2.448,0.408 -2.482,0 -4.08,-1.156 -1.598,-1.156 -1.598,-3.672 0,-1.53 0.476,-2.992 0.51,-1.462 1.394,-2.652 0.884,-1.19 2.074,-1.87 1.19,-0.714 2.584,-0.714 1.564,0 2.754,0.816 1.19,0.782 1.972,2.074 0.782,1.292 1.19,2.856 0.408,1.564 0.408,3.094 0,5.406 -3.332,8.364 -3.332,2.992 -9.384,3.468 z m 3.808,-13.294 q 0,1.768 2.482,1.768 1.258,0 2.414,-0.34 0,-1.122 -0.306,-2.176 -0.306,-1.088 -0.884,-1.768 -0.544,-0.68 -1.36,-0.68 -0.68,0 -1.224,0.51 -0.51,0.476 -0.816,1.224 -0.306,0.714 -0.306,1.462 z m -11.69601,5.474 -0.714,-24.65 h 4.012 l 0.68,24.65 z M 442.6479,891.776 q 0,-1.462 -0.238,-3.128 -0.238,-1.7 -0.442,-2.822 l 4.046,-0.578 q 0.136,0.714 0.238,1.836 0.136,1.088 0.238,2.278 0.102,1.19 0.102,2.142 0,4.182 -1.666,7.48 1.802,1.938 2.516,3.434 0.714,1.496 0.714,2.754 0,1.156 -0.544,2.278 -0.51,1.122 -1.768,1.836 -1.258,0.714 -3.502,0.714 h -9.146 v -3.876 q 4.726,-3.4 6.936,-6.528 -1.836,-1.598 -4.318,-3.366 -2.448,-1.802 -5.202,-3.604 l 2.142,-3.128 q 2.958,1.938 5.202,3.604 2.278,1.666 3.978,3.094 0.714,-2.04 0.714,-4.42 z m -4.114,14.314 h 2.992 q 1.734,0 2.278,-0.408 0.544,-0.442 0.544,-1.088 0,-0.816 -1.496,-2.448 -1.734,2.108 -4.318,3.944 z m -5.882,14.348 -0.51,-2.176 q 1.02,-0.204 1.666,-0.34 -0.612,-0.476 -1.088,-1.19 -0.442,-0.714 -0.442,-1.564 0,-1.7 1.122,-2.482 1.156,-0.782 2.516,-0.782 0.918,0 1.734,0.272 l -0.272,2.142 q -0.34,-0.068 -0.68,-0.136 -0.34,-0.068 -0.714,-0.068 -0.578,0 -0.986,0.306 -0.374,0.306 -0.374,0.782 0,0.748 0.578,1.258 0.612,0.544 1.224,0.748 1.19,-0.34 2.108,-0.714 l 0.646,2.074 q -1.292,0.476 -3.128,0.986 -1.802,0.544 -3.4,0.884 z m -19.27804,-11.866 1.564,-3.57 q 1.02,0.51 2.176,0.85 1.19,0.306 2.55,0.306 2.04,0 2.992,-0.578 0.986,-0.612 0.986,-1.734 0,-0.612 -0.34,-1.598 -0.306,-1.02 -1.258,-2.686 -0.918,-1.7 -2.754,-4.284 l 3.4,-2.244 q 2.516,3.604 3.842,6.528 1.326,2.924 1.326,4.896 0,1.598 -0.85,2.924 -0.85,1.292 -2.584,2.074 -1.734,0.748 -4.454,0.748 -1.598,0 -3.434,-0.408 -1.836,-0.408 -3.162,-1.224 z m -7.14001,1.428 -0.714,-24.65 h 4.012 l 0.68,24.65 z m -15.87797,7.82 -1.428,-3.672 q 3.094,-1.054 4.93,-2.414 1.836,-1.326 2.618,-2.788 0.816,-1.496 0.816,-2.992 0,-1.428 -0.578,-2.958 -0.544,-1.53 -1.666,-3.638 l 3.706,-1.802 q 2.482,4.59 2.482,7.99 0,3.094 -1.428,5.474 -1.428,2.38 -3.876,4.08 -2.448,1.7 -5.576,2.72 z m -6.86795,-7.752 q -2.72,0 -4.556,-1.428 -1.802,-1.428 -1.802,-4.352 0,-1.53 0.918,-3.502 0.952,-2.006 3.128,-4.148 l -1.19,-0.952 2.652,-3.23 q 2.278,1.734 3.978,3.502 1.734,1.768 2.686,3.638 0.952,1.87 0.952,4.012 0,0.952 -0.306,2.074 -0.306,1.122 -1.054,2.108 -0.748,0.986 -2.074,1.632 -1.326,0.646 -3.332,0.646 z m 0.238,-3.978 q 1.428,0 2.108,-0.782 0.714,-0.782 0.714,-1.904 0,-0.918 -0.544,-2.04 -0.51,-1.122 -2.278,-2.652 -1.394,1.326 -2.04,2.618 -0.646,1.292 -0.646,2.312 0,1.224 0.748,1.836 0.782,0.612 1.938,0.612 z m -2.686,-16.422 q -0.884,0 -1.53,-0.612 -0.612,-0.612 -0.612,-1.462 0,-0.884 0.612,-1.496 0.646,-0.646 1.53,-0.646 0.85,0 1.462,0.646 0.612,0.612 0.612,1.496 0,0.85 -0.612,1.462 -0.612,0.612 -1.462,0.612 z m 5.406,0.034 q -0.884,0 -1.496,-0.612 -0.612,-0.612 -0.612,-1.496 0,-0.85 0.612,-1.496 0.612,-0.646 1.496,-0.646 0.85,0 1.462,0.646 0.612,0.646 0.612,1.496 0,0.884 -0.612,1.496 -0.612,0.612 -1.462,0.612 z m -33.45601,28.118 -0.816,-4.012 q 3.298,-0.442 5.542,-1.258 2.278,-0.782 3.264,-2.754 -1.156,0.408 -2.448,0.408 -2.482,0 -4.08,-1.156 -1.598,-1.156 -1.598,-3.672 0,-1.53 0.476,-2.992 0.51,-1.462 1.394,-2.652 0.884,-1.19 2.074,-1.87 1.19,-0.714 2.584,-0.714 1.564,0 2.754,0.816 1.19,0.782 1.972,2.074 0.782,1.292 1.19,2.856 0.408,1.564 0.408,3.094 0,5.406 -3.332,8.364 -3.332,2.992 -9.384,3.468 z m 3.808,-13.294 q 0,1.768 2.482,1.768 1.258,0 2.414,-0.34 0,-1.122 -0.306,-2.176 -0.306,-1.088 -0.884,-1.768 -0.544,-0.68 -1.36,-0.68 -0.68,0 -1.224,0.51 -0.51,0.476 -0.816,1.224 -0.306,0.714 -0.306,1.462 z m -11.69601,5.474 -0.714,-24.65 h 4.012 l 0.68,24.65 z m -12.51204,0.17 0.34,-4.012 q 1.7,0 2.414,-0.34 0.714,-0.34 0.85,-1.258 0.136,-0.918 0.068,-2.652 l -0.646,-16.558 h 4.046 l 0.68,16.66 q 0.068,1.904 -0.17,3.434 -0.204,1.496 -0.986,2.55 -0.782,1.054 -2.38,1.632 -1.564,0.544 -4.216,0.544 z m -8.636,-14.382 q -0.884,0 -1.496,-0.612 -0.612,-0.612 -0.612,-1.462 0,-0.884 0.612,-1.496 0.612,-0.646 1.496,-0.646 0.85,0 1.462,0.646 0.612,0.612 0.612,1.496 0,0.85 -0.612,1.462 -0.612,0.612 -1.462,0.612 z m 5.44,0.034 q -0.884,0 -1.53,-0.612 -0.612,-0.612 -0.612,-1.496 0,-0.85 0.612,-1.496 0.646,-0.646 1.53,-0.646 0.85,0 1.428,0.646 0.612,0.646 0.612,1.496 0,0.884 -0.612,1.496 -0.578,0.612 -1.428,0.612 z m -10.234,14.348 0.34,-4.012 q 1.394,0 2.312,-0.238 0.918,-0.272 1.462,-0.986 0.578,-0.748 0.952,-2.142 0.408,-1.428 0.782,-3.74 l 3.774,0.646 q -0.17,0.85 -0.374,1.972 -0.204,1.122 -0.204,2.006 0,0.748 0.34,1.326 0.34,0.544 1.36,0.85 1.02,0.306 3.026,0.306 1.088,0 1.53,0.578 0.476,0.544 0.476,1.36 0,0.884 -0.612,1.496 -0.612,0.578 -1.734,0.578 -2.72,0 -4.25,-0.578 -1.496,-0.612 -2.108,-2.006 -1.258,1.666 -3.094,2.142 -1.802,0.442 -3.978,0.442 z m -22.03203,0 0.34,-4.012 q 3.604,0 7.004,-0.884 3.4,-0.918 6.086,-2.754 -1.462,-1.02 -3.366,-1.598 -1.904,-0.578 -4.182,-0.578 -0.816,0 -1.632,0.102 -0.816,0.068 -1.734,0.272 l -0.612,-3.876 q 0.952,-0.272 1.972,-0.408 1.02,-0.136 1.904,-0.136 2.278,0 4.046,0.612 1.768,0.612 3.23,1.428 1.462,0.816 2.72,1.462 1.292,0.612 2.584,0.612 h 1.054 l 0.408,3.74 q -0.714,0 -1.394,0.136 -0.646,0.136 -1.292,0.374 0.816,0.884 2.074,1.19 1.258,0.306 3.162,0.306 1.054,0 1.496,0.578 0.476,0.544 0.476,1.36 0,0.884 -0.612,1.496 -0.612,0.578 -1.7,0.578 -1.836,0 -3.366,-0.306 -1.496,-0.34 -2.652,-1.224 -1.122,-0.918 -1.836,-2.584 -1.19,0.68 -2.55,1.394 -1.326,0.714 -2.992,1.326 -1.632,0.612 -3.774,1.02 -2.108,0.374 -4.862,0.374 z m -15.19799,7.65 -0.816,-4.012 q 3.128,-0.408 5.304,-1.156 2.21,-0.714 3.298,-2.482 h -1.496 q -2.856,0 -4.658,-1.088 -1.768,-1.122 -1.768,-3.774 0,-1.462 0.476,-2.924 0.51,-1.462 1.394,-2.618 0.884,-1.19 2.074,-1.904 1.19,-0.714 2.584,-0.714 1.836,0 3.264,1.122 1.428,1.122 2.244,3.128 0.816,1.972 0.816,4.59 v 0.17 h 2.822 q 1.054,0 1.53,0.578 0.476,0.544 0.476,1.36 0,0.884 -0.646,1.496 -0.612,0.578 -1.7,0.578 h -3.128 q -1.156,3.434 -4.25,5.338 -3.06,1.938 -7.82,2.312 z m 3.842,-13.226 q 0,0.544 0.34,0.986 0.34,0.408 1.394,0.612 1.054,0.17 3.128,0 v -0.102 q 0,-2.142 -0.714,-3.434 -0.68,-1.326 -1.836,-1.326 -0.714,0 -1.258,0.51 -0.51,0.51 -0.782,1.292 -0.272,0.748 -0.272,1.462 z m -29.44403,4.828 q 0,-1.19 0.306,-2.856 0.34,-1.7 1.326,-3.91 l 3.536,1.258 q -0.578,1.53 -0.884,2.686 -0.272,1.156 -0.272,2.21 0,2.55 1.734,3.842 1.768,1.326 4.658,1.326 2.482,0 3.978,-0.782 1.496,-0.782 2.244,-2.244 0.748,-1.428 0.952,-3.468 0.204,-2.04 0.102,-4.556 l -0.646,-17.578 h 4.08 l 0.578,17.646 q 0.068,2.244 -0.204,4.42 -0.238,2.142 -0.952,4.012 -0.68,1.904 -1.972,3.332 -1.292,1.462 -3.332,2.278 -2.006,0.816 -4.93,0.816 -2.754,0 -5.1,-0.884 -2.346,-0.884 -3.774,-2.754 -1.428,-1.87 -1.428,-4.794 z"
     id="text17"
     style="font-weight:600;font-size:34px;font-family:'Noto Sans Arabic';direction:rtl;text-anchor:middle;fill:#d4af37"
     aria-label="برنامج سَمْت للتقدم الاستراتيجي والإدارة والتحول" />
  <path
     id="line17"
     style="stroke:#c0c6cf"
     d="M 330,950 H 870" />
  <path
     d="m 729.92999,996.15 0.3,-2.97 q 0.78,0 1.35,-0.36 0.57,-0.36 1.08,-1.17 0.54,-0.84 1.2,-2.28 0.87,-1.86 1.77,-2.85 0.9,-1.02 1.8,-1.38 0.9,-0.39 1.8,-0.39 1.47,0 2.64,0.93 1.2,0.9 1.89,2.34 0.72,1.41 0.72,2.91 0,1.74 -0.66,2.88 -0.63,1.11 -1.68,1.65 -1.02,0.54 -2.22,0.54 -0.96,0 -2.34,-0.3 -1.38,-0.33 -3.24,-1.5 -0.93,1.26 -1.98,1.62 -1.02,0.33 -2.43,0.33 z m 5.94,-4.68 q -0.09,0.18 -0.15,0.36 1.2,0.66 2.16,0.93 0.99,0.27 1.68,0.27 1.17,0 1.68,-0.48 0.51,-0.51 0.51,-1.35 0,-0.78 -0.39,-1.59 -0.36,-0.81 -0.99,-1.35 -0.6,-0.54 -1.29,-0.54 -0.87,0 -1.56,0.81 -0.69,0.81 -1.65,2.94 z m -27.63,4.29 q 0,-1.05 0.3,-2.43 0.3,-1.41 1.05,-3.18 l 2.61,0.96 q -0.48,1.32 -0.75,2.37 -0.24,1.02 -0.24,1.92 0,2.37 1.65,3.48 1.68,1.11 4.26,1.11 2.64,0 4.11,-0.75 1.5,-0.75 2.1,-1.95 0.63,-1.17 0.63,-2.55 0,-1.77 -0.45,-3.45 -0.42,-1.68 -0.99,-3.54 l 2.97,-0.78 q 0.45,1.71 0.66,2.55 0.21,0.81 0.36,1.29 0.48,1.56 1.44,1.98 0.96,0.39 2.28,0.39 0.78,0 1.11,0.42 0.36,0.42 0.36,0.99 0,0.63 -0.48,1.11 -0.48,0.45 -1.29,0.45 -0.96,0 -1.74,-0.24 -0.78,-0.27 -1.32,-0.75 -0.21,2.13 -1.23,3.9 -1.02,1.77 -3.12,2.82 -2.1,1.08 -5.49,1.08 -2.4,0 -4.41,-0.78 -1.98,-0.75 -3.18,-2.34 -1.2,-1.59 -1.2,-4.08 z m 9.27,-11.79 q -0.72,0 -1.23,-0.48 -0.48,-0.48 -0.48,-1.2 0,-0.69 0.48,-1.2 0.51,-0.51 1.23,-0.51 0.69,0 1.17,0.51 0.51,0.51 0.51,1.2 0,0.72 -0.51,1.2 -0.48,0.48 -1.17,0.48 z M 694.77,996 l -0.6,-21.57 h 2.97 l 0.6,21.57 z m -8.76,-16.08 q 0,-0.75 -0.09,-1.68 -0.09,-0.96 -0.24,-1.89 -0.12,-0.93 -0.24,-1.59 l 3.06,-0.36 q 0.09,0.6 0.21,1.59 0.12,0.96 0.18,1.98 0.09,0.99 0.09,1.71 0,1.89 -0.36,3.6 -0.36,1.71 -1.14,3.27 1.5,1.59 2.13,2.88 0.66,1.26 0.66,2.4 0,0.96 -0.45,1.92 -0.42,0.96 -1.53,1.62 -1.11,0.63 -3.15,0.63 h -7.47 v -2.91 q 4.35,-3.12 6.3,-6.06 -1.65,-1.47 -3.87,-3.12 -2.22,-1.65 -4.68,-3.33 l 1.65,-2.34 q 5.28,3.66 8.19,6.21 0.39,-1.05 0.57,-2.19 0.18,-1.14 0.18,-2.34 z m -4.23,13.14 h 3.24 q 1.53,0 2.01,-0.45 0.48,-0.48 0.48,-1.11 0,-0.48 -0.39,-1.11 -0.39,-0.63 -1.08,-1.41 -1.65,2.22 -4.26,4.08 z m -4.62,12.09 -0.39,-1.77 q 0.9,-0.18 1.44,-0.33 -0.57,-0.39 -0.99,-1.02 -0.39,-0.63 -0.39,-1.38 0,-1.41 0.96,-2.1 0.96,-0.69 2.19,-0.69 0.75,0 1.47,0.24 l -0.24,1.68 q -0.3,-0.06 -0.6,-0.12 -0.27,-0.06 -0.6,-0.06 -0.63,0 -0.99,0.27 -0.36,0.27 -0.36,0.75 0,0.72 0.54,1.2 0.57,0.48 1.11,0.66 1.11,-0.3 1.95,-0.63 l 0.54,1.65 q -1.14,0.42 -2.73,0.87 -1.59,0.48 -2.91,0.78 z m -19.2,-9 0.3,-2.97 q 0.78,0 1.35,-0.36 0.57,-0.36 1.08,-1.17 0.54,-0.84 1.2,-2.28 0.87,-1.86 1.77,-2.85 0.9,-1.02 1.8,-1.38 0.9,-0.39 1.8,-0.39 1.47,0 2.64,0.93 1.2,0.9 1.89,2.34 0.72,1.41 0.72,2.91 0,1.74 -0.66,2.88 -0.63,1.11 -1.68,1.65 -1.02,0.54 -2.22,0.54 -0.96,0 -2.34,-0.3 -1.38,-0.33 -3.24,-1.5 -0.93,1.26 -1.98,1.62 -1.02,0.33 -2.43,0.33 z m 5.94,-4.68 q -0.09,0.18 -0.15,0.36 1.2,0.66 2.16,0.93 0.99,0.27 1.68,0.27 1.17,0 1.68,-0.48 0.51,-0.51 0.51,-1.35 0,-0.78 -0.39,-1.59 -0.36,-0.81 -0.99,-1.35 -0.6,-0.54 -1.29,-0.54 -0.87,0 -1.56,0.81 -0.69,0.81 -1.65,2.94 z m -21.17997,4.68 0.3,-2.97 h 2.88 q 2.04,0 3.06,-0.21 1.02,-0.24 1.32,-0.63 0.33,-0.39 0.33,-0.84 0,-0.66 -0.51,-1.47 -0.51,-0.84 -1.32,-1.71 -0.81,-0.9 -1.71,-1.74 -0.9,-0.87 -1.71,-1.62 -0.81,-0.75 -1.35,-1.29 -0.51,-0.54 -0.51,-0.78 0,-1.65 0.66,-2.34 0.78,-0.81 2.34,-1.74 1.59,-0.93 3.66,-1.95 2.07,-1.05 4.35,-2.13 l 1.23,2.64 q -2.79,1.32 -5.16,2.49 -2.37,1.17 -4.11,2.31 1.56,1.35 2.88,2.61 1.35,1.26 2.46,2.7 1.14,1.41 2.13,3.18 0.63,1.11 1.41,1.65 0.81,0.54 1.59,0.72 0.78,0.15 1.32,0.15 0.78,0 1.11,0.42 0.36,0.42 0.36,0.99 0,0.63 -0.48,1.11 -0.48,0.45 -1.29,0.45 -0.75,0 -1.71,-0.18 -0.93,-0.21 -1.86,-0.75 -0.9,-0.54 -1.59,-1.53 -0.9,1.26 -2.52,1.86 -1.62,0.6 -4.56,0.6 z m 0,0 q -2.55,0 -3.9,-0.54 -1.32,-0.57 -1.83,-1.71 -0.51,-1.17 -0.6,-3 l -0.6,-16.47 h 2.97 l 0.63,15.21 q 0.06,1.44 0.27,2.22 0.24,0.75 0.99,1.05 0.75,0.27 2.37,0.27 0.78,0 1.11,0.42 0.36,0.42 0.36,0.99 0,0.63 -0.48,1.11 -0.48,0.45 -1.29,0.45 z m -17.46002,0 0.3,-2.97 q 2.13,0 2.97,-0.45 0.87,-0.45 0.87,-2.04 0,-0.78 -0.24,-1.86 -0.24,-1.08 -0.63,-2.25 -0.36,-1.2 -0.78,-2.34 l 2.94,-0.96 q 0.36,0.99 0.72,2.25 0.36,1.26 0.6,2.55 0.24,1.26 0.24,2.28 0,2.22 -0.84,3.48 -0.81,1.26 -2.37,1.8 -1.56,0.51 -3.78,0.51 z m 3.99,-15.81 q -0.72,0 -1.23,-0.48 -0.48,-0.48 -0.48,-1.2 0,-0.69 0.48,-1.2 0.51,-0.51 1.23,-0.51 0.69,0 1.17,0.51 0.51,0.51 0.51,1.2 0,0.72 -0.51,1.2 -0.48,0.48 -1.17,0.48 z m -3.99,15.81 q -2.55,0 -3.9,-0.54 -1.32,-0.57 -1.83,-1.71 -0.51,-1.17 -0.6,-3 l -0.6,-16.47 h 2.97 l 0.63,15.21 q 0.06,1.44 0.27,2.22 0.24,0.75 0.99,1.05 0.75,0.27 2.37,0.27 0.78,0 1.11,0.42 0.36,0.42 0.36,0.99 0,0.63 -0.48,1.11 -0.48,0.45 -1.29,0.45 z m -27.03003,0.48 q -5.67,0 -8.37,-1.56 -2.7,-1.56 -2.7,-4.71 0,-1.2 0.27,-2.52 0.3,-1.32 0.63,-2.43 l 2.67,0.63 q -0.18,0.75 -0.39,1.74 -0.21,0.96 -0.21,1.71 0,1.44 0.78,2.37 0.81,0.9 2.73,1.35 1.95,0.45 5.37,0.45 v 0 0 q 6.66,0 9.75,-0.72 3.12,-0.75 3.12,-2.7 0,-1.11 -0.42,-2.61 -0.39,-1.5 -1.02,-3.18 l 2.79,-0.9 q 0.57,1.47 1.05,3.24 0.51,1.74 0.51,3.15 0,1.8 -0.81,3.09 -0.81,1.26 -2.7,2.07 -1.86,0.78 -5.07,1.14 -3.18,0.39 -7.98,0.39 v 0 z m 0.54,-12.96 q -0.69,0 -1.17,-0.48 -0.48,-0.48 -0.48,-1.17 0,-0.69 0.48,-1.17 0.48,-0.51 1.17,-0.51 0.69,0 1.17,0.51 0.48,0.48 0.48,1.17 0,0.69 -0.48,1.17 -0.48,0.48 -1.17,0.48 z m 4.44,0 q -0.69,0 -1.2,-0.48 -0.48,-0.48 -0.48,-1.17 0,-0.69 0.48,-1.17 0.51,-0.51 1.2,-0.51 0.69,0 1.17,0.51 0.48,0.48 0.48,1.17 0,0.69 -0.48,1.17 -0.48,0.48 -1.17,0.48 z M 573.63,996 573.03,974.43 H 576 l 0.6,21.57 z m -0.63,9.15 -0.39,-1.77 q 0.9,-0.18 1.44,-0.33 -0.57,-0.39 -0.99,-1.02 -0.39,-0.63 -0.39,-1.38 0,-1.41 0.96,-2.1 0.96,-0.69 2.19,-0.69 0.75,0 1.47,0.24 l -0.24,1.68 q -0.3,-0.06 -0.6,-0.12 -0.27,-0.06 -0.6,-0.06 -0.63,0 -0.99,0.27 -0.36,0.27 -0.36,0.75 0,0.72 0.54,1.2 0.57,0.48 1.11,0.66 1.11,-0.3 1.95,-0.63 l 0.54,1.65 q -1.14,0.42 -2.73,0.87 -1.59,0.48 -2.91,0.78 z m -10.14003,-9 0.27,-2.97 q 1.62,0 2.28,-0.3 0.66,-0.33 0.78,-1.14 0.12,-0.84 0.06,-2.37 l -0.57,-14.94 h 2.97 l 0.6,14.85 q 0.06,1.65 -0.12,2.94 -0.18,1.26 -0.84,2.13 -0.66,0.87 -1.98,1.35 -1.29,0.45 -3.45,0.45 z m -21.78,-0.39 q 0,-1.05 0.3,-2.43 0.3,-1.41 1.05,-3.18 l 2.61,0.96 q -0.48,1.32 -0.75,2.37 -0.24,1.02 -0.24,1.92 0,1.59 0.9,2.58 0.9,1.02 2.46,1.5 1.59,0.51 3.57,0.51 2.28,0 4.08,-0.45 1.83,-0.45 2.88,-1.26 1.05,-0.78 1.05,-1.77 0,-0.72 -1.11,-1.26 -1.08,-0.54 -3.21,-1.17 l 0.72,-3 q 2.94,1.17 4.77,1.65 1.86,0.45 3,0.45 0.78,0 1.11,0.42 0.36,0.42 0.36,0.99 0,0.63 -0.48,1.11 -0.48,0.45 -1.29,0.45 h -1.2 q 0.06,0.27 0.09,0.45 0.03,0.21 0.03,0.45 0,1.41 -1.32,2.76 -1.32,1.38 -3.87,2.25 -2.52,0.9 -6.18,0.9 -2.64,0 -4.77,-0.78 -2.1,-0.78 -3.33,-2.37 -1.23,-1.59 -1.23,-4.05 z m -13.46999,0.24 -0.6,-21.57 h 2.97 l 0.6,21.57 z m -10.76999,0.15 0.27,-2.97 q 1.62,0 2.28,-0.3 0.66,-0.33 0.78,-1.14 0.12,-0.84 0.06,-2.37 l -0.57,-14.94 h 2.97 l 0.6,14.85 q 0.06,1.65 -0.12,2.94 -0.18,1.26 -0.84,2.13 -0.66,0.87 -1.98,1.35 -1.29,0.45 -3.45,0.45 z m -15.14997,0 0.3,-2.97 q 1.02,0 2.01,-0.03 0.99,-0.03 1.89,-0.15 -0.72,-0.69 -1.32,-1.71 -0.6,-1.05 -0.6,-2.43 0,-1.68 0.78,-3 0.81,-1.32 2.07,-2.07 1.29,-0.78 2.7,-0.78 1.56,0 2.73,0.81 1.17,0.81 1.8,2.1 0.66,1.29 0.66,2.7 0,1.35 -0.51,2.46 -0.51,1.08 -1.38,1.92 1.11,0.09 2.25,0.15 1.14,0.03 2.07,0.03 0.78,0 1.11,0.42 0.36,0.42 0.36,0.99 0,0.63 -0.48,1.11 -0.48,0.45 -1.29,0.45 -1.95,0 -3.99,-0.27 -2.04,-0.3 -3.54,-0.78 -0.33,0.12 -0.66,0.24 -1.29,0.42 -3.18,0.63 -1.86,0.18 -3.78,0.18 z m 5.25,-7.17 q 0,1.05 0.63,1.89 0.63,0.81 1.5,1.35 1.17,-0.51 1.92,-1.35 0.78,-0.87 0.78,-2.01 0,-0.63 -0.3,-1.32 -0.3,-0.69 -0.84,-1.14 -0.51,-0.48 -1.2,-0.48 -0.69,0 -1.26,0.45 -0.54,0.42 -0.9,1.14 -0.33,0.69 -0.33,1.47 z m 0.21,-8.97 q -0.69,0 -1.17,-0.48 -0.48,-0.48 -0.48,-1.17 0,-0.69 0.48,-1.17 0.48,-0.51 1.17,-0.51 0.69,0 1.17,0.51 0.48,0.48 0.48,1.17 0,0.69 -0.48,1.17 -0.48,0.48 -1.17,0.48 z m 4.44,0 q -0.69,0 -1.2,-0.48 -0.48,-0.48 -0.48,-1.17 0,-0.69 0.48,-1.17 0.51,-0.51 1.2,-0.51 0.69,0 1.17,0.51 0.48,0.48 0.48,1.17 0,0.69 -0.48,1.17 -0.48,0.48 -1.17,0.48 z m -21.42003,16.14 0.3,-2.97 q 1.38,0 2.19,-0.21 0.81,-0.24 1.26,-0.87 0.48,-0.66 0.78,-1.89 0.33,-1.23 0.69,-3.27 l 2.82,0.51 q -0.18,0.78 -0.39,1.83 -0.18,1.02 -0.18,1.74 0,0.66 0.21,1.14 0.24,0.48 1.14,0.75 0.93,0.27 3,0.27 0.75,0 1.08,0.42 0.36,0.42 0.36,0.99 0,0.63 -0.48,1.11 -0.48,0.45 -1.26,0.45 -2.67,0 -3.9,-0.51 -1.2,-0.51 -1.62,-1.62 -0.99,1.35 -2.43,1.74 -1.44,0.39 -3.57,0.39 z m 7.8,6.06 q -0.69,0 -1.2,-0.51 -0.48,-0.48 -0.48,-1.14 0,-0.69 0.48,-1.2 0.51,-0.48 1.2,-0.48 0.66,0 1.14,0.48 0.51,0.51 0.51,1.2 0,0.66 -0.51,1.14 -0.48,0.51 -1.14,0.51 z m -4.44,0 q -0.69,0 -1.2,-0.51 -0.48,-0.48 -0.48,-1.14 0,-0.69 0.48,-1.2 0.51,-0.48 1.2,-0.48 0.69,0 1.17,0.48 0.48,0.51 0.48,1.2 0,0.66 -0.48,1.14 -0.48,0.51 -1.17,0.51 z M 490.17,996.15 q -2.55,0 -3.9,-0.54 -1.32,-0.57 -1.83,-1.71 -0.51,-1.17 -0.6,-3 l -0.6,-16.47 h 2.97 l 0.63,15.21 q 0.06,1.44 0.27,2.22 0.24,0.75 0.99,1.05 0.75,0.27 2.37,0.27 0.78,0 1.11,0.42 0.36,0.42 0.36,0.99 0,0.63 -0.48,1.11 -0.48,0.45 -1.29,0.45 z m -22.59001,-1.47 1.29,-2.58 q 0.75,0.45 1.8,0.78 1.05,0.3 2.37,0.3 2.04,0 2.94,-0.6 0.9,-0.63 0.9,-1.71 0,-0.57 -0.3,-1.44 -0.27,-0.9 -1.11,-2.4 -0.81,-1.5 -2.49,-3.87 l 2.49,-1.65 q 2.34,3.24 3.39,5.7 1.05,2.43 1.05,3.99 0,1.32 -0.69,2.46 -0.66,1.11 -2.13,1.83 -1.47,0.69 -3.9,0.69 -1.56,0 -3.06,-0.39 -1.5,-0.39 -2.55,-1.11 z m -7.52999,1.35 q -2.28,0 -3.84,-1.2 -1.53,-1.2 -1.53,-3.72 0,-1.26 0.84,-3.03 0.84,-1.77 2.88,-3.72 l -0.96,-0.81 1.92,-2.34 q 1.77,1.38 3.18,2.88 1.44,1.47 2.25,3.09 0.84,1.62 0.84,3.45 0,0.75 -0.27,1.68 -0.24,0.93 -0.87,1.77 -0.63,0.84 -1.71,1.41 -1.08,0.54 -2.73,0.54 z m 0.09,-2.97 q 1.41,0 2.1,-0.72 0.72,-0.72 0.72,-1.86 0,-0.93 -0.51,-2.01 -0.51,-1.11 -2.25,-2.61 -1.32,1.29 -1.98,2.58 -0.66,1.29 -0.66,2.28 0,1.17 0.72,1.77 0.75,0.57 1.86,0.57 z m -2.1,-14.37 q -0.69,0 -1.17,-0.48 -0.48,-0.48 -0.48,-1.17 0,-0.69 0.48,-1.17 0.48,-0.51 1.17,-0.51 0.69,0 1.17,0.51 0.48,0.48 0.48,1.17 0,0.69 -0.48,1.17 -0.48,0.48 -1.17,0.48 z m 4.44,0 q -0.69,0 -1.2,-0.48 -0.48,-0.48 -0.48,-1.17 0,-0.69 0.48,-1.17 0.51,-0.51 1.2,-0.51 0.69,0 1.17,0.51 0.48,0.48 0.48,1.17 0,0.69 -0.48,1.17 -0.48,0.48 -1.17,0.48 z"
     id="text18"
     style="font-weight:500;font-size:30px;font-family:'Noto Sans Arabic';direction:rtl;text-anchor:middle;fill:#F7F8FA"
     aria-label="من الإمكانات إلى القيادة" />
  <path
     d="m 376.60097,1042 h -2.772 v -15.708 h 8.91 v 2.354 h -6.138 v 4.62 h 5.72 v 2.354 h -5.72 z m 17.93,-15.708 q 3.102,0 4.576,1.144 1.496,1.144 1.496,3.476 0,1.144 -0.44,1.958 -0.418,0.814 -1.1,1.364 -0.682,0.528 -1.474,0.858 l 4.51,6.908 h -3.168 l -3.762,-6.204 h -2.288 V 1042 h -2.816 v -15.708 z m -0.176,2.354 h -1.474 v 4.84 h 1.562 q 1.738,0 2.508,-0.616 0.792,-0.638 0.792,-1.87 0,-1.276 -0.836,-1.804 -0.814,-0.55 -2.552,-0.55 z m 28.358,5.478 q 0,2.442 -0.814,4.268 -0.792,1.804 -2.442,2.816 -1.65,1.012 -4.136,1.012 -2.508,0 -4.158,-1.012 -1.628,-1.012 -2.442,-2.838 -0.792,-1.826 -0.792,-4.268 0,-2.42 0.792,-4.224 0.814,-1.826 2.442,-2.816 1.65,-1.012 4.18,-1.012 2.486,0 4.114,1.012 1.65,0.99 2.442,2.816 0.814,1.804 0.814,4.246 z m -11.814,0 q 0,2.662 1.056,4.18 1.056,1.518 3.366,1.518 2.332,0 3.366,-1.518 1.056,-1.518 1.056,-4.18 0,-2.662 -1.034,-4.18 -1.034,-1.518 -3.366,-1.518 -2.31,0 -3.388,1.518 -1.056,1.518 -1.056,4.18 z m 26.31202,7.876 -4.312,-12.87 h -0.088 q 0.022,0.44 0.066,1.254 0.044,0.792 0.066,1.738 0.044,0.924 0.044,1.738 v 8.14 h -2.53 v -15.708 h 3.916 l 4.136,12.342 h 0.088 l 4.312,-12.342 h 3.916 V 1042 h -2.684 v -8.272 q 0,-0.748 0.022,-1.628 0.044,-0.902 0.066,-1.694 0.044,-0.792 0.066,-1.254 h -0.088 l -4.488,12.848 z m 32.89003,-15.708 q 3.058,0 4.444,1.276 1.408,1.276 1.408,3.52 0,1.342 -0.572,2.53 -0.572,1.166 -1.936,1.892 -1.342,0.704 -3.652,0.704 h -1.562 V 1042 h -2.816 v -15.708 z m -0.176,2.332 h -1.694 v 5.258 h 1.276 q 1.716,0 2.64,-0.616 0.946,-0.638 0.946,-2.068 0,-1.298 -0.77,-1.936 -0.77,-0.638 -2.398,-0.638 z m 27.54399,5.5 q 0,2.442 -0.814,4.268 -0.792,1.804 -2.442,2.816 -1.65,1.012 -4.136,1.012 -2.508,0 -4.158,-1.012 -1.628,-1.012 -2.442,-2.838 -0.792,-1.826 -0.792,-4.268 0,-2.42 0.792,-4.224 0.814,-1.826 2.442,-2.816 1.65,-1.012 4.18,-1.012 2.486,0 4.114,1.012 1.65,0.99 2.442,2.816 0.814,1.804 0.814,4.246 z m -11.814,0 q 0,2.662 1.056,4.18 1.056,1.518 3.366,1.518 2.332,0 3.366,-1.518 1.056,-1.518 1.056,-4.18 0,-2.662 -1.034,-4.18 -1.034,-1.518 -3.366,-1.518 -2.31,0 -3.388,1.518 -1.056,1.518 -1.056,4.18 z m 24.53001,7.876 h -2.816 v -13.332 h -4.51 v -2.376 h 11.836 v 2.376 h -4.51 z m 20.23998,0 h -8.932 v -15.708 h 8.932 v 2.354 h -6.116 v 4.004 h 5.72 v 2.354 h -5.72 v 4.62 h 6.116 z m 21.09801,0 h -3.498 l -7.436,-12.32 h -0.088 q 0.066,0.99 0.11,2.134 0.066,1.122 0.088,2.266 v 7.92 h -2.53 v -15.708 h 3.476 l 7.414,12.232 h 0.066 q -0.044,-0.88 -0.088,-2.024 -0.044,-1.144 -0.066,-2.222 v -7.986 h 2.552 z m 14.124,0 h -2.816 v -13.332 h -4.51 v -2.376 h 11.836 v 2.376 h -4.51 z m 16.63198,0 h -6.6 v -1.606 l 1.892,-0.704 v -11.066 l -1.892,-0.726 v -1.606 h 6.6 v 1.606 l -1.892,0.726 v 11.066 l 1.892,0.704 z m 16.91803,0 -1.43,-4.158 h -5.918 l -1.408,4.158 h -2.992 l 5.764,-15.774 h 3.212 l 5.764,15.774 z m -3.52,-10.626 q -0.088,-0.308 -0.264,-0.836 -0.176,-0.528 -0.352,-1.078 -0.154,-0.572 -0.242,-0.946 -0.11,0.44 -0.286,1.012 -0.154,0.572 -0.308,1.078 -0.154,0.506 -0.22,0.77 l -1.386,4.048 h 4.422 z M 608.65701,1042 v -15.708 h 2.816 v 13.332 h 6.556 V 1042 Z m 32.25199,0 h -2.816 v -13.332 h -4.51 v -2.376 h 11.836 v 2.376 h -4.51 z m 24.90397,-7.876 q 0,2.442 -0.814,4.268 -0.792,1.804 -2.442,2.816 -1.65,1.012 -4.136,1.012 -2.508,0 -4.158,-1.012 -1.628,-1.012 -2.442,-2.838 -0.792,-1.826 -0.792,-4.268 0,-2.42 0.792,-4.224 0.814,-1.826 2.442,-2.816 1.65,-1.012 4.18,-1.012 2.486,0 4.114,1.012 1.65,0.99 2.442,2.816 0.814,1.804 0.814,4.246 z m -11.814,0 q 0,2.662 1.056,4.18 1.056,1.518 3.366,1.518 2.332,0 3.366,-1.518 1.056,-1.518 1.056,-4.18 0,-2.662 -1.034,-4.18 -1.034,-1.518 -3.366,-1.518 -2.31,0 -3.388,1.518 -1.056,1.518 -1.056,4.18 z m 36.36602,-5.676 q -2.156,0 -3.344,1.54 -1.166,1.54 -1.166,4.18 0,2.662 1.1,4.18 1.1,1.496 3.388,1.496 0.99,0 1.936,-0.198 0.946,-0.22 1.98,-0.572 v 2.398 q -0.968,0.396 -1.958,0.572 -0.968,0.176 -2.244,0.176 -2.42,0 -4.004,-0.99 -1.584,-1.012 -2.354,-2.816 -0.77,-1.826 -0.77,-4.268 0,-2.376 0.858,-4.18 0.858,-1.826 2.508,-2.86 1.672,-1.034 4.07,-1.034 1.188,0 2.332,0.286 1.166,0.264 2.178,0.748 l -0.968,2.31 q -0.836,-0.374 -1.738,-0.66 -0.88,-0.308 -1.804,-0.308 z m 25.278,5.676 q 0,2.442 -0.814,4.268 -0.792,1.804 -2.442,2.816 -1.65,1.012 -4.136,1.012 -2.508,0 -4.158,-1.012 -1.628,-1.012 -2.442,-2.838 -0.792,-1.826 -0.792,-4.268 0,-2.42 0.792,-4.224 0.814,-1.826 2.442,-2.816 1.65,-1.012 4.18,-1.012 2.486,0 4.114,1.012 1.65,0.99 2.442,2.816 0.814,1.804 0.814,4.246 z m -11.814,0 q 0,2.662 1.056,4.18 1.056,1.518 3.366,1.518 2.332,0 3.366,-1.518 1.056,-1.518 1.056,-4.18 0,-2.662 -1.034,-4.18 -1.034,-1.518 -3.366,-1.518 -2.31,0 -3.388,1.518 -1.056,1.518 -1.056,4.18 z m 26.31203,7.876 -4.312,-12.87 h -0.088 q 0.022,0.44 0.066,1.254 0.044,0.792 0.066,1.738 0.044,0.924 0.044,1.738 v 8.14 h -2.53 v -15.708 h 3.916 l 4.136,12.342 h 0.088 l 4.312,-12.342 h 3.916 V 1042 h -2.684 v -8.272 q 0,-0.748 0.022,-1.628 0.044,-0.902 0.066,-1.694 0.044,-0.792 0.066,-1.254 h -0.088 l -4.488,12.848 z m 24.83801,0 -4.312,-12.87 h -0.088 q 0.022,0.44 0.066,1.254 0.044,0.792 0.066,1.738 0.044,0.924 0.044,1.738 v 8.14 h -2.53 v -15.708 h 3.916 l 4.136,12.342 h 0.088 l 4.312,-12.342 h 3.916 V 1042 h -2.684 v -8.272 q 0,-0.748 0.022,-1.628 0.044,-0.902 0.066,-1.694 0.044,-0.792 0.066,-1.254 h -0.088 l -4.488,12.848 z m 27.78601,0 -1.43,-4.158 h -5.918 l -1.408,4.158 h -2.992 l 5.764,-15.774 h 3.212 l 5.764,15.774 z m -3.52,-10.626 q -0.088,-0.308 -0.264,-0.836 -0.176,-0.528 -0.352,-1.078 -0.154,-0.572 -0.242,-0.946 -0.11,0.44 -0.286,1.012 -0.154,0.572 -0.308,1.078 -0.154,0.506 -0.22,0.77 l -1.386,4.048 h 4.422 z M 805.57903,1042 h -3.498 l -7.436,-12.32 h -0.088 q 0.066,0.99 0.11,2.134 0.066,1.122 0.088,2.266 v 7.92 h -2.53 v -15.708 h 3.476 l 7.414,12.232 h 0.066 q -0.044,-0.88 -0.088,-2.024 -0.044,-1.144 -0.066,-2.222 v -7.986 h 2.552 z m 21.34001,-8.008 q 0,3.982 -2.222,6.006 -2.222,2.002 -6.204,2.002 h -4.422 v -15.708 h 4.884 q 2.42,0 4.202,0.88 1.804,0.88 2.772,2.596 0.99,1.694 0.99,4.224 z m -2.948,0.088 q 0,-2.816 -1.298,-4.136 -1.276,-1.32 -3.718,-1.32 h -2.068 v 11.022 h 1.694 q 5.39,0 5.39,-5.566 z"
     id="text19"
     style="font-weight:600;font-size:22px;font-family:'Noto Sans';letter-spacing:4.4;text-anchor:middle;fill:#F7F8FA"
     aria-label="FROM POTENTIAL TO COMMAND" />
</svg>
