<?xml version="1.0" encoding="UTF-8" standalone="no"?>
<svg
   width="720"
   height="680"
   viewBox="0 0 720 680"
   role="img"
   aria-label="SAMT brand asset"
   version="1.1"
   id="svg12"
   sodipodi:docname="06_samt_monogram_fullcolor.svg"
   xmlns:inkscape="http://www.inkscape.org/namespaces/inkscape"
   xmlns:sodipodi="http://sodipodi.sourceforge.net/DTD/sodipodi-0.dtd"
   xmlns="http://www.w3.org/2000/svg"
   xmlns:svg="http://www.w3.org/2000/svg">
  <sodipodi:namedview
     id="namedview12"
     pagecolor="#ffffff"
     bordercolor="#000000"
     borderopacity="0.25"
     inkscape:showpageshadow="2"
     inkscape:pageopacity="0.0"
     inkscape:pagecheckerboard="0"
     inkscape:deskcolor="#d1d1d1" />
  <defs
     id="defs11">
    <linearGradient
       id="silverGrad"
       x1="0"
       y1="0"
       x2="1"
       y2="1">
      <stop
         offset="0"
         stop-color="#F7F8FA"
         id="stop1" />
      <stop
         offset="0.45"
         stop-color="#C0C6CF"
         id="stop2" />
      <stop
         offset="1"
         stop-color="#7D8792"
         id="stop3" />
    </linearGradient>
    <linearGradient
       id="goldGrad"
       x1="0"
       y1="0"
       x2="1"
       y2="1">
      <stop
         offset="0"
         stop-color="#F1D99A"
         id="stop4" />
      <stop
         offset="0.58"
         stop-color="#D4AF37"
         id="stop5" />
      <stop
         offset="1"
         stop-color="#9B6D13"
         id="stop6" />
    </linearGradient>
    <linearGradient
       id="navyGrad"
       x1="0"
       y1="1"
       x2="1"
       y2="0">
      <stop
         offset="0"
         stop-color="#142C4D"
         id="stop7" />
      <stop
         offset="1"
         stop-color="#081D33"
         id="stop8" />
    </linearGradient>
    <radialGradient
       id="navyBackground"
       cx="55%"
       cy="18%"
       r="90%">
      <stop
         offset="0"
         stop-color="#1B3A63"
         id="stop9" />
      <stop
         offset="0.42"
         stop-color="#081D33"
         id="stop10" />
      <stop
         offset="1"
         stop-color="#03070D"
         id="stop11" />
    </radialGradient>
  </defs>
  <path
     id="circle11"
     style="opacity:0.55;fill:none;stroke:#c0c6cf;stroke-width:8"
     d="M 575,300 A 215,215 0 0 1 360,515 215,215 0 0 1 145,300 215,215 0 0 1 360,85 215,215 0 0 1 575,300 Z" />
  <path
     d="M490 150 C370 55 205 105 220 225 C232 320 470 272 468 390 C465 500 300 525 205 440"
     fill="none"
     stroke="url(#navyGrad)"
     stroke-width="58"
     stroke-linecap="round"
     id="path11" />
  <path
     d="M460 162 C350 92 247 123 254 217 C263 293 441 284 438 382 C436 462 330 489 240 430"
     fill="none"
     stroke="url(#goldGrad)"
     stroke-width="26"
     stroke-linecap="round"
     id="path12" />
  <path
     id="polygon12"
     style="fill:url(#goldGrad)"
     d="m 470,110 3.06,17.61 14.62,-10.29 -10.29,14.62 17.61,3.06 -17.61,3.06 10.29,14.62 L 473.06,142.39 470,160 466.94,142.39 452.32,152.68 462.61,138.06 445,135 l 17.61,-3.06 -10.29,-14.62 14.62,10.29 z" />
  <path
     d="m 222.05094,548.698 q 5.406,0 10.302,2.652 2.856,1.53 3.06,2.958 0.408,2.142 0.408,5.814 0,2.754 -2.04,2.754 -2.142,0 -4.08,-4.692 -0.714,-1.734 -3.162,-2.652 -2.448,-1.02 -4.896,-1.02 -3.366,0 -5.916,2.346 -2.448,2.346 -2.448,5.712 0,4.182 5.202,8.568 l 14.382,12.138 q 4.896,4.08 4.896,10.404 0,7.242 -6.324,12.342 -6.222,5.1 -14.178,5.1 -5.814,0 -10.71,-2.244 -2.958,-1.326 -3.876,-1.938 -0.816,-0.714 -0.816,-1.734 0,-3.06 0.612,-7.038 0.408,-2.448 1.938,-2.448 2.04,0 3.468,4.794 0.918,2.856 3.774,4.794 2.958,1.836 7.242,1.836 3.774,0 6.324,-2.958 2.55,-2.958 2.55,-6.834 0,-4.692 -4.08,-8.16 l -13.77,-11.628 q -6.018,-4.998 -6.018,-11.73 0,-7.14 5.304,-12.138 5.304,-4.998 12.852,-4.998 z m 66.33004,33.558 q -0.612,1.224 -0.51,1.734 0.204,0.408 1.428,0.408 h 12.444 q 1.53,0 1.734,-0.612 0.204,-0.612 -0.612,-3.06 l -6.222,-19.074 q -0.408,-1.428 -1.122,0.306 z m 29.07,27.336 q -3.774,0 -8.16,0.306 -4.386,0.306 -5.508,0.306 -1.122,0 -2.244,-0.408 -1.02,-0.51 -1.02,-1.326 0,-0.714 0.714,-1.122 0.816,-0.51 2.448,-1.02 1.734,-0.612 2.346,-0.918 3.978,-1.836 2.958,-5.406 l -2.958,-9.69 q -0.408,-1.224 -1.632,-1.224 h -17.034 q -1.224,0 -1.632,1.122 l -3.876,11.118 q -1.122,3.366 2.244,4.284 3.774,1.02 3.774,2.856 0,1.734 -3.57,1.734 -1.02,0 -4.284,-0.306 -3.162,-0.306 -4.08,-0.306 -1.428,0 -3.672,0.306 -2.142,0.306 -2.754,0.306 -3.366,0 -3.366,-1.734 0,-0.714 0.816,-1.122 0.816,-0.51 2.448,-1.02 1.734,-0.612 2.346,-0.918 0.51,-0.204 0.918,-0.408 0.408,-0.204 0.714,-0.408 0.306,-0.204 0.612,-0.408 0.306,-0.306 0.408,-0.408 0.204,-0.102 0.408,-0.51 0.204,-0.408 0.306,-0.51 0.102,-0.102 0.306,-0.612 0.306,-0.612 0.306,-0.816 0.102,-0.204 0.408,-0.918 0.306,-0.816 0.408,-1.224 l 15.606,-43.146 q 0.408,-1.122 0.816,-2.244 0.408,-1.122 0.612,-1.632 0.204,-0.612 0.408,-1.02 0.204,-0.51 0.408,-0.714 0.306,-0.204 0.612,-0.204 1.122,-0.102 2.652,-1.53 1.53,-1.53 1.734,-1.53 0.51,0 0.918,0.408 0.408,0.306 0.714,1.122 0.408,0.714 0.612,1.428 0.306,0.714 0.714,2.142 0.51,1.428 0.816,2.244 l 13.464,38.046 q 2.448,6.732 3.978,9.18 1.53,2.346 5.1,3.672 4.08,1.428 4.08,3.162 0,1.632 -2.958,1.632 -1.02,0 -4.284,-0.306 -3.264,-0.306 -5.1,-0.306 z m 109.374,-12.75 q 0.408,6.63 4.794,8.568 0.612,0.306 2.244,0.918 1.734,0.51 2.55,1.02 0.816,0.408 0.816,1.122 0,1.428 -3.264,1.734 -0.204,0 -2.346,-0.204 -2.04,-0.102 -4.998,-0.204 -2.856,-0.204 -4.998,-0.204 -2.142,0 -4.896,0.204 -2.652,0.102 -4.59,0.204 -1.836,0.204 -2.04,0.204 -3.366,-0.306 -3.366,-1.734 0,-0.714 0.816,-1.122 0.816,-0.51 2.448,-1.02 1.734,-0.612 2.346,-0.918 5.1,-2.244 4.794,-8.568 l -1.326,-32.13 q -0.102,-1.734 -1.326,-1.224 -0.816,0.408 -1.326,1.53 l -13.77,31.62 q -0.816,1.836 -2.958,5.814 -2.04,3.876 -2.652,3.876 -0.816,0 -1.632,-1.224 -0.816,-1.224 -2.346,-5.1 l -12.546,-32.13 q -0.714,-1.836 -1.326,-2.244 -0.51,-0.408 -0.816,0.306 -0.306,0.612 -0.408,2.04 l -1.734,28.458 q -0.204,2.55 0.51,5.406 0.816,2.754 2.652,3.57 0.612,0.306 2.244,0.918 1.734,0.51 2.55,1.02 0.816,0.408 0.816,1.122 0,1.428 -3.264,1.734 -0.204,0 -1.734,-0.204 -1.53,-0.102 -3.876,-0.204 -2.346,-0.204 -4.488,-0.204 -2.142,0 -4.284,0.204 -2.142,0.102 -3.57,0.204 -1.326,0.204 -1.53,0.204 -3.366,-0.306 -3.366,-1.734 0,-0.714 0.714,-1.122 0.816,-0.51 2.55,-1.02 1.734,-0.612 2.346,-0.918 4.692,-2.04 5.916,-10.71 l 3.468,-27.132 q 0.612,-4.998 -0.204,-7.242 -0.816,-2.244 -3.06,-4.284 -0.612,-0.612 -2.142,-1.53 -1.53,-1.02 -2.448,-1.836 -0.918,-0.816 -0.918,-1.53 0,-1.428 3.468,-1.428 1.734,0 5.304,0.306 3.57,0.204 6.018,0.204 2.04,0 3.468,1.53 1.53,1.428 2.958,4.896 l 11.934,29.274 q 0.408,1.122 0.612,1.428 0.204,0.306 0.51,0.714 0.408,0.306 0.918,-0.204 0.51,-0.612 1.122,-2.04 l 16.014,-33.252 q 0.816,-1.632 1.836,-1.938 1.02,-0.408 3.366,-0.408 1.224,0 6.222,-0.51 4.998,-0.51 6.732,-0.51 1.632,0 1.632,1.734 0,0.714 -0.816,1.224 -0.714,0.408 -4.08,1.836 -2.448,1.02 -3.366,2.958 -0.816,1.938 -0.612,6.222 z m 61.536,-38.352 q 0,-3.162 -1.632,-3.162 h -12.444 q -1.836,0 -2.652,0.714 -0.816,0.714 -1.734,2.346 -0.306,0.51 -0.816,1.632 -0.408,1.02 -0.714,1.632 -0.306,0.612 -0.816,1.122 -0.408,0.51 -0.918,0.51 -1.836,0 -1.836,-2.346 0,-1.02 0.204,-2.856 0.306,-1.836 0.306,-3.57 0,-0.918 -0.102,-2.55 -0.102,-1.632 -0.102,-2.04 0,-1.02 0.51,-1.734 0.51,-0.816 1.224,-0.816 0.306,0 3.366,1.53 3.06,1.53 6.324,1.53 h 35.598 q 3.978,0 7.14,-1.734 0.408,-0.204 0.918,-0.612 0.612,-0.51 1.02,-0.714 0.51,-0.204 1.02,-0.204 0.816,0 1.326,0.612 0.51,0.51 0.51,1.224 0,0.306 -0.204,1.734 -0.204,1.326 -0.204,2.652 0,1.428 0.102,4.08 0.102,2.55 0.102,2.958 0,2.346 -1.428,2.346 -1.02,0 -3.672,-4.59 -1.734,-2.856 -3.672,-2.856 h -15.81 q -1.224,0 -1.224,3.162 v 39.576 q 0,2.856 1.122,4.59 1.122,1.632 3.672,2.754 0.612,0.306 2.244,0.918 1.734,0.51 2.55,1.02 0.816,0.408 0.816,1.122 0,1.428 -3.264,1.734 -0.204,0 -2.346,-0.204 -2.04,-0.102 -4.998,-0.204 -2.856,-0.204 -4.998,-0.204 -2.142,0 -4.896,0.204 -2.652,0.102 -4.59,0.204 -1.836,0.204 -2.04,0.204 -3.366,-0.306 -3.366,-1.734 0,-0.714 0.816,-1.122 0.816,-0.51 2.448,-1.02 1.734,-0.612 2.346,-0.918 2.55,-1.122 3.672,-2.754 1.122,-1.734 1.122,-4.59 z"
     id="text12"
     style="font-weight:500;font-size:102px;font-family:'EB Garamond';letter-spacing:24;text-anchor:middle;fill:#081d33"
     aria-label="SAMT" />
</svg>
