<svg xmlns="http://www.w3.org/2000/svg" width="1600" height="960" viewBox="0 0 1600 960">
<defs>
  <radialGradient id="planetFill" cx="40%" cy="24%" r="82%"><stop offset="0" stop-color="#17324c"/><stop offset=".32" stop-color="#0b1d31"/><stop offset=".7" stop-color="#040b14"/><stop offset="1" stop-color="#000204"/></radialGradient>
  <linearGradient id="planetShade" x1="0" y1="0" x2="1" y2="1"><stop offset="0" stop-color="#2e6c9a" stop-opacity=".22"/><stop offset=".45" stop-color="#07101c" stop-opacity=".06"/><stop offset="1" stop-color="#000" stop-opacity=".8"/></linearGradient>
  <radialGradient id="sun" cx="50%" cy="50%" r="50%"><stop offset="0" stop-color="#fffef2" stop-opacity="1"/><stop offset=".10" stop-color="#f7dda0" stop-opacity=".95"/><stop offset=".28" stop-color="#d89b2b" stop-opacity=".45"/><stop offset=".62" stop-color="#b97011" stop-opacity=".10"/><stop offset="1" stop-color="#b97011" stop-opacity="0"/></radialGradient>
  <linearGradient id="rim" x1="0" y1="0" x2="1" y2="0"><stop offset="0" stop-color="#5596c4" stop-opacity="0"/><stop offset=".34" stop-color="#8fc6ed" stop-opacity=".75"/><stop offset=".72" stop-color="#f0d08a" stop-opacity=".92"/><stop offset="1" stop-color="#f8e4ad" stop-opacity=".18"/></linearGradient>
  <linearGradient id="leftFade" x1="0" y1="0" x2="1" y2="0"><stop offset="0" stop-color="#02050a" stop-opacity=".98"/><stop offset=".68" stop-color="#02050a" stop-opacity=".86"/><stop offset="1" stop-color="#02050a" stop-opacity="0"/></linearGradient>
  <filter id="blur35"><feGaussianBlur stdDeviation="35"/></filter>
  <clipPath id="planetClip"><circle cx="1215" cy="1110" r="770"/></clipPath>
</defs>
<circle cx="1215" cy="1110" r="770" fill="url(#planetFill)"/>
<circle cx="1215" cy="1110" r="770" fill="url(#planetShade)"/>
<g clip-path="url(#planetClip)">
  <ellipse cx="1160" cy="830" rx="560" ry="280" fill="#214c6d" opacity=".08" filter="url(#blur35)"/>
  <circle cx="1027.6" cy="505.0" r="0.77" fill="#f0c86b" opacity="0.26"/><circle cx="1102.0" cy="514.2" r="1.12" fill="#f0c86b" opacity="0.62"/><circle cx="987.6" cy="550.8" r="0.56" fill="#f0c86b" opacity="0.57"/><circle cx="979.6" cy="578.7" r="1.20" fill="#f0c86b" opacity="0.35"/><circle cx="1123.2" cy="511.3" r="0.57" fill="#f0c86b" opacity="0.49"/><circle cx="1133.4" cy="471.1" r="0.81" fill="#f0c86b" opacity="0.69"/><circle cx="1030.2" cy="535.7" r="0.78" fill="#f0c86b" opacity="0.82"/><circle cx="1080.1" cy="498.5" r="0.88" fill="#f0c86b" opacity="0.90"/><circle cx="1128.4" cy="509.5" r="1.12" fill="#f0c86b" opacity="0.90"/><circle cx="1085.3" cy="587.3" r="1.06" fill="#f0c86b" opacity="0.42"/><circle cx="1023.8" cy="435.5" r="0.66" fill="#f0c86b" opacity="0.83"/><circle cx="1058.2" cy="545.1" r="0.64" fill="#f0c86b" opacity="0.82"/><circle cx="1161.9" cy="522.4" r="0.96" fill="#f0c86b" opacity="0.45"/><circle cx="1017.5" cy="434.4" r="0.87" fill="#f0c86b" opacity="0.47"/><circle cx="1102.7" cy="483.7" r="1.20" fill="#f0c86b" opacity="0.79"/><circle cx="1120.7" cy="511.1" r="0.66" fill="#f0c86b" opacity="0.24"/><circle cx="976.2" cy="463.7" r="1.21" fill="#f0c86b" opacity="0.60"/><circle cx="962.3" cy="520.9" r="0.64" fill="#f0c86b" opacity="0.76"/><circle cx="1050.3" cy="471.4" r="0.67" fill="#f0c86b" opacity="0.46"/><circle cx="1123.8" cy="496.7" r="1.09" fill="#f0c86b" opacity="0.50"/><circle cx="1224.9" cy="582.7" r="1.00" fill="#f0c86b" opacity="0.80"/><circle cx="1200.9" cy="550.9" r="1.09" fill="#f0c86b" opacity="0.44"/><circle cx="1099.9" cy="520.6" r="1.07" fill="#f0c86b" opacity="0.59"/><circle cx="1061.9" cy="490.8" r="1.15" fill="#f0c86b" opacity="0.65"/><circle cx="1083.9" cy="493.7" r="1.04" fill="#f0c86b" opacity="0.52"/><circle cx="1050.5" cy="467.8" r="0.76" fill="#f0c86b" opacity="0.72"/><circle cx="1041.5" cy="443.2" r="1.21" fill="#f0c86b" opacity="0.66"/><circle cx="1102.0" cy="530.6" r="1.22" fill="#f0c86b" opacity="0.42"/><circle cx="1076.6" cy="476.3" r="0.50" fill="#f0c86b" opacity="0.79"/><circle cx="978.7" cy="522.9" r="1.16" fill="#f0c86b" opacity="0.75"/><circle cx="1011.0" cy="486.6" r="1.10" fill="#f0c86b" opacity="0.73"/><circle cx="1088.3" cy="462.3" r="0.72" fill="#f0c86b" opacity="0.41"/><circle cx="1217.1" cy="490.2" r="0.68" fill="#f0c86b" opacity="0.71"/><circle cx="1186.9" cy="509.2" r="0.72" fill="#f0c86b" opacity="0.89"/><circle cx="1160.7" cy="522.5" r="0.58" fill="#f0c86b" opacity="0.62"/><circle cx="1096.7" cy="510.0" r="0.94" fill="#f0c86b" opacity="0.43"/><circle cx="1088.3" cy="592.8" r="0.92" fill="#f0c86b" opacity="0.41"/><circle cx="1109.9" cy="485.3" r="0.56" fill="#f0c86b" opacity="0.45"/><circle cx="1037.2" cy="585.5" r="1.17" fill="#f0c86b" opacity="0.91"/><circle cx="1007.0" cy="533.3" r="0.66" fill="#f0c86b" opacity="0.39"/><circle cx="1125.8" cy="472.3" r="0.67" fill="#f0c86b" opacity="0.49"/><circle cx="1033.7" cy="458.4" r="0.94" fill="#f0c86b" opacity="0.46"/><circle cx="1031.4" cy="533.7" r="0.85" fill="#f0c86b" opacity="0.84"/><circle cx="1073.0" cy="529.8" r="0.99" fill="#f0c86b" opacity="0.85"/><circle cx="1109.3" cy="536.0" r="1.19" fill="#f0c86b" opacity="0.53"/><circle cx="1047.0" cy="489.8" r="0.51" fill="#f0c86b" opacity="0.90"/><circle cx="987.7" cy="476.8" r="1.00" fill="#f0c86b" opacity="0.69"/><circle cx="1111.6" cy="506.1" r="1.16" fill="#f0c86b" opacity="0.68"/><circle cx="1166.1" cy="461.2" r="0.82" fill="#f0c86b" opacity="0.68"/><circle cx="1039.2" cy="543.7" r="1.11" fill="#f0c86b" opacity="0.62"/><circle cx="1111.5" cy="499.3" r="0.57" fill="#f0c86b" opacity="0.69"/><circle cx="1038.8" cy="487.0" r="0.79" fill="#f0c86b" opacity="0.52"/><circle cx="1167.7" cy="533.1" r="0.71" fill="#f0c86b" opacity="0.42"/><circle cx="1099.3" cy="541.3" r="1.08" fill="#f0c86b" opacity="0.43"/><circle cx="1053.4" cy="535.5" r="1.22" fill="#f0c86b" opacity="0.47"/><circle cx="1115.1" cy="531.3" r="1.18" fill="#f0c86b" opacity="0.84"/><circle cx="1104.3" cy="480.2" r="1.05" fill="#f0c86b" opacity="0.87"/><circle cx="1158.0" cy="493.3" r="1.08" fill="#f0c86b" opacity="0.82"/><circle cx="1104.3" cy="537.8" r="1.11" fill="#f0c86b" opacity="0.28"/><circle cx="1041.3" cy="508.6" r="1.19" fill="#f0c86b" opacity="0.51"/><circle cx="1124.7" cy="523.4" r="1.08" fill="#f0c86b" opacity="0.62"/><circle cx="1153.4" cy="473.2" r="1.15" fill="#f0c86b" opacity="0.72"/><circle cx="1083.7" cy="526.4" r="1.15" fill="#f0c86b" opacity="0.52"/><circle cx="973.4" cy="461.4" r="0.57" fill="#f0c86b" opacity="0.84"/><circle cx="1050.5" cy="478.3" r="0.96" fill="#f0c86b" opacity="0.46"/><circle cx="1023.6" cy="535.4" r="1.04" fill="#f0c86b" opacity="0.47"/><circle cx="948.8" cy="468.0" r="0.75" fill="#f0c86b" opacity="0.91"/><circle cx="959.9" cy="512.1" r="0.57" fill="#f0c86b" opacity="0.65"/><circle cx="1090.8" cy="455.9" r="0.57" fill="#f0c86b" opacity="0.41"/><circle cx="1111.2" cy="533.7" r="0.91" fill="#f0c86b" opacity="0.64"/><circle cx="1025.4" cy="500.0" r="0.63" fill="#f0c86b" opacity="0.69"/><circle cx="1098.8" cy="570.3" r="0.84" fill="#f0c86b" opacity="0.57"/><circle cx="1119.6" cy="471.0" r="1.10" fill="#f0c86b" opacity="0.90"/><circle cx="1083.4" cy="524.4" r="0.58" fill="#f0c86b" opacity="0.40"/><circle cx="1150.7" cy="453.1" r="0.85" fill="#f0c86b" opacity="0.83"/><circle cx="1113.8" cy="494.1" r="0.81" fill="#f0c86b" opacity="0.76"/><circle cx="1076.9" cy="547.3" r="1.09" fill="#f0c86b" opacity="0.59"/><circle cx="1118.1" cy="538.1" r="0.57" fill="#f0c86b" opacity="0.61"/><circle cx="1131.8" cy="520.2" r="1.06" fill="#f0c86b" opacity="0.89"/><circle cx="1151.5" cy="492.9" r="1.13" fill="#f0c86b" opacity="0.91"/><circle cx="1137.6" cy="496.7" r="0.91" fill="#f0c86b" opacity="0.58"/><circle cx="1030.3" cy="487.3" r="1.12" fill="#f0c86b" opacity="0.51"/><circle cx="1190.1" cy="534.5" r="0.92" fill="#f0c86b" opacity="0.67"/><circle cx="1034.0" cy="540.3" r="1.12" fill="#f0c86b" opacity="0.73"/><circle cx="1007.6" cy="498.1" r="0.54" fill="#f0c86b" opacity="0.53"/><circle cx="1043.7" cy="468.4" r="1.13" fill="#f0c86b" opacity="0.58"/><circle cx="1104.4" cy="530.1" r="0.84" fill="#f0c86b" opacity="0.47"/><circle cx="1063.6" cy="475.7" r="1.15" fill="#f0c86b" opacity="0.30"/><circle cx="1053.7" cy="457.0" r="0.53" fill="#f0c86b" opacity="0.78"/><circle cx="1068.7" cy="478.9" r="0.85" fill="#f0c86b" opacity="0.23"/><circle cx="1054.5" cy="536.8" r="1.06" fill="#f0c86b" opacity="0.83"/><circle cx="1064.9" cy="559.2" r="1.23" fill="#f0c86b" opacity="0.67"/><circle cx="1142.3" cy="490.1" r="0.48" fill="#f0c86b" opacity="0.33"/><circle cx="1110.6" cy="503.3" r="0.68" fill="#f0c86b" opacity="0.42"/><circle cx="1033.5" cy="507.0" r="0.58" fill="#f0c86b" opacity="0.87"/><circle cx="1044.3" cy="542.5" r="1.09" fill="#f0c86b" opacity="0.45"/><circle cx="981.0" cy="507.6" r="1.23" fill="#f0c86b" opacity="0.38"/><circle cx="1167.5" cy="514.6" r="0.91" fill="#f0c86b" opacity="0.49"/><circle cx="1121.7" cy="464.3" r="0.73" fill="#f0c86b" opacity="0.43"/><circle cx="1076.4" cy="522.7" r="0.93" fill="#f0c86b" opacity="0.46"/><circle cx="1286.3" cy="681.9" r="0.68" fill="#f0c86b" opacity="0.22"/><circle cx="1110.0" cy="696.9" r="0.75" fill="#f0c86b" opacity="0.76"/><circle cx="1261.3" cy="617.1" r="1.04" fill="#f0c86b" opacity="0.87"/><circle cx="1108.3" cy="676.3" r="0.62" fill="#f0c86b" opacity="0.62"/><circle cx="1015.3" cy="609.8" r="0.64" fill="#f0c86b" opacity="0.88"/><circle cx="1253.4" cy="657.1" r="0.54" fill="#f0c86b" opacity="0.54"/><circle cx="1144.2" cy="685.6" r="0.85" fill="#f0c86b" opacity="0.91"/><circle cx="1083.3" cy="647.6" r="1.17" fill="#f0c86b" opacity="0.37"/><circle cx="1159.6" cy="601.6" r="0.46" fill="#f0c86b" opacity="0.41"/><circle cx="1135.2" cy="628.6" r="0.97" fill="#f0c86b" opacity="0.41"/><circle cx="1154.0" cy="663.2" r="1.00" fill="#f0c86b" opacity="0.26"/><circle cx="1221.0" cy="681.3" r="0.77" fill="#f0c86b" opacity="0.44"/><circle cx="1117.1" cy="605.8" r="0.91" fill="#f0c86b" opacity="0.65"/><circle cx="1025.0" cy="653.8" r="0.59" fill="#f0c86b" opacity="0.75"/><circle cx="1147.6" cy="648.1" r="1.23" fill="#f0c86b" opacity="0.68"/><circle cx="1233.9" cy="676.1" r="1.19" fill="#f0c86b" opacity="0.26"/><circle cx="1193.7" cy="578.5" r="0.51" fill="#f0c86b" opacity="0.58"/><circle cx="1040.5" cy="621.2" r="0.92" fill="#f0c86b" opacity="0.48"/><circle cx="1231.9" cy="559.0" r="0.63" fill="#f0c86b" opacity="0.52"/><circle cx="1205.0" cy="581.5" r="0.56" fill="#f0c86b" opacity="0.50"/><circle cx="1083.3" cy="688.9" r="1.10" fill="#f0c86b" opacity="0.34"/><circle cx="1276.1" cy="648.0" r="0.68" fill="#f0c86b" opacity="0.32"/><circle cx="1265.5" cy="683.5" r="0.68" fill="#f0c86b" opacity="0.72"/><circle cx="1133.6" cy="662.4" r="0.69" fill="#f0c86b" opacity="0.59"/><circle cx="1196.6" cy="641.1" r="0.84" fill="#f0c86b" opacity="0.25"/><circle cx="1177.8" cy="698.2" r="0.54" fill="#f0c86b" opacity="0.65"/><circle cx="1232.4" cy="585.5" r="1.07" fill="#f0c86b" opacity="0.34"/><circle cx="1032.5" cy="622.7" r="0.61" fill="#f0c86b" opacity="0.65"/><circle cx="1181.8" cy="769.2" r="0.70" fill="#f0c86b" opacity="0.50"/><circle cx="1142.5" cy="642.7" r="0.70" fill="#f0c86b" opacity="0.58"/><circle cx="1222.4" cy="614.0" r="1.05" fill="#f0c86b" opacity="0.78"/><circle cx="1221.5" cy="587.1" r="1.04" fill="#f0c86b" opacity="0.75"/><circle cx="1214.6" cy="686.9" r="1.03" fill="#f0c86b" opacity="0.27"/><circle cx="1330.1" cy="565.4" r="1.11" fill="#f0c86b" opacity="0.84"/><circle cx="1256.3" cy="673.9" r="0.55" fill="#f0c86b" opacity="0.86"/><circle cx="1154.8" cy="652.7" r="0.65" fill="#f0c86b" opacity="0.49"/><circle cx="1102.7" cy="674.5" r="1.08" fill="#f0c86b" opacity="0.76"/><circle cx="1193.8" cy="636.8" r="1.19" fill="#f0c86b" opacity="0.53"/><circle cx="1060.9" cy="633.7" r="0.86" fill="#f0c86b" opacity="0.29"/><circle cx="1178.4" cy="660.9" r="0.72" fill="#f0c86b" opacity="0.48"/><circle cx="1196.1" cy="615.4" r="0.98" fill="#f0c86b" opacity="0.84"/><circle cx="1101.1" cy="598.1" r="0.61" fill="#f0c86b" opacity="0.70"/><circle cx="1151.5" cy="552.0" r="0.55" fill="#f0c86b" opacity="0.83"/><circle cx="1133.1" cy="674.6" r="1.05" fill="#f0c86b" opacity="0.41"/><circle cx="1197.1" cy="617.6" r="0.60" fill="#f0c86b" opacity="0.78"/><circle cx="1235.7" cy="678.3" r="0.92" fill="#f0c86b" opacity="0.69"/><circle cx="1212.9" cy="573.3" r="1.03" fill="#f0c86b" opacity="0.71"/><circle cx="1262.8" cy="599.5" r="1.13" fill="#f0c86b" opacity="0.34"/><circle cx="1211.6" cy="625.7" r="1.05" fill="#f0c86b" opacity="0.63"/><circle cx="1125.8" cy="632.1" r="0.97" fill="#f0c86b" opacity="0.63"/><circle cx="1257.8" cy="751.0" r="0.59" fill="#f0c86b" opacity="0.31"/><circle cx="1185.5" cy="708.5" r="0.88" fill="#f0c86b" opacity="0.49"/><circle cx="1185.5" cy="674.9" r="0.50" fill="#f0c86b" opacity="0.37"/><circle cx="1148.0" cy="572.5" r="0.72" fill="#f0c86b" opacity="0.22"/><circle cx="1108.7" cy="650.2" r="0.78" fill="#f0c86b" opacity="0.82"/><circle cx="1200.5" cy="600.6" r="0.79" fill="#f0c86b" opacity="0.86"/><circle cx="1177.0" cy="678.4" r="0.74" fill="#f0c86b" opacity="0.79"/><circle cx="1082.2" cy="616.3" r="1.21" fill="#f0c86b" opacity="0.58"/><circle cx="1120.6" cy="636.9" r="0.81" fill="#f0c86b" opacity="0.49"/><circle cx="1186.5" cy="647.9" r="1.21" fill="#f0c86b" opacity="0.46"/><circle cx="1208.9" cy="667.7" r="0.71" fill="#f0c86b" opacity="0.84"/><circle cx="1233.3" cy="673.6" r="0.61" fill="#f0c86b" opacity="0.58"/><circle cx="1228.2" cy="615.3" r="0.71" fill="#f0c86b" opacity="0.40"/><circle cx="1212.3" cy="607.2" r="0.53" fill="#f0c86b" opacity="0.86"/><circle cx="1345.6" cy="672.4" r="0.72" fill="#f0c86b" opacity="0.52"/><circle cx="1162.6" cy="635.7" r="1.15" fill="#f0c86b" opacity="0.64"/><circle cx="1167.8" cy="621.8" r="0.61" fill="#f0c86b" opacity="0.65"/><circle cx="1181.8" cy="617.2" r="0.82" fill="#f0c86b" opacity="0.54"/><circle cx="1160.4" cy="614.9" r="1.05" fill="#f0c86b" opacity="0.45"/><circle cx="1175.4" cy="683.4" r="1.13" fill="#f0c86b" opacity="0.24"/><circle cx="1209.2" cy="618.5" r="1.00" fill="#f0c86b" opacity="0.72"/><circle cx="1121.4" cy="542.2" r="1.21" fill="#f0c86b" opacity="0.42"/><circle cx="1107.3" cy="664.2" r="0.68" fill="#f0c86b" opacity="0.40"/><circle cx="1259.3" cy="622.0" r="1.23" fill="#f0c86b" opacity="0.55"/><circle cx="1170.6" cy="590.6" r="0.47" fill="#f0c86b" opacity="0.80"/><circle cx="1073.5" cy="681.5" r="0.67" fill="#f0c86b" opacity="0.56"/><circle cx="1225.9" cy="602.8" r="1.02" fill="#f0c86b" opacity="0.38"/><circle cx="1182.7" cy="627.4" r="0.54" fill="#f0c86b" opacity="0.64"/><circle cx="1172.9" cy="570.7" r="1.23" fill="#f0c86b" opacity="0.25"/><circle cx="990.4" cy="713.7" r="0.97" fill="#f0c86b" opacity="0.75"/><circle cx="1192.0" cy="655.8" r="0.76" fill="#f0c86b" opacity="0.46"/><circle cx="1196.5" cy="664.1" r="1.19" fill="#f0c86b" opacity="0.53"/><circle cx="1228.7" cy="666.3" r="0.64" fill="#f0c86b" opacity="0.44"/><circle cx="1011.0" cy="640.1" r="1.09" fill="#f0c86b" opacity="0.89"/><circle cx="1053.2" cy="605.0" r="0.47" fill="#f0c86b" opacity="0.65"/><circle cx="1255.0" cy="621.6" r="1.00" fill="#f0c86b" opacity="0.27"/><circle cx="1152.8" cy="624.9" r="0.65" fill="#f0c86b" opacity="0.80"/><circle cx="1259.7" cy="630.8" r="1.08" fill="#f0c86b" opacity="0.76"/><circle cx="1290.2" cy="608.4" r="1.17" fill="#f0c86b" opacity="0.51"/><circle cx="1045.1" cy="657.4" r="0.54" fill="#f0c86b" opacity="0.67"/><circle cx="1234.4" cy="650.6" r="0.85" fill="#f0c86b" opacity="0.74"/><circle cx="1142.1" cy="623.0" r="1.12" fill="#f0c86b" opacity="0.60"/><circle cx="1187.5" cy="639.7" r="1.19" fill="#f0c86b" opacity="0.36"/><circle cx="1249.4" cy="657.3" r="0.77" fill="#f0c86b" opacity="0.61"/><circle cx="1182.4" cy="724.0" r="1.14" fill="#f0c86b" opacity="0.66"/><circle cx="1231.9" cy="580.0" r="0.83" fill="#f0c86b" opacity="0.86"/><circle cx="1175.2" cy="669.1" r="0.89" fill="#f0c86b" opacity="0.47"/><circle cx="1237.9" cy="708.1" r="0.64" fill="#f0c86b" opacity="0.43"/><circle cx="1158.2" cy="639.1" r="0.67" fill="#f0c86b" opacity="0.79"/><circle cx="1246.3" cy="673.3" r="1.05" fill="#f0c86b" opacity="0.45"/><circle cx="1148.2" cy="563.1" r="0.63" fill="#f0c86b" opacity="0.38"/><circle cx="1165.0" cy="623.9" r="0.94" fill="#f0c86b" opacity="0.73"/><circle cx="1118.4" cy="704.7" r="1.04" fill="#f0c86b" opacity="0.45"/><circle cx="1205.6" cy="674.0" r="0.77" fill="#f0c86b" opacity="0.82"/><circle cx="1197.1" cy="543.0" r="0.68" fill="#f0c86b" opacity="0.68"/><circle cx="1132.0" cy="727.5" r="1.06" fill="#f0c86b" opacity="0.66"/><circle cx="1135.3" cy="585.5" r="0.67" fill="#f0c86b" opacity="0.57"/><circle cx="1338.7" cy="616.2" r="0.51" fill="#f0c86b" opacity="0.43"/><circle cx="1195.9" cy="588.0" r="0.73" fill="#f0c86b" opacity="0.58"/><circle cx="1234.3" cy="628.7" r="0.86" fill="#f0c86b" opacity="0.46"/><circle cx="1232.8" cy="764.3" r="0.85" fill="#f0c86b" opacity="0.76"/><circle cx="1347.9" cy="794.4" r="0.96" fill="#f0c86b" opacity="0.72"/><circle cx="1302.4" cy="716.9" r="1.04" fill="#f0c86b" opacity="0.25"/><circle cx="1324.3" cy="659.9" r="0.46" fill="#f0c86b" opacity="0.43"/><circle cx="1238.4" cy="790.3" r="1.15" fill="#f0c86b" opacity="0.90"/><circle cx="1269.7" cy="682.9" r="0.91" fill="#f0c86b" opacity="0.34"/><circle cx="1253.4" cy="644.0" r="1.08" fill="#f0c86b" opacity="0.31"/><circle cx="1323.2" cy="616.0" r="0.78" fill="#f0c86b" opacity="0.22"/><circle cx="1236.9" cy="772.5" r="0.80" fill="#f0c86b" opacity="0.90"/><circle cx="1288.3" cy="686.1" r="0.54" fill="#f0c86b" opacity="0.48"/><circle cx="1366.1" cy="657.4" r="1.15" fill="#f0c86b" opacity="0.33"/><circle cx="1242.7" cy="791.6" r="0.68" fill="#f0c86b" opacity="0.44"/><circle cx="1309.4" cy="770.6" r="1.08" fill="#f0c86b" opacity="0.43"/><circle cx="1323.7" cy="641.5" r="0.79" fill="#f0c86b" opacity="0.38"/><circle cx="1237.8" cy="750.8" r="0.87" fill="#f0c86b" opacity="0.87"/><circle cx="1189.4" cy="810.2" r="0.57" fill="#f0c86b" opacity="0.63"/><circle cx="1404.8" cy="715.6" r="0.93" fill="#f0c86b" opacity="0.56"/><circle cx="1379.1" cy="811.2" r="1.06" fill="#f0c86b" opacity="0.89"/><circle cx="1299.7" cy="812.3" r="0.50" fill="#f0c86b" opacity="0.36"/><circle cx="1304.7" cy="722.6" r="0.81" fill="#f0c86b" opacity="0.25"/><circle cx="1370.4" cy="646.3" r="0.63" fill="#f0c86b" opacity="0.40"/><circle cx="1318.1" cy="711.3" r="0.92" fill="#f0c86b" opacity="0.74"/><circle cx="1240.2" cy="804.0" r="0.91" fill="#f0c86b" opacity="0.45"/><circle cx="1256.3" cy="776.2" r="0.81" fill="#f0c86b" opacity="0.39"/><circle cx="1361.3" cy="766.5" r="0.93" fill="#f0c86b" opacity="0.36"/><circle cx="1273.8" cy="723.6" r="0.79" fill="#f0c86b" opacity="0.41"/><circle cx="1202.8" cy="742.5" r="1.23" fill="#f0c86b" opacity="0.56"/><circle cx="1301.4" cy="710.6" r="1.23" fill="#f0c86b" opacity="0.56"/><circle cx="1270.0" cy="718.1" r="0.68" fill="#f0c86b" opacity="0.48"/><circle cx="1147.8" cy="823.5" r="0.77" fill="#f0c86b" opacity="0.39"/><circle cx="1307.0" cy="709.6" r="0.80" fill="#f0c86b" opacity="0.77"/><circle cx="1269.6" cy="761.8" r="0.97" fill="#f0c86b" opacity="0.83"/><circle cx="1230.5" cy="803.2" r="1.23" fill="#f0c86b" opacity="0.40"/><circle cx="1496.7" cy="710.0" r="0.97" fill="#f0c86b" opacity="0.58"/><circle cx="1394.8" cy="739.7" r="0.98" fill="#f0c86b" opacity="0.47"/><circle cx="1369.5" cy="721.0" r="1.07" fill="#f0c86b" opacity="0.33"/><circle cx="1269.7" cy="742.4" r="0.88" fill="#f0c86b" opacity="0.41"/><circle cx="1216.2" cy="799.3" r="1.12" fill="#f0c86b" opacity="0.37"/><circle cx="1347.4" cy="687.8" r="0.82" fill="#f0c86b" opacity="0.35"/><circle cx="1260.4" cy="656.7" r="0.76" fill="#f0c86b" opacity="0.77"/><circle cx="1333.8" cy="727.1" r="1.10" fill="#f0c86b" opacity="0.86"/><circle cx="1312.9" cy="708.6" r="0.87" fill="#f0c86b" opacity="0.32"/><circle cx="1229.2" cy="732.0" r="1.24" fill="#f0c86b" opacity="0.50"/><circle cx="1181.5" cy="650.3" r="1.20" fill="#f0c86b" opacity="0.72"/><circle cx="1392.0" cy="702.5" r="0.91" fill="#f0c86b" opacity="0.56"/><circle cx="1278.2" cy="745.0" r="1.14" fill="#f0c86b" opacity="0.60"/><circle cx="1196.0" cy="729.4" r="1.20" fill="#f0c86b" opacity="0.46"/><circle cx="1307.6" cy="790.3" r="0.68" fill="#f0c86b" opacity="0.84"/><circle cx="1301.0" cy="783.8" r="0.69" fill="#f0c86b" opacity="0.66"/><circle cx="1221.2" cy="750.9" r="0.59" fill="#f0c86b" opacity="0.32"/><circle cx="1197.3" cy="759.0" r="0.79" fill="#f0c86b" opacity="0.70"/><circle cx="1245.8" cy="665.7" r="0.63" fill="#f0c86b" opacity="0.74"/><circle cx="1344.5" cy="718.2" r="0.94" fill="#f0c86b" opacity="0.57"/><circle cx="1262.7" cy="712.1" r="0.60" fill="#f0c86b" opacity="0.83"/><circle cx="1295.5" cy="738.3" r="0.66" fill="#f0c86b" opacity="0.84"/><circle cx="1341.6" cy="652.1" r="0.67" fill="#f0c86b" opacity="0.58"/><circle cx="1289.2" cy="746.7" r="0.87" fill="#f0c86b" opacity="0.76"/><circle cx="1290.6" cy="673.8" r="0.77" fill="#f0c86b" opacity="0.81"/><circle cx="1274.7" cy="676.4" r="0.85" fill="#f0c86b" opacity="0.54"/><circle cx="1303.2" cy="795.0" r="0.88" fill="#f0c86b" opacity="0.27"/><circle cx="1448.4" cy="711.6" r="0.87" fill="#f0c86b" opacity="0.32"/><circle cx="1310.5" cy="684.5" r="1.20" fill="#f0c86b" opacity="0.81"/><circle cx="1305.4" cy="754.2" r="0.68" fill="#f0c86b" opacity="0.34"/><circle cx="1328.6" cy="668.1" r="0.63" fill="#f0c86b" opacity="0.82"/><circle cx="1166.1" cy="731.7" r="1.02" fill="#f0c86b" opacity="0.34"/><circle cx="1280.2" cy="799.1" r="0.67" fill="#f0c86b" opacity="0.69"/><circle cx="1364.1" cy="802.4" r="1.25" fill="#f0c86b" opacity="0.82"/><circle cx="1306.2" cy="772.4" r="1.05" fill="#f0c86b" opacity="0.88"/><circle cx="1390.0" cy="846.4" r="0.63" fill="#f0c86b" opacity="0.44"/><circle cx="1242.7" cy="600.0" r="0.51" fill="#f0c86b" opacity="0.82"/><circle cx="1260.8" cy="732.5" r="0.77" fill="#f0c86b" opacity="0.55"/><circle cx="1393.2" cy="691.1" r="1.01" fill="#f0c86b" opacity="0.33"/><circle cx="1387.5" cy="716.8" r="0.77" fill="#f0c86b" opacity="0.29"/><circle cx="1253.6" cy="709.9" r="0.98" fill="#f0c86b" opacity="0.31"/><circle cx="1306.7" cy="639.3" r="0.75" fill="#f0c86b" opacity="0.67"/><circle cx="1282.9" cy="711.9" r="1.01" fill="#f0c86b" opacity="0.49"/><circle cx="1263.0" cy="794.8" r="0.66" fill="#f0c86b" opacity="0.40"/><circle cx="1256.0" cy="746.9" r="1.04" fill="#f0c86b" opacity="0.24"/><circle cx="1304.2" cy="722.4" r="0.50" fill="#f0c86b" opacity="0.66"/><circle cx="1328.9" cy="750.8" r="0.84" fill="#f0c86b" opacity="0.75"/><circle cx="1299.3" cy="785.8" r="0.71" fill="#f0c86b" opacity="0.25"/><circle cx="1096.1" cy="814.1" r="0.60" fill="#f0c86b" opacity="0.52"/><circle cx="1227.4" cy="731.6" r="1.06" fill="#f0c86b" opacity="0.40"/><circle cx="1335.4" cy="761.2" r="0.76" fill="#f0c86b" opacity="0.78"/><circle cx="1288.3" cy="633.2" r="1.06" fill="#f0c86b" opacity="0.34"/><circle cx="1463.0" cy="675.5" r="1.10" fill="#f0c86b" opacity="0.60"/><circle cx="1160.1" cy="616.9" r="0.55" fill="#f0c86b" opacity="0.71"/><circle cx="1338.6" cy="681.8" r="0.50" fill="#f0c86b" opacity="0.30"/><circle cx="1368.2" cy="687.6" r="0.55" fill="#f0c86b" opacity="0.68"/><circle cx="1184.1" cy="643.3" r="0.64" fill="#f0c86b" opacity="0.47"/><circle cx="1301.0" cy="668.8" r="0.47" fill="#f0c86b" opacity="0.89"/><circle cx="1251.2" cy="675.1" r="0.55" fill="#f0c86b" opacity="0.42"/><circle cx="1284.7" cy="817.2" r="0.87" fill="#f0c86b" opacity="0.45"/><circle cx="1345.7" cy="748.2" r="0.99" fill="#f0c86b" opacity="0.40"/><circle cx="1375.6" cy="700.5" r="0.61" fill="#f0c86b" opacity="0.65"/><circle cx="1294.7" cy="759.7" r="0.55" fill="#f0c86b" opacity="0.86"/><circle cx="1246.9" cy="703.4" r="0.82" fill="#f0c86b" opacity="0.91"/><circle cx="1208.9" cy="717.3" r="0.54" fill="#f0c86b" opacity="0.60"/><circle cx="1166.2" cy="656.4" r="0.85" fill="#f0c86b" opacity="0.80"/><circle cx="1356.9" cy="650.0" r="1.20" fill="#f0c86b" opacity="0.70"/><circle cx="1014.1" cy="663.8" r="0.73" fill="#f0c86b" opacity="0.85"/><circle cx="1052.9" cy="678.6" r="0.64" fill="#f0c86b" opacity="0.85"/><circle cx="997.1" cy="672.1" r="1.16" fill="#f0c86b" opacity="0.53"/><circle cx="1024.2" cy="688.1" r="0.57" fill="#f0c86b" opacity="0.83"/><circle cx="994.8" cy="644.6" r="0.65" fill="#f0c86b" opacity="0.32"/><circle cx="995.4" cy="705.0" r="0.52" fill="#f0c86b" opacity="0.41"/><circle cx="1011.6" cy="648.3" r="1.06" fill="#f0c86b" opacity="0.55"/><circle cx="937.5" cy="662.0" r="0.52" fill="#f0c86b" opacity="0.77"/><circle cx="955.7" cy="640.9" r="0.61" fill="#f0c86b" opacity="0.52"/><circle cx="1059.6" cy="670.4" r="0.49" fill="#f0c86b" opacity="0.91"/><circle cx="976.1" cy="700.7" r="0.96" fill="#f0c86b" opacity="0.86"/><circle cx="956.2" cy="698.0" r="0.51" fill="#f0c86b" opacity="0.73"/><circle cx="972.5" cy="683.0" r="1.02" fill="#f0c86b" opacity="0.24"/><circle cx="995.2" cy="700.7" r="0.68" fill="#f0c86b" opacity="0.76"/><circle cx="957.9" cy="690.4" r="1.13" fill="#f0c86b" opacity="0.81"/><circle cx="991.3" cy="703.4" r="1.00" fill="#f0c86b" opacity="0.60"/><circle cx="957.8" cy="677.3" r="1.15" fill="#f0c86b" opacity="0.71"/><circle cx="911.2" cy="736.8" r="1.16" fill="#f0c86b" opacity="0.57"/><circle cx="955.0" cy="658.4" r="0.47" fill="#f0c86b" opacity="0.55"/><circle cx="915.0" cy="703.2" r="1.14" fill="#f0c86b" opacity="0.47"/><circle cx="1022.9" cy="725.8" r="0.62" fill="#f0c86b" opacity="0.73"/><circle cx="1029.5" cy="690.6" r="0.91" fill="#f0c86b" opacity="0.83"/><circle cx="1030.5" cy="713.5" r="0.71" fill="#f0c86b" opacity="0.28"/><circle cx="1015.3" cy="735.3" r="0.55" fill="#f0c86b" opacity="0.71"/><circle cx="1002.7" cy="692.2" r="0.96" fill="#f0c86b" opacity="0.22"/><circle cx="1017.5" cy="686.2" r="0.66" fill="#f0c86b" opacity="0.59"/><circle cx="956.6" cy="745.8" r="0.74" fill="#f0c86b" opacity="0.91"/><circle cx="1092.9" cy="624.6" r="0.82" fill="#f0c86b" opacity="0.49"/><circle cx="906.6" cy="692.7" r="0.47" fill="#f0c86b" opacity="0.44"/><circle cx="1071.5" cy="725.9" r="0.99" fill="#f0c86b" opacity="0.62"/><circle cx="1009.6" cy="712.1" r="0.92" fill="#f0c86b" opacity="0.28"/><circle cx="951.1" cy="670.1" r="0.93" fill="#f0c86b" opacity="0.77"/><circle cx="996.5" cy="643.5" r="1.08" fill="#f0c86b" opacity="0.32"/><circle cx="997.1" cy="684.7" r="0.96" fill="#f0c86b" opacity="0.33"/><circle cx="970.0" cy="700.7" r="0.47" fill="#f0c86b" opacity="0.79"/><circle cx="1007.5" cy="742.3" r="0.81" fill="#f0c86b" opacity="0.47"/><circle cx="958.9" cy="701.1" r="0.97" fill="#f0c86b" opacity="0.73"/><circle cx="991.1" cy="666.9" r="0.57" fill="#f0c86b" opacity="0.30"/><circle cx="1039.3" cy="671.8" r="1.18" fill="#f0c86b" opacity="0.33"/><circle cx="989.7" cy="636.1" r="1.19" fill="#f0c86b" opacity="0.36"/><circle cx="977.9" cy="673.3" r="1.18" fill="#f0c86b" opacity="0.24"/><circle cx="1033.3" cy="731.3" r="1.04" fill="#f0c86b" opacity="0.30"/><circle cx="987.1" cy="695.3" r="1.13" fill="#f0c86b" opacity="0.84"/><circle cx="1037.1" cy="645.6" r="0.74" fill="#f0c86b" opacity="0.90"/><circle cx="1048.1" cy="747.3" r="0.93" fill="#f0c86b" opacity="0.51"/><circle cx="942.9" cy="718.1" r="0.94" fill="#f0c86b" opacity="0.64"/><circle cx="980.4" cy="640.0" r="0.71" fill="#f0c86b" opacity="0.48"/><circle cx="1015.8" cy="622.6" r="0.79" fill="#f0c86b" opacity="0.25"/><circle cx="925.2" cy="710.3" r="0.70" fill="#f0c86b" opacity="0.55"/><circle cx="981.4" cy="734.3" r="0.49" fill="#f0c86b" opacity="0.52"/><circle cx="1064.4" cy="722.7" r="0.61" fill="#f0c86b" opacity="0.61"/><circle cx="966.4" cy="692.7" r="0.83" fill="#f0c86b" opacity="0.88"/><circle cx="967.9" cy="657.9" r="0.93" fill="#f0c86b" opacity="0.71"/><circle cx="980.5" cy="750.9" r="0.86" fill="#f0c86b" opacity="0.80"/><circle cx="1024.4" cy="681.8" r="0.54" fill="#f0c86b" opacity="0.36"/><circle cx="942.3" cy="667.4" r="0.79" fill="#f0c86b" opacity="0.83"/><circle cx="1056.5" cy="698.3" r="0.95" fill="#f0c86b" opacity="0.53"/><circle cx="1086.0" cy="707.0" r="0.95" fill="#f0c86b" opacity="0.84"/><circle cx="975.6" cy="693.0" r="0.99" fill="#f0c86b" opacity="0.50"/><circle cx="957.6" cy="728.6" r="1.10" fill="#f0c86b" opacity="0.27"/><circle cx="935.0" cy="729.9" r="0.91" fill="#f0c86b" opacity="0.65"/><circle cx="979.9" cy="725.2" r="0.49" fill="#f0c86b" opacity="0.75"/><circle cx="937.8" cy="614.9" r="1.04" fill="#f0c86b" opacity="0.65"/><circle cx="950.8" cy="734.1" r="0.92" fill="#f0c86b" opacity="0.75"/><circle cx="990.2" cy="649.8" r="1.00" fill="#f0c86b" opacity="0.78"/><circle cx="998.7" cy="590.7" r="1.04" fill="#f0c86b" opacity="0.89"/><circle cx="1005.9" cy="707.1" r="1.00" fill="#f0c86b" opacity="0.29"/><circle cx="952.3" cy="654.5" r="0.62" fill="#f0c86b" opacity="0.46"/><circle cx="992.8" cy="670.2" r="0.47" fill="#f0c86b" opacity="0.71"/><circle cx="992.5" cy="672.0" r="0.94" fill="#f0c86b" opacity="0.89"/><circle cx="1420.6" cy="611.7" r="0.84" fill="#f0c86b" opacity="0.44"/><circle cx="1412.6" cy="553.3" r="0.90" fill="#f0c86b" opacity="0.33"/><circle cx="1402.2" cy="612.2" r="1.10" fill="#f0c86b" opacity="0.76"/><circle cx="1336.0" cy="611.2" r="1.18" fill="#f0c86b" opacity="0.34"/><circle cx="1428.5" cy="561.9" r="1.12" fill="#f0c86b" opacity="0.65"/><circle cx="1419.7" cy="591.5" r="0.52" fill="#f0c86b" opacity="0.73"/><circle cx="1421.1" cy="614.2" r="0.99" fill="#f0c86b" opacity="0.45"/><circle cx="1384.9" cy="581.8" r="1.05" fill="#f0c86b" opacity="0.68"/><circle cx="1445.1" cy="614.0" r="0.51" fill="#f0c86b" opacity="0.27"/><circle cx="1483.3" cy="571.5" r="0.66" fill="#f0c86b" opacity="0.29"/><circle cx="1426.9" cy="598.7" r="0.97" fill="#f0c86b" opacity="0.48"/><circle cx="1461.6" cy="582.6" r="1.10" fill="#f0c86b" opacity="0.73"/><circle cx="1401.8" cy="568.4" r="0.89" fill="#f0c86b" opacity="0.70"/><circle cx="1433.2" cy="614.3" r="0.61" fill="#f0c86b" opacity="0.72"/><circle cx="1315.2" cy="627.6" r="1.25" fill="#f0c86b" opacity="0.82"/><circle cx="1330.8" cy="600.3" r="1.13" fill="#f0c86b" opacity="0.54"/><circle cx="1341.9" cy="573.9" r="1.24" fill="#f0c86b" opacity="0.63"/><circle cx="1421.2" cy="616.9" r="0.86" fill="#f0c86b" opacity="0.73"/><circle cx="1348.7" cy="699.3" r="0.54" fill="#f0c86b" opacity="0.25"/><circle cx="1402.8" cy="624.7" r="0.55" fill="#f0c86b" opacity="0.63"/><circle cx="1453.5" cy="583.4" r="0.59" fill="#f0c86b" opacity="0.90"/><circle cx="1417.8" cy="527.7" r="0.71" fill="#f0c86b" opacity="0.48"/><circle cx="1425.0" cy="588.8" r="0.95" fill="#f0c86b" opacity="0.29"/><circle cx="1386.3" cy="578.5" r="1.01" fill="#f0c86b" opacity="0.24"/><circle cx="1346.8" cy="599.2" r="1.07" fill="#f0c86b" opacity="0.70"/><circle cx="1428.1" cy="605.0" r="0.54" fill="#f0c86b" opacity="0.60"/><circle cx="1405.9" cy="553.6" r="0.81" fill="#f0c86b" opacity="0.91"/><circle cx="1494.9" cy="620.7" r="0.68" fill="#f0c86b" opacity="0.34"/><circle cx="1450.0" cy="658.2" r="1.15" fill="#f0c86b" opacity="0.45"/><circle cx="1314.7" cy="587.6" r="1.07" fill="#f0c86b" opacity="0.26"/><circle cx="1378.1" cy="669.9" r="0.71" fill="#f0c86b" opacity="0.23"/><circle cx="1440.3" cy="617.2" r="0.48" fill="#f0c86b" opacity="0.44"/><circle cx="1418.2" cy="570.3" r="0.91" fill="#f0c86b" opacity="0.43"/><circle cx="1376.5" cy="573.9" r="0.61" fill="#f0c86b" opacity="0.28"/><circle cx="1409.6" cy="563.0" r="0.62" fill="#f0c86b" opacity="0.34"/><circle cx="1383.6" cy="594.6" r="0.94" fill="#f0c86b" opacity="0.43"/><circle cx="1400.9" cy="577.6" r="0.46" fill="#f0c86b" opacity="0.68"/><circle cx="1427.5" cy="628.7" r="0.59" fill="#f0c86b" opacity="0.53"/><circle cx="1413.5" cy="606.9" r="0.93" fill="#f0c86b" opacity="0.75"/><circle cx="1334.3" cy="587.9" r="1.16" fill="#f0c86b" opacity="0.37"/><circle cx="1459.4" cy="663.0" r="1.09" fill="#f0c86b" opacity="0.87"/><circle cx="1428.3" cy="620.6" r="0.69" fill="#f0c86b" opacity="0.50"/><circle cx="1390.9" cy="614.0" r="1.24" fill="#f0c86b" opacity="0.63"/><circle cx="1382.7" cy="622.0" r="0.80" fill="#f0c86b" opacity="0.47"/><circle cx="1461.8" cy="544.6" r="0.82" fill="#f0c86b" opacity="0.38"/><circle cx="1391.6" cy="644.3" r="0.63" fill="#f0c86b" opacity="0.76"/><circle cx="1411.9" cy="606.3" r="0.58" fill="#f0c86b" opacity="0.51"/><circle cx="1394.8" cy="543.2" r="1.21" fill="#f0c86b" opacity="0.73"/><circle cx="1415.0" cy="521.4" r="1.00" fill="#f0c86b" opacity="0.72"/><circle cx="1440.8" cy="622.3" r="0.82" fill="#f0c86b" opacity="0.88"/><circle cx="1465.9" cy="596.6" r="0.90" fill="#f0c86b" opacity="0.22"/><circle cx="1404.8" cy="583.9" r="0.76" fill="#f0c86b" opacity="0.81"/><circle cx="1502.6" cy="554.4" r="0.49" fill="#f0c86b" opacity="0.89"/><circle cx="1391.9" cy="613.9" r="0.60" fill="#f0c86b" opacity="0.41"/><circle cx="1402.3" cy="590.8" r="0.94" fill="#f0c86b" opacity="0.85"/><circle cx="1403.4" cy="649.7" r="0.57" fill="#f0c86b" opacity="0.69"/><circle cx="1378.5" cy="615.3" r="0.98" fill="#f0c86b" opacity="0.23"/><circle cx="1412.2" cy="590.5" r="0.48" fill="#f0c86b" opacity="0.46"/><circle cx="1397.4" cy="582.3" r="1.18" fill="#f0c86b" opacity="0.85"/><circle cx="1371.1" cy="591.2" r="0.72" fill="#f0c86b" opacity="0.44"/>
</g>
<circle cx="1215" cy="1110" r="770" fill="none" stroke="url(#rim)" stroke-width="2.2" opacity=".82"/>
<ellipse cx="1360" cy="350" rx="145" ry="82" fill="url(#sun)" opacity=".72"/>
<circle cx="1360" cy="350" r="6" fill="#fffbe8"/>
<rect x="0" y="0" width="925" height="960" fill="url(#leftFade)"/>
</svg>