<svg xmlns="http://www.w3.org/2000/svg" style="display:none">
  <symbol id="potential" viewBox="0 0 48 48"><circle cx="24" cy="24" r="8"/><circle cx="24" cy="24" r="17" stroke-dasharray="4 5"/><path d="M24 4v7M24 37v7M4 24h7M37 24h7"/></symbol>
  <symbol id="selection" viewBox="0 0 48 48"><path d="M24 4 39 11v11c0 10-6 18-15 22C15 40 9 32 9 22V11Z"/><path d="m17 24 5 5 10-11"/></symbol>
  <symbol id="formation" viewBox="0 0 48 48"><path d="M24 5 42 15 24 25 6 15Z"/><path d="M12 20v11l12 7 12-7V20"/><path d="M42 15v14"/></symbol>
  <symbol id="exposure" viewBox="0 0 48 48"><circle cx="24" cy="24" r="19"/><path d="M5 24h38M24 5c6 6 9 12 9 19s-3 13-9 19c-6-6-9-12-9-19s3-13 9-19Z"/></symbol>
  <symbol id="transformation" viewBox="0 0 48 48"><path d="M8 36 18 26l7 7 15-20"/><path d="M31 13h9v9"/><path d="M7 42h35"/></symbol>
  <symbol id="command" viewBox="0 0 48 48"><path d="m24 4 3.5 13 12.5-5-9.5 9 11 7-13-2L24 44l-4.5-18-13 2 11-7-9.5-9 12.5 5Z"/></symbol>
  <symbol id="judgement" viewBox="0 0 48 48"><path d="M24 6v36M11 13h26M15 13 8 27h14ZM33 13l-7 14h14Z"/><path d="M17 42h14"/></symbol>
  <symbol id="systems" viewBox="0 0 48 48"><circle cx="24" cy="24" r="6"/><circle cx="9" cy="12" r="4"/><circle cx="39" cy="12" r="4"/><circle cx="10" cy="38" r="4"/><circle cx="38" cy="38" r="4"/><path d="m13 14 7 7m15-7-7 7m-14 14 7-7m14 7-7-7"/></symbol>
  <symbol id="decision" viewBox="0 0 48 48"><path d="M8 8h12v12H8ZM28 8h12v12H28ZM18 28h12v12H18Z"/><path d="M20 14h8M14 20v8m20-8v8"/></symbol>
  <symbol id="institution" viewBox="0 0 48 48"><path d="M5 18 24 7l19 11ZM9 22h30M12 22v16m8-16v16m8-16v16m8-16v16M6 42h36"/></symbol>
  <symbol id="innovation" viewBox="0 0 48 48"><path d="M17 32c-5-3-8-8-8-14 0-8 7-14 15-14s15 6 15 14c0 6-3 11-8 14"/><path d="M18 32h12M18 37h12M20 42h8M24 8v6m-12-1 5 4m19-4-5 4"/></symbol>
  <symbol id="international" viewBox="0 0 48 48"><circle cx="24" cy="24" r="19"/><path d="M5 24h38M24 5c6 6 9 12 9 19s-3 13-9 19c-6-6-9-12-9-19s3-13 9-19Z"/><path d="M9 13c9 5 21 5 30 0M9 35c9-5 21-5 30 0"/></symbol>
  <symbol id="evidence" viewBox="0 0 48 48"><path d="M10 6h22l6 6v30H10Z"/><path d="M32 6v8h8M16 21h16M16 28h16M16 35h10"/></symbol>
  <symbol id="governance" viewBox="0 0 48 48"><circle cx="24" cy="24" r="8"/><circle cx="24" cy="24" r="18"/><path d="M24 6v10M24 32v10M6 24h10M32 24h10"/></symbol>
  <symbol id="impact" viewBox="0 0 48 48"><path d="M8 40V27h7v13M20 40V19h7v21M32 40V8h7v32M5 40h38"/><path d="m9 20 10-8 8 4 12-11"/></symbol>
</svg>
